<?xml version="1.0" encoding="UTF-8"?>
<svg id="_레이어_2" data-name="레이어 2" xmlns="http://www.w3.org/2000/svg" viewBox="0 0 676.03 157.79">
  <defs>
    <style>
      .cls-1 {
        fill: none;
        stroke: #000;
        stroke-miterlimit: 10;
        stroke-width: .75px;
      }
    </style>
  </defs>
  <g id="_레이어_1-2" data-name="레이어 1">
    <rect class="cls-1" x=".37" y=".38" width="675.28" height="157.04" rx="78.52" ry="78.52"/>
    <polygon class="cls-1" points="617.6 122.63 613.1 120.73 614.77 125.31 611.44 121.74 611.1 126.62 609.51 122 607.22 126.32 607.64 121.45 603.79 124.46 606.16 120.18 601.42 121.37 605.32 118.43 600.51 117.58 605.27 116.48 601.21 113.75 606.01 114.68 603.42 110.54 607.42 113.34 606.74 108.5 609.26 112.68 610.6 107.99 611.2 112.84 614.34 109.09 612.91 113.76 617.3 111.62 614.1 115.31 618.98 115.14 614.56 117.2 619.09 119.03 614.2 119.12 617.6 122.63"/>
    <line class="cls-1" x1="136.13" y1="117.85" x2="599.95" y2="117.85"/>
    <path d="m129,110.62c.01,3.87,4.51,7.03,10.17,7.22v.02c-5.66.18-10.16,3.35-10.17,7.22-.01-4-4.8-7.23-10.71-7.23,5.91,0,10.7-3.23,10.71-7.23Z"/>
  </g>
</svg>