<?xml version="1.0" encoding="UTF-8"?>
<svg id="_레이어_2" data-name="레이어 2" xmlns="http://www.w3.org/2000/svg" viewBox="0 0 181.63 173.82">
  <defs>
    <style>
      .cls-1 {
        fill: none;
        stroke: #000;
        stroke-miterlimit: 10;
        stroke-width: .75px;
      }
    </style>
  </defs>
  <g id="_레이어_1-2" data-name="레이어 1">
    <g>
      <path class="cls-1" d="m158.79,56.39c.06,2.79,0,5.61-.23,8.51-1.04,15.71-5.69,32.76-14.12,49.34-1.02,1.97-2.05,3.91-3.14,5.8-6.46,11.36-14.14,21.22-22.5,29.27-2.55.2-5.16.31-7.81.34-2.08,1.49-4.2,2.88-6.33,4.16,2.76.41,5.48.69,8.16.86-20.98,17.54-45.04,23.92-63.84,14.34-3.03-1.54-5.81-3.45-8.32-5.67-11.44-10.05-17.52-26.62-17.83-45.89-.06-2.79,0-5.61.23-8.51,1.04-15.71,5.69-32.76,14.12-49.34,1.02-1.97,2.05-3.91,3.14-5.8,6.46-11.36,14.14-21.22,22.5-29.27,2.55-.2,5.16-.31,7.81-.34,2.08-1.49,4.2-2.88,6.33-4.16-2.76-.41-5.48-.69-8.16-.86C89.79,1.63,113.84-4.75,132.64,4.83c3.03,1.54,5.81,3.45,8.32,5.67,11.44,10.05,17.52,26.62,17.83,45.89Z"/>
      <path class="cls-1" d="m158.79,56.39c.06,2.79,0,5.61-.23,8.51,1.92,2.27,3.68,4.58,5.31,6.91-3.23,15.83-10.84,32.64-22.57,48.22-1.32,1.78-2.71,3.52-4.14,5.26-8.02,9.67-16.91,17.86-26.17,24.35-2.08,1.49-4.2,2.88-6.33,4.16-22.54,13.82-46.39,17.77-64,9.52-3.07-1.44-5.96-3.25-8.62-5.45-12.6-10.43-17.65-27.57-15.65-46.99,1.99,2.25,4.13,4.43,6.44,6.54-.06-2.79,0-5.61.23-8.51-1.92-2.27-3.68-4.58-5.31-6.91,3.23-15.83,10.84-32.64,22.57-48.22,1.32-1.78,2.71-3.52,4.14-5.26,8.02-9.67,16.91-17.86,26.17-24.35,2.08-1.49,4.2-2.88,6.33-4.16,22.54-13.82,46.39-17.77,64-9.52,3.07,1.44,5.96,3.25,8.62,5.45,12.6,10.43,17.65,27.57,15.65,46.99-1.99-2.25-4.13-4.43-6.44-6.54Z"/>
      <path d="m76.96,20.02c-2.13,1.28-4.24,2.67-6.33,4.16-2.65.03-5.25.14-7.81.34,1.95-1.89,3.95-3.68,5.97-5.35,2.67.16,5.4.44,8.16.86Z"/>
      <path d="m118.8,149.3c-1.95,1.89-3.95,3.68-5.97,5.35-2.67-.16-5.4-.44-8.16-.86,2.13-1.28,4.24-2.67,6.33-4.16,2.65-.03,5.25-.14,7.81-.34Z"/>
      <path class="cls-1" d="m176.25,119.49c-.72,3.19-1.83,6.28-3.34,9.24-9.58,18.8-32.79,27.78-60.07,25.92,2.02-1.67,4.02-3.47,5.97-5.35-2.55.2-5.16.31-7.81.34-2.08,1.49-4.2,2.88-6.33,4.16-11.49-1.62-23.52-5.09-35.4-10.47-1.93-.89-3.85-1.81-5.78-2.79-16.57-8.46-30.35-19.52-40.42-31.61-1.92-2.27-3.68-4.58-5.31-6.91C6.7,86.2,1.95,69.19,5.39,54.33c.72-3.19,1.83-6.28,3.34-9.24,9.58-18.8,32.79-27.78,60.07-25.92-2.02,1.67-4.02,3.47-5.97,5.35,2.55-.2,5.16-.31,7.81-.34,2.08-1.49,4.2-2.88,6.33-4.16,11.49,1.62,23.52,5.09,35.4,10.47,1.93.89,3.85,1.81,5.78,2.79,16.57,8.46,30.35,19.52,40.42,31.61,1.92,2.27,3.68,4.58,5.31,6.91,11.06,15.82,15.81,32.82,12.37,47.68Z"/>
      <path d="m165.23,62.94c-.29,2.9-.75,5.87-1.36,8.87-1.62-2.33-3.39-4.64-5.31-6.91.22-2.9.28-5.72.23-8.51,2.31,2.11,4.46,4.29,6.44,6.54Z"/>
      <path d="m23.07,108.92c-.22,2.9-.28,5.72-.23,8.51-2.31-2.11-4.46-4.29-6.44-6.54.29-2.9.75-5.87,1.36-8.87,1.62,2.33,3.39,4.64,5.31,6.91Z"/>
      <path class="cls-1" d="m179.95,110.23c-.86,3.27-2.11,6.35-3.71,9.27-9.41,17.04-31.06,27.82-57.44,29.81-2.55.2-5.16.31-7.81.34-11.29.11-23.26-1.34-35.4-4.51-2.14-.56-4.25-1.16-6.32-1.8-18.58-5.79-34.57-14.97-46.43-25.9-.06-2.79,0-5.61.23-8.51-1.92-2.27-3.68-4.58-5.31-6.91-.61,3-1.07,5.97-1.36,8.87C3.45,96.31-2.46,79.43,1.68,63.6c.86-3.27,2.11-6.35,3.71-9.27,9.41-17.04,31.06-27.82,57.44-29.81,2.55-.2,5.16-.31,7.81-.34,11.29-.11,23.26,1.34,35.4,4.51,2.14.56,4.25,1.16,6.32,1.8,18.58,5.79,34.57,14.97,46.43,25.9.06,2.79,0,5.61-.23,8.51,1.92,2.27,3.68,4.58,5.31,6.91.61-3,1.07-5.97,1.36-8.87,12.95,14.58,18.86,31.46,14.72,47.29Z"/>
    </g>
  </g>
</svg>