<?xml version="1.0" encoding="UTF-8"?>
<svg id="_레이어_2" data-name="레이어 2" xmlns="http://www.w3.org/2000/svg" viewBox="0 0 343.07 273.05">
  <defs>
    <style>
      .cls-1 {
        fill: none;
        stroke: #000;
        stroke-miterlimit: 10;
        stroke-width: .75px;
      }
    </style>
  </defs>
  <g id="_레이어_1-2" data-name="레이어 1">
    <g>
      <line class="cls-1" x1="227.45" y1="26.78" x2="171.53" y2="136.52"/>
      <line class="cls-1" x1="183.49" y1="9.09" x2="171.53" y2="136.52"/>
      <line class="cls-1" x1="138.71" y1=".09" x2="171.53" y2="136.52"/>
      <line class="cls-1" x1="96.17" y1=".38" x2="171.53" y2="136.52"/>
      <line class="cls-1" x1="58.77" y1="9.95" x2="171.53" y2="136.52"/>
      <line class="cls-1" x1="29.05" y1="28.15" x2="171.53" y2="136.52"/>
      <line class="cls-1" x1="9.04" y1="53.73" x2="171.53" y2="136.52"/>
      <line class="cls-1" x1=".11" y1="84.95" x2="171.53" y2="136.52"/>
      <line class="cls-1" x1="2.85" y1="119.69" x2="171.53" y2="136.52"/>
      <line class="cls-1" x1="17.1" y1="155.58" x2="171.53" y2="136.52"/>
      <line class="cls-1" x1="41.86" y1="190.17" x2="171.53" y2="136.52"/>
      <line class="cls-1" x1="75.47" y1="221.1" x2="171.53" y2="136.52"/>
      <line class="cls-1" x1="115.62" y1="246.27" x2="171.53" y2="136.52"/>
      <line class="cls-1" x1="159.58" y1="263.96" x2="171.53" y2="136.52"/>
      <line class="cls-1" x1="204.36" y1="272.96" x2="171.53" y2="136.52"/>
      <line class="cls-1" x1="246.89" y1="272.67" x2="171.53" y2="136.52"/>
      <line class="cls-1" x1="284.3" y1="263.1" x2="171.53" y2="136.52"/>
      <line class="cls-1" x1="314.02" y1="244.9" x2="171.53" y2="136.52"/>
      <line class="cls-1" x1="334.03" y1="219.32" x2="171.53" y2="136.52"/>
      <line class="cls-1" x1="342.96" y1="188.09" x2="171.53" y2="136.52"/>
      <line class="cls-1" x1="340.21" y1="153.35" x2="171.53" y2="136.52"/>
      <line class="cls-1" x1="325.97" y1="117.47" x2="171.53" y2="136.52"/>
      <line class="cls-1" x1="301.21" y1="82.88" x2="171.53" y2="136.52"/>
      <line class="cls-1" x1="267.6" y1="51.95" x2="171.53" y2="136.52"/>
    </g>
  </g>
</svg>