<?xml version="1.0" encoding="UTF-8"?>
<svg id="_레이어_2" data-name="레이어 2" xmlns="http://www.w3.org/2000/svg" viewBox="0 0 415.79 415.55">
  <g id="_레이어_1-2" data-name="레이어 1">
    <path d="m197.98,415.55c-6.99-.33-14.03-1.01-20.92-2.04l.11-.74c6.87,1.02,13.88,1.7,20.85,2.03l-.04.75Zm21.02-.06l-.04-.75c6.96-.37,13.97-1.09,20.83-2.15l.12.74c-6.89,1.06-13.92,1.79-20.91,2.16Zm-62.56-6.12c-6.77-1.72-13.53-3.82-20.08-6.22l.26-.7c6.53,2.39,13.26,4.48,20.01,6.2l-.19.73Zm104.05-.3l-.19-.73c6.74-1.76,13.46-3.88,19.97-6.31l.26.7c-6.54,2.44-13.29,4.57-20.05,6.33Zm-143.48-14.15c-6.27-3.05-12.47-6.47-18.42-10.15l.39-.64c5.92,3.67,12.1,7.07,18.35,10.11l-.33.67Zm182.83-.52l-.33-.67c6.24-3.08,12.39-6.52,18.29-10.22l.4.64c-5.92,3.71-12.09,7.16-18.35,10.25Zm-218.54-21.58c-5.54-4.26-10.92-8.84-16-13.64l.51-.55c5.07,4.78,10.43,9.35,15.95,13.59l-.46.59Zm254.11-.72l-.46-.59c5.49-4.27,10.83-8.87,15.87-13.68l.52.54c-5.06,4.82-10.41,9.44-15.93,13.73Zm-284.67-28.09c-4.58-5.28-8.94-10.85-12.95-16.56l.61-.43c4,5.68,8.34,11.23,12.91,16.5l-.57.49Zm315.06-.9l-.57-.49c4.53-5.28,8.84-10.86,12.82-16.57l.62.43c-3.99,5.73-8.32,11.33-12.86,16.63ZM26.57,309.67c-3.43-6.09-6.58-12.42-9.36-18.82l.69-.3c2.78,6.37,5.92,12.68,9.33,18.75l-.65.37Zm363.22-1.04l-.66-.36c3.38-6.09,6.48-12.42,9.22-18.81l.69.3c-2.75,6.41-5.86,12.76-9.26,18.88ZM9.8,271.17c-2.12-6.65-3.93-13.49-5.36-20.33l.73-.15c1.43,6.81,3.23,13.63,5.34,20.25l-.71.23Zm396.54-1.14l-.71-.22c2.08-6.64,3.83-13.47,5.23-20.29l.73.15c-1.4,6.84-3.16,13.69-5.25,20.36ZM1.17,230.08c-.73-6.92-1.13-13.98-1.17-20.99h.75c.04,6.98.43,14.01,1.16,20.91l-.75.08Zm413.57-1.19l-.75-.08c.69-6.9,1.04-13.94,1.04-20.92,0-.8,0-1.59-.01-2.39h.75c0,.79.01,1.59.01,2.39,0,7.01-.35,14.07-1.05,20.99ZM1.68,188.16l-.75-.07c.66-6.96,1.68-13.96,3.03-20.8l.74.15c-1.35,6.81-2.37,13.79-3.02,20.73Zm412.07-3.56c-.77-6.93-1.91-13.88-3.38-20.67l.73-.16c1.47,6.82,2.62,13.8,3.39,20.75l-.75.08ZM9.8,147.12l-.72-.22c2.04-6.67,4.46-13.32,7.18-19.76l.69.29c-2.71,6.42-5.11,13.04-7.15,19.69Zm395.09-3.41c-2.15-6.62-4.67-13.2-7.49-19.56l.69-.3c2.83,6.39,5.36,12.99,7.52,19.63l-.71.23ZM26.07,108.57l-.66-.36c3.35-6.12,7.05-12.14,11.02-17.91l.62.42c-3.95,5.75-7.64,11.75-10.98,17.84Zm361.9-3.12c-3.45-6.04-7.24-11.98-11.28-17.65l.61-.44c4.05,5.69,7.86,11.65,11.32,17.71l-.65.37ZM49.77,74.07l-.57-.48c4.52-5.33,9.35-10.49,14.38-15.34l.52.54c-5.01,4.83-9.83,9.97-14.33,15.28Zm313.92-2.7c-4.59-5.23-9.5-10.29-14.59-15.04l.51-.55c5.11,4.76,10.04,9.84,14.64,15.09l-.56.49ZM79.89,45.02l-.46-.59c5.49-4.32,11.26-8.41,17.15-12.15l.4.63c-5.87,3.73-11.62,7.8-17.09,12.11Zm253.19-2.18c-5.54-4.21-11.37-8.19-17.3-11.82l.39-.64c5.96,3.64,11.8,7.63,17.36,11.86l-.45.6ZM115.21,22.59l-.34-.67c6.25-3.13,12.72-5.97,19.25-8.45l.27.7c-6.5,2.47-12.96,5.3-19.18,8.42Zm182.16-1.57c-6.28-3.01-12.78-5.73-19.33-8.09l.25-.71c6.57,2.36,13.09,5.1,19.4,8.12l-.32.68ZM154.32,7.74l-.19-.72c6.74-1.8,13.66-3.27,20.56-4.38l.12.74c-6.88,1.1-13.77,2.57-20.49,4.37Zm103.67-.89c-6.74-1.68-13.66-3.02-20.56-4.01l.11-.74c6.92.99,13.86,2.34,20.63,4.02l-.18.73Zm-62.36-5.74l-.04-.75c6.95-.41,14.06-.47,21.02-.18l-.03.75c-6.94-.29-14.02-.23-20.95.18Z"/>
  </g>
</svg>