<?xml version="1.0" encoding="UTF-8"?>
<svg id="_레이어_2" data-name="레이어 2" xmlns="http://www.w3.org/2000/svg" viewBox="0 0 455.5 455.51">
  <g id="_레이어_1-2" data-name="레이어 1">
    <path d="m225.07,455.51c-3.99-.05-8.03-.2-12-.45l.05-.75c3.96.25,7.99.4,11.97.45v.75Zm12.01-.17l-.03-.75c3.98-.16,8-.43,11.95-.8l.07.75c-3.96.37-8,.64-11.99.8Zm-35.99-1.35c-3.96-.46-7.97-1.03-11.89-1.7l.13-.74c3.92.67,7.9,1.24,11.85,1.7l-.09.75Zm59.9-.87l-.11-.74c3.93-.58,7.9-1.26,11.8-2.05l.15.74c-3.91.79-7.89,1.48-11.84,2.05Zm-83.58-3.16c-3.89-.88-7.81-1.87-11.65-2.95l.2-.72c3.83,1.08,7.73,2.07,11.61,2.94l-.16.73Zm107.13-1.57l-.19-.73c3.85-.99,7.72-2.09,11.52-3.29l.22.72c-3.8,1.2-7.69,2.3-11.55,3.3Zm-130.25-4.95c-3.78-1.29-7.58-2.69-11.29-4.18l.28-.7c3.7,1.48,7.48,2.88,11.25,4.17l-.24.71Zm153.17-2.26l-.26-.7c3.72-1.39,7.44-2.9,11.08-4.48l.3.69c-3.65,1.59-7.39,3.1-11.12,4.49Zm-175.5-6.7c-3.61-1.68-7.24-3.48-10.78-5.35l.35-.66c3.53,1.87,7.14,3.66,10.74,5.33l-.32.68Zm197.49-2.87l-.34-.67c3.54-1.77,7.09-3.66,10.55-5.63l.37.65c-3.47,1.97-7.03,3.87-10.59,5.65Zm-218.74-8.39c-3.42-2.05-6.84-4.23-10.15-6.46l.42-.62c3.3,2.22,6.7,4.39,10.11,6.44l-.39.64Zm239.6-3.46l-.4-.63c3.35-2.14,6.68-4.4,9.91-6.71l.44.61c-3.24,2.32-6.58,4.59-9.94,6.73Zm-259.54-9.98c-3.19-2.4-6.35-4.92-9.41-7.48l.48-.57c3.04,2.56,6.2,5.07,9.38,7.46l-.45.6Zm279.05-4l-.47-.59c3.1-2.48,6.18-5.07,9.15-7.72l.5.56c-2.98,2.65-6.07,5.26-9.18,7.74Zm-297.46-11.45c-2.92-2.72-5.8-5.56-8.57-8.43l.54-.52c2.76,2.86,5.63,5.69,8.54,8.4l-.51.55Zm315.41-4.51l-.53-.53c2.83-2.79,5.62-5.7,8.3-8.64l.55.5c-2.69,2.95-5.49,5.86-8.33,8.67Zm-332.09-12.78c-2.61-3.01-5.18-6.13-7.64-9.27l.59-.46c2.45,3.13,5.01,6.24,7.61,9.24l-.57.49Zm348.27-4.98l-.58-.48c2.52-3.07,4.99-6.26,7.35-9.46l.6.44c-2.36,3.22-4.85,6.41-7.38,9.49Zm-363.05-13.95c-2.28-3.27-4.51-6.64-6.62-10.02l.64-.4c2.1,3.37,4.32,6.73,6.6,9.98l-.62.43Zm377.29-5.42l-.63-.41c2.18-3.32,4.31-6.75,6.32-10.19l.65.38c-2.02,3.45-4.15,6.89-6.34,10.22Zm-389.98-14.95c-1.92-3.48-3.78-7.06-5.52-10.65l.67-.33c1.74,3.58,3.59,7.15,5.51,10.62l-.66.36Zm402.11-5.82l-.67-.34c1.82-3.54,3.58-7.18,5.21-10.8l.68.31c-1.64,3.64-3.4,7.29-5.23,10.84Zm-412.59-15.76c-1.55-3.67-3.01-7.42-4.36-11.17l.71-.25c1.34,3.73,2.81,7.47,4.35,11.13l-.69.29Zm422.46-6.19l-.7-.27c1.44-3.72,2.8-7.52,4.04-11.3l.71.23c-1.24,3.79-2.6,7.61-4.05,11.34ZM9.6,293.6c-1.15-3.81-2.21-7.71-3.16-11.59l.73-.18c.95,3.87,2.01,7.75,3.15,11.55l-.72.22Zm438.08-6.47l-.72-.2c1.03-3.83,1.98-7.75,2.81-11.64l.73.16c-.83,3.91-1.78,7.84-2.82,11.68ZM3.9,270.27c-.74-3.92-1.38-7.91-1.92-11.86l.74-.1c.53,3.94,1.17,7.92,1.91,11.82l-.74.14Zm448.79-6.63l-.74-.12c.62-3.92,1.15-7.91,1.56-11.87l.75.08c-.42,3.97-.94,7.98-1.57,11.91ZM.7,246.47c-.32-3.96-.54-8-.66-12l.75-.02c.12,3.98.34,8.01.66,11.96l-.75.06Zm454.49-6.71l-.75-.04c.21-3.96.31-7.99.31-11.97h.75c0,3.99-.1,8.03-.31,12.01Zm-.44-13.4c-.02-3.97-.15-8-.38-11.97l.75-.04c.23,3.98.36,8.02.38,12.01h-.75ZM.75,222.47l-.75-.02c.09-3.98.29-8.02.59-12l.75.06c-.3,3.97-.49,7.99-.58,11.96Zm452.61-20.02c-.44-3.95-.99-7.94-1.63-11.86l.74-.12c.65,3.93,1.2,7.94,1.64,11.9l-.75.08ZM2.54,198.6l-.74-.1c.51-3.97,1.13-7.96,1.84-11.87l.74.13c-.71,3.9-1.33,7.88-1.84,11.83Zm446.93-19.77c-.85-3.88-1.82-7.79-2.88-11.62l.72-.2c1.06,3.84,2.03,7.77,2.89,11.66l-.73.16Zm-442.63-3.78l-.73-.17c.92-3.88,1.96-7.79,3.09-11.61l.72.21c-1.12,3.81-2.16,7.7-3.08,11.57Zm436.26-19.29c-1.26-3.77-2.64-7.56-4.1-11.25l.7-.28c1.46,3.7,2.84,7.5,4.11,11.29l-.71.24Zm-429.49-3.67l-.71-.25c1.34-3.78,2.79-7.56,4.31-11.24l.69.29c-1.52,3.67-2.97,7.44-4.3,11.2Zm420.72-18.58c-1.64-3.6-3.41-7.21-5.25-10.74l.66-.35c1.85,3.54,3.62,7.16,5.27,10.78l-.68.31Zm-411.54-3.58l-.68-.32c1.72-3.6,3.57-7.21,5.48-10.71l.66.36c-1.9,3.49-3.74,7.09-5.46,10.68Zm400.47-17.61c-2.02-3.42-4.16-6.83-6.36-10.13l.62-.42c2.21,3.32,4.35,6.74,6.38,10.17l-.64.38Zm-389-3.44l-.64-.39c2.09-3.4,4.3-6.78,6.57-10.07l.62.43c-2.26,3.27-4.47,6.65-6.55,10.04Zm375.75-16.48c-2.37-3.18-4.85-6.35-7.39-9.41l.58-.48c2.55,3.08,5.04,6.25,7.42,9.45l-.6.45Zm-362.13-3.23l-.59-.46c2.44-3.16,4.99-6.29,7.59-9.32l.57.49c-2.59,3.02-5.14,6.14-7.57,9.29Zm346.85-15.2c-2.69-2.92-5.5-5.81-8.34-8.59l.52-.54c2.85,2.79,5.67,5.69,8.37,8.62l-.55.51Zm-331.25-2.97l-.54-.52c2.76-2.89,5.63-5.74,8.52-8.47l.51.55c-2.89,2.72-5.75,5.56-8.49,8.44Zm314.12-13.77c-2.99-2.63-6.09-5.21-9.2-7.67l.46-.59c3.12,2.47,6.23,5.06,9.23,7.7l-.5.56Zm-296.7-2.66l-.48-.57c3.04-2.58,6.19-5.11,9.36-7.53l.46.6c-3.16,2.41-6.3,4.93-9.33,7.5Zm277.91-12.2c-3.25-2.3-6.6-4.54-9.96-6.67l.4-.63c3.38,2.13,6.74,4.38,9.99,6.69l-.43.61Zm-258.88-2.31l-.42-.62c3.29-2.24,6.68-4.43,10.09-6.5l.39.64c-3.39,2.06-6.78,4.24-10.06,6.48Zm238.62-10.5c-3.47-1.95-7.04-3.83-10.61-5.58l.33-.67c3.58,1.76,7.16,3.65,10.65,5.6l-.37.65Zm-218.18-1.92l-.36-.66c3.51-1.89,7.11-3.7,10.71-5.4l.32.68c-3.59,1.69-7.18,3.5-10.68,5.38Zm196.67-8.68c-3.66-1.57-7.41-3.06-11.15-4.43l.26-.7c3.75,1.38,7.51,2.87,11.19,4.44l-.29.69Zm-175.05-1.51l-.28-.69c3.69-1.5,7.47-2.93,11.24-4.24l.25.71c-3.76,1.31-7.53,2.73-11.2,4.23Zm152.53-6.75c-3.79-1.17-7.68-2.25-11.54-3.21l.18-.73c3.87.97,7.77,2.05,11.57,3.22l-.22.72Zm-129.91-1.1l-.21-.72c3.83-1.11,7.75-2.12,11.63-3.02l.17.73c-3.87.9-7.77,1.91-11.59,3.02Zm106.68-4.71c-3.9-.76-7.87-1.42-11.81-1.97l.1-.74c3.95.55,7.94,1.22,11.85,1.98l-.14.74Zm-83.36-.71l-.13-.74c3.92-.69,7.92-1.29,11.88-1.78l.09.74c-3.95.48-7.93,1.08-11.84,1.77Zm59.65-2.62c-3.96-.34-7.98-.59-11.95-.72l.03-.75c3.98.14,8.02.38,11.99.72l-.06.75Zm-35.89-.3l-.05-.75c3.97-.28,8.01-.45,12-.52v.75c-3.97.07-7.99.25-11.95.52Z"/>
  </g>
</svg>