<?xml version="1.0" encoding="UTF-8"?>
<svg id="_레이어_2" data-name="레이어 2" xmlns="http://www.w3.org/2000/svg" viewBox="0 0 493.1 433.36">
  <g id="_레이어_1-2" data-name="레이어 1">
    <g>
      <path d="m0,14.79c71.95,19.47,147.11,51.07,190.73,114.54,17.03,25.14,27.44,54.57,30.2,84.81,3.12,30.21-1.46,60.57.85,90.77,1.91,30.23,15.51,59.48,38.37,79.53,34.45,30.34,81.28,41,125.81,45.97,30.11,3.18,60.47,3.31,90.71,2.08-30.23,1.35-60.6,1.35-90.75-1.72-44.63-4.9-91.57-15.55-126.14-45.91-23-20.11-36.72-49.52-38.68-79.89-2.38-30.24,2.21-60.57-.85-90.76-2.71-30.14-13.04-59.48-29.98-84.56C146.76,66.22,71.77,34.62,0,14.79h0Z"/>
      <path d="m16.44,0c71.95,19.47,147.11,51.07,190.73,114.54,17.03,25.14,27.44,54.57,30.2,84.81,3.12,30.21-1.46,60.57.85,90.77,1.91,30.23,15.51,59.48,38.37,79.53,34.45,30.34,81.28,41,125.81,45.97,30.11,3.18,60.47,3.31,90.71,2.08-30.23,1.35-60.6,1.35-90.75-1.72-44.63-4.9-91.57-15.55-126.14-45.91-23-20.11-36.72-49.52-38.68-79.89-2.38-30.24,2.2-60.57-.85-90.76-2.71-30.14-13.04-59.48-29.98-84.56C163.2,51.43,88.21,19.82,16.44,0h0Z"/>
    </g>
  </g>
</svg>