<?xml version="1.0" encoding="UTF-8"?>
<svg id="_레이어_2" data-name="레이어 2" xmlns="http://www.w3.org/2000/svg" viewBox="0 0 45.24 45.37">
  <defs>
    <style>
      .cls-1 {
        fill: none;
        stroke: #000;
        stroke-miterlimit: 10;
        stroke-width: .75px;
      }
    </style>
  </defs>
  <g id="_레이어_1-2" data-name="레이어 1">
    <polygon class="cls-1" points="40.07 34.59 30.02 30.33 33.76 40.59 26.31 32.61 25.56 43.5 21.99 33.18 16.88 42.82 17.82 31.95 9.22 38.68 14.51 29.13 3.92 31.77 12.63 25.2 1.88 23.31 12.51 20.85 3.46 14.75 14.18 16.82 8.39 7.57 17.33 13.83 15.8 3.02 21.43 12.37 24.43 1.88 25.77 12.71 32.78 4.34 29.6 14.78 39.41 9.99 32.25 18.23 43.16 17.84 33.27 22.47 43.4 26.55 32.48 26.75 40.07 34.59"/>
  </g>
</svg>