<?xml version="1.0" encoding="UTF-8"?>
<svg id="_레이어_2" data-name="레이어 2" xmlns="http://www.w3.org/2000/svg" viewBox="0 0 222.45 172.18">
  <defs>
    <style>
      .cls-1 {
        fill: none;
        stroke: #000;
        stroke-miterlimit: 10;
        stroke-width: .75px;
      }
    </style>
  </defs>
  <g id="_레이어_1-2" data-name="레이어 1">
    <g>
      <g>
        <path class="cls-1" d="m71.74,159.79c-24.63,3.98-44.32-.24-52.62-13.46-8.33-13.28-3.48-32.94,10.96-53.48,2.22,28.49,18.37,53.07,41.65,66.94Z"/>
        <path class="cls-1" d="m200.96,78.9c-2.37-28.57-18.75-53.15-42.25-66.88,24.93-4.16,44.88.02,53.25,13.36,8.33,13.29,3.48,32.98-11,53.52Z"/>
        <path class="cls-1" d="m158.71,12.02C146.03,4.62,131.28.38,115.54.38c-47.34,0-85.72,38.38-85.72,85.72,0,2.28.09,4.53.26,6.76,2.22,28.49,18.37,53.07,41.65,66.94,21.64-3.5,47.11-13.33,72.01-28.95,24.77-15.53,44.62-34.06,57.21-51.93-2.37-28.57-18.75-53.15-42.25-66.88Z"/>
        <path class="cls-1" d="m201.26,86.09c0,47.34-38.38,85.72-85.72,85.72-16.01,0-30.98-4.39-43.8-12.02,21.64-3.5,47.11-13.33,72.01-28.95,24.77-15.53,44.62-34.06,57.21-51.93.2,2.37.3,4.77.3,7.19Z"/>
      </g>
      <polygon points="216.02 38.23 218.29 42.39 222.45 44.66 218.29 46.93 216.02 51.09 213.75 46.93 209.59 44.66 213.75 42.39 216.02 38.23"/>
      <polygon class="cls-1" points="7.92 72.29 10.44 76.9 15.06 79.42 10.44 81.95 7.92 86.56 5.4 81.95 .78 79.42 5.4 76.9 7.92 72.29"/>
    </g>
  </g>
</svg>