<?xml version="1.0" encoding="UTF-8"?>
<svg id="_레이어_2" data-name="레이어 2" xmlns="http://www.w3.org/2000/svg" viewBox="0 0 278.47 278.47">
  <defs>
    <style>
      .cls-1 {
        fill: none;
        stroke: #000;
        stroke-miterlimit: 10;
        stroke-width: .75px;
      }
    </style>
  </defs>
  <g id="_레이어_1-2" data-name="레이어 1">
    <g>
      <line class="cls-1" x1="142.55" x2="142.55" y2="26.52"/>
      <line class="cls-1" x1="120.73" y1="1.2" x2="124.88" y2="27.39"/>
      <line class="cls-1" x1="99.36" y1="5.79" x2="107.56" y2="31.01"/>
      <line class="cls-1" x1="78.98" y1="13.67" x2="91.02" y2="37.3"/>
      <line class="cls-1" x1="60.08" y1="24.64" x2="75.66" y2="46.1"/>
      <line class="cls-1" x1="43.12" y1="38.44" x2="61.88" y2="57.19"/>
      <line class="cls-1" x1="28.54" y1="54.71" x2="50" y2="70.3"/>
      <line class="cls-1" x1="16.68" y1="73.07" x2="40.31" y2="85.11"/>
      <line class="cls-1" x1="7.84" y1="93.06" x2="33.06" y2="101.25"/>
      <line class="cls-1" x1="2.23" y1="114.18" x2="28.43" y2="118.33"/>
      <line class="cls-1" x1="0" y1="135.92" x2="26.52" y2="135.92"/>
      <line class="cls-1" x1="1.2" y1="157.74" x2="27.39" y2="153.59"/>
      <line class="cls-1" x1="5.79" y1="179.11" x2="31.01" y2="170.91"/>
      <line class="cls-1" x1="13.67" y1="199.49" x2="37.3" y2="187.45"/>
      <line class="cls-1" x1="24.64" y1="218.39" x2="46.1" y2="202.8"/>
      <line class="cls-1" x1="38.44" y1="235.34" x2="57.19" y2="216.59"/>
      <line class="cls-1" x1="54.71" y1="249.93" x2="70.3" y2="228.47"/>
      <line class="cls-1" x1="73.07" y1="261.79" x2="85.11" y2="238.16"/>
      <line class="cls-1" x1="93.06" y1="270.63" x2="101.25" y2="245.41"/>
      <line class="cls-1" x1="114.18" y1="276.23" x2="118.33" y2="250.04"/>
      <line class="cls-1" x1="135.92" y1="278.47" x2="135.92" y2="251.95"/>
      <line class="cls-1" x1="157.74" y1="277.27" x2="153.59" y2="251.08"/>
      <line class="cls-1" x1="179.11" y1="272.68" x2="170.91" y2="247.45"/>
      <line class="cls-1" x1="199.49" y1="264.8" x2="187.45" y2="241.17"/>
      <line class="cls-1" x1="218.39" y1="253.82" x2="202.8" y2="232.37"/>
      <line class="cls-1" x1="235.34" y1="240.03" x2="216.59" y2="221.28"/>
      <line class="cls-1" x1="249.93" y1="223.76" x2="228.47" y2="208.17"/>
      <line class="cls-1" x1="261.79" y1="205.4" x2="238.16" y2="193.36"/>
      <line class="cls-1" x1="270.63" y1="185.41" x2="245.41" y2="177.22"/>
      <line class="cls-1" x1="276.23" y1="164.29" x2="250.04" y2="160.14"/>
      <line class="cls-1" x1="278.47" y1="142.55" x2="251.95" y2="142.55"/>
      <line class="cls-1" x1="277.27" y1="120.73" x2="251.08" y2="124.88"/>
      <line class="cls-1" x1="272.68" y1="99.36" x2="247.45" y2="107.56"/>
      <line class="cls-1" x1="264.8" y1="78.98" x2="241.17" y2="91.02"/>
      <line class="cls-1" x1="253.82" y1="60.08" x2="232.37" y2="75.66"/>
      <line class="cls-1" x1="240.03" y1="43.12" x2="221.28" y2="61.88"/>
      <line class="cls-1" x1="223.76" y1="28.54" x2="208.17" y2="50"/>
      <line class="cls-1" x1="205.4" y1="16.68" x2="193.36" y2="40.31"/>
      <line class="cls-1" x1="185.41" y1="7.84" x2="177.22" y2="33.06"/>
      <line class="cls-1" x1="164.29" y1="2.23" x2="160.14" y2="28.43"/>
    </g>
  </g>
</svg>