<?xml version="1.0" encoding="UTF-8"?>
<svg id="_레이어_2" data-name="레이어 2" xmlns="http://www.w3.org/2000/svg" viewBox="0 0 30.42 44.13">
  <g id="_레이어_1-2" data-name="레이어 1">
    <path d="m30.42,22.54c-7.58.21-12.41,7.63-14.04,14.33-.6,2.37-.91,4.81-.98,7.25h-.18s-.05,0-.05,0h-.17s0-.18,0-.18C14.62,35.15,10.13,23.44,0,22.91c0,0,0-.74,0-.74C10.56,21.53,14.91,9.13,15.02,0c0,0,.39,0,.39,0,0,2.48.24,4.96.79,7.38,1.48,6.99,6.33,14.91,14.23,15.15h0Zm0,0C19.63,21.94,15.12,9.31,15.02,0c0,0,.39,0,.39,0C15.53,9.46,10.99,22.3,0,22.91c0,0,0-.74,0-.74,10.55.55,15.19,12.66,15.37,21.77,0,0-.18-.18-.18-.18-.23-7.8,5.01-21.01,15.23-21.23h0Z"/>
  </g>
</svg>