<?xml version="1.0" encoding="UTF-8"?>
<svg id="_레이어_2" data-name="레이어 2" xmlns="http://www.w3.org/2000/svg" viewBox="0 0 14.46 142.46">
  <g id="_레이어_1-2" data-name="레이어 1">
    <g>
      <path d="m7.23,0c.31,36.52.31,77.48,0,114-.31-36.52-.31-77.48,0-114h0Z"/>
      <path d="m14.46,132.1c-4.97.3-7.05,6.07-7.04,10.35-.1,0-.27,0-.37,0-.2-4.15-2.27-9.73-7.05-9.99,0,0,0-.74,0-.74,1.1-.02,2.17-.42,3.07-1.09,2.76-2.15,3.84-5.83,3.96-9.25,0,0,.39,0,.39,0-.11,4.38,1.93,10.39,7.04,10.71h0Zm0,0c-5.14-.27-7.32-6.27-7.42-10.71,0,0,.39,0,.39,0,.01,1.2-.09,2.4-.34,3.58-.69,3.48-3.14,7.4-7.08,7.5,0,0,0-.74,0-.74,5.12.26,7.37,6.12,7.4,10.54,0,0-.18-.18-.18-.18h.02s-.18.18-.18.18c.24-4.28,2.47-9.94,7.4-10.17h0Z"/>
    </g>
  </g>
</svg>