<?xml version="1.0" encoding="UTF-8"?>
<svg id="_레이어_2" data-name="레이어 2" xmlns="http://www.w3.org/2000/svg" viewBox="0 0 1432.84 46.13">
  <defs>
    <style>
      .cls-1 {
        fill: #333;
      }
    </style>
  </defs>
  <g id="_레이어_1-2" data-name="레이어 1">
    <g>
      <g>
        <path class="cls-1" d="m21.8,6.12c1.33,1.39,2.36,2.96,3.08,4.72.77,1.89,1.16,3.83,1.16,5.8s-.39,3.93-1.16,5.8c-.75,1.81-1.77,3.4-3.08,4.76-.67.69-1.39,1.31-2.16,1.86-.77.55-1.6,1.01-2.48,1.38-1.81.8-3.71,1.2-5.68,1.2H0V1.68h11.48c1.97,0,3.87.4,5.68,1.2,1.76.75,3.31,1.83,4.64,3.24Zm-10.32,24.04c1.09,0,2.13-.36,3.12-1.08.99-.72,1.85-1.7,2.6-2.94.75-1.24,1.33-2.67,1.74-4.3.41-1.63.62-3.36.62-5.2,0-1.73-.21-3.41-.62-5.04-.41-1.63-.99-3.07-1.74-4.32-.75-1.25-1.61-2.26-2.6-3.02-.99-.76-2.03-1.14-3.12-1.14h-4.84v27.09h1.28c.4,0,.78,0,1.14-.02.36-.01.71-.02,1.06-.02h1.36Z"/>
        <path class="cls-1" d="m37.57,30.77c-.99-.43-1.91-.99-2.76-1.7-.85-.71-1.59-1.51-2.2-2.4-.61-.89-1.09-1.85-1.42-2.86s-.5-2.07-.5-3.16c0-1.39.29-2.73.86-4.04.57-1.31,1.36-2.47,2.36-3.5,1-1.03,2.2-1.85,3.6-2.46,1.4-.61,2.91-.92,4.54-.92.61,0,1.31.05,2.1.16.79.11,1.59.29,2.42.54.83.25,1.64.59,2.44,1.02.8.43,1.52.98,2.16,1.66s1.15,1.51,1.54,2.48c.39.97.58,2.13.58,3.46v2.24l-16.16.08c.19,2.83.75,4.99,1.68,6.48.93,1.49,2.01,2.24,3.24,2.24.51,0,1.05-.03,1.64-.1.59-.07,1.19-.2,1.82-.4.63-.2,1.26-.49,1.9-.88.64-.39,1.27-.9,1.88-1.54l1,1.04c-1.71,1.65-3.67,2.69-5.88,3.12-2.21.43-4.49.24-6.84-.56Zm4.84-19.6c-1.55,0-2.75.71-3.6,2.12-.85,1.41-1.41,3.44-1.68,6.08l10.52.04c0-1.65-.18-3.01-.54-4.08-.36-1.07-.8-1.91-1.32-2.52-.52-.61-1.09-1.04-1.7-1.28-.61-.24-1.17-.36-1.68-.36Z"/>
        <path class="cls-1" d="m72.29,21.76c1.15,1.09,1.72,2.37,1.72,3.84,0,1.31-.35,2.39-1.04,3.24-.69.85-1.58,1.51-2.66,1.96-1.08.45-2.29.72-3.64.8-1.35.08-2.67,0-3.96-.24-1.29-.24-2.49-.62-3.6-1.14-1.11-.52-1.97-1.18-2.58-1.98.19-.13.31-.24.36-.32.05-.08.11-.15.16-.2.05-.05.11-.12.16-.2.05-.08.16-.19.32-.32.27.32.68.65,1.24.98s1.17.64,1.82.92c.65.28,1.33.51,2.02.7.69.19,1.29.28,1.8.28.59,0,1.21-.17,1.86-.52.65-.35,1.19-.79,1.6-1.34.41-.55.65-1.15.7-1.8.05-.65-.25-1.3-.92-1.94-.48-.48-1.09-.91-1.82-1.28-.73-.37-1.52-.74-2.36-1.1-.84-.36-1.68-.75-2.52-1.16-.84-.41-1.59-.87-2.24-1.38-.65-.51-1.19-1.09-1.62-1.76-.43-.67-.64-1.44-.64-2.32,0-1.07.25-1.97.76-2.72.51-.75,1.16-1.36,1.96-1.84s1.69-.83,2.66-1.04c.97-.21,1.94-.32,2.9-.32.56,0,1.17.02,1.82.06.65.04,1.3.12,1.94.24s1.25.3,1.84.54c.59.24,1.12.56,1.6.96.77.72,1.2,1.37,1.28,1.96.05.37.09.82.12,1.34.03.52.04,1.09.04,1.7h-2.76c-.13-.69-.32-1.37-.56-2.02-.24-.65-.56-1.23-.96-1.72-.4-.49-.89-.89-1.46-1.2-.57-.31-1.26-.46-2.06-.46-.43,0-.85.09-1.28.28-.43.19-.8.45-1.12.8-.32.35-.57.73-.76,1.16-.19.43-.28.89-.28,1.4,0,.72.19,1.33.56,1.84.37.51.87.95,1.48,1.34.61.39,1.29.73,2.02,1.02.73.29,1.48.59,2.24.88.76.29,1.47.61,2.14.94.67.33,1.24.71,1.72,1.14Z"/>
        <path class="cls-1" d="m81.98,5.88c-.85,0-1.58-.23-2.18-.68-.6-.45-.9-1.01-.9-1.68s.3-1.23.9-1.7c.6-.47,1.33-.7,2.18-.7s1.63.23,2.24.7c.61.47.92,1.03.92,1.7s-.31,1.23-.92,1.68c-.61.45-1.36.68-2.24.68Zm2.72,3.92v21.8h-5.44V9.8h5.44Z"/>
        <path class="cls-1" d="m90.5,18c0-1.23.29-2.32.86-3.28.57-.96,1.31-1.79,2.22-2.48.91-.69,1.92-1.24,3.04-1.64,1.12-.4,2.25-.67,3.4-.8h10.88v1.6h-3.32c.35.51.72,1.01,1.12,1.5.4.49.76.99,1.08,1.5.32.51.59,1.05.8,1.64.21.59.32,1.24.32,1.96,0,1.25-.31,2.39-.94,3.4-.63,1.01-1.43,1.87-2.4,2.56-.97.69-2.06,1.23-3.26,1.62-1.2.39-2.39.59-3.56.62-.72,0-1.31.01-1.78.04-.47.03-.85.05-1.16.08-.31.03-.55.07-.74.14-.19.07-.36.14-.52.22-.27.16-.41.37-.44.64-.03.27-.04.51-.04.72,0,.51.16.91.48,1.22.32.31.71.53,1.18.68.47.15.97.23,1.52.26.55.03,1.05.04,1.5.04.72,0,1.55.06,2.48.18.93.12,1.87.31,2.8.56.93.25,1.84.58,2.72.98.88.4,1.66.89,2.34,1.46.68.57,1.23,1.23,1.64,1.98.41.75.62,1.6.62,2.56,0,1.41-.43,2.64-1.28,3.68-.85,1.04-1.93,1.89-3.22,2.54-1.29.65-2.67,1.14-4.12,1.46-1.45.32-2.78.48-3.98.48-.85,0-1.75-.07-2.7-.2-.95-.13-1.89-.33-2.84-.6-.95-.27-1.85-.62-2.7-1.06-.85-.44-1.61-.96-2.28-1.56-.67-.6-1.19-1.29-1.58-2.08-.39-.79-.58-1.67-.58-2.66,0-.8.16-1.53.48-2.18.32-.65.75-1.27,1.28-1.86.53-.59,1.14-1.16,1.82-1.72.68-.56,1.38-1.13,2.1-1.72-.96-.96-1.44-1.77-1.44-2.44,0-.45.05-.81.14-1.08.09-.27.24-.52.44-.76.2-.24.44-.49.72-.74.28-.25.61-.58.98-.98-.56-.37-1.08-.79-1.56-1.24s-.91-.95-1.3-1.5c-.39-.55-.69-1.13-.9-1.74-.21-.61-.32-1.28-.32-2Zm17.08,20c0-1.44-.34-2.63-1.02-3.56-.68-.93-1.53-1.62-2.54-2.06-1.01-.44-2.11-.65-3.3-.64-1.19.01-2.29.26-3.32.74-1.03.48-1.88,1.19-2.56,2.12-.68.93-1.02,2.07-1.02,3.4,0,.85.17,1.69.5,2.52.33.83.81,1.55,1.42,2.18.61.63,1.35,1.13,2.2,1.52.85.39,1.79.58,2.8.58,1.12,0,2.11-.19,2.96-.58.85-.39,1.57-.89,2.14-1.52.57-.63,1.01-1.35,1.3-2.18.29-.83.44-1.67.44-2.52Zm-6.84-26.69c-.64,0-1.23.18-1.78.54-.55.36-1.03.85-1.44,1.46-.41.61-.74,1.32-.98,2.12-.24.8-.36,1.65-.36,2.56,0,.85.12,1.69.36,2.5.24.81.57,1.53.98,2.14.41.61.89,1.11,1.44,1.48.55.37,1.14.56,1.78.56s1.19-.19,1.72-.56c.53-.37,1.01-.87,1.42-1.48.41-.61.74-1.33.98-2.14.24-.81.36-1.65.36-2.5,0-.91-.12-1.76-.36-2.56-.24-.8-.57-1.51-.98-2.12-.41-.61-.89-1.1-1.42-1.46-.53-.36-1.11-.54-1.72-.54Z"/>
        <path class="cls-1" d="m126.7,9.52c2.83,0,4.99.77,6.48,2.32,1.49,1.55,2.31,3.79,2.44,6.72v12.92h-5.8V15.48c0-1.41-.36-2.51-1.07-3.28-.71-.77-1.59-1.16-2.64-1.16s-1.96.39-2.65,1.16c-.7.77-1.05,1.87-1.05,3.28v16.12h-5.44V9.8h5.44l.04.48c.56-.27,1.25-.46,2.06-.58.81-.12,1.54-.18,2.18-.18Z"/>
        <path class="cls-1" d="m165.59,1.84c3.23,0,5.71.73,7.44,2.18,1.73,1.45,2.6,3.75,2.6,6.9,0,2.03-.39,3.71-1.18,5.04-.79,1.33-1.84,2.38-3.16,3.14s-2.85,1.29-4.6,1.58-3.57.4-5.46.32v10.88h-6.64V1.92l11-.08Zm-4.36,17.6c.88,0,1.84-.11,2.88-.34,1.04-.23,2.01-.65,2.92-1.26.91-.61,1.67-1.47,2.3-2.58.63-1.11.94-2.55.94-4.34,0-2.67-.75-4.64-2.26-5.92s-3.77-1.84-6.78-1.68v16.12Z"/>
        <path class="cls-1" d="m187.96,9.32c1.49,0,2.89.3,4.2.9,1.31.6,2.45,1.41,3.42,2.42.97,1.01,1.74,2.2,2.3,3.56s.84,2.79.84,4.28-.28,2.83-.84,4.16c-.56,1.33-1.32,2.53-2.28,3.58-.96,1.05-2.1,1.89-3.42,2.52-1.32.63-2.73.94-4.22.94-1.41,0-2.77-.3-4.08-.9-1.31-.6-2.46-1.41-3.46-2.44-1-1.03-1.79-2.22-2.38-3.58-.59-1.36-.88-2.79-.88-4.28s.28-2.83.84-4.18c.56-1.35,1.33-2.54,2.3-3.58.97-1.04,2.11-1.87,3.42-2.48,1.31-.61,2.72-.92,4.24-.92Zm0,20.88c1.63,0,2.89-.85,3.8-2.54.91-1.69,1.36-4.09,1.36-7.18,0-1.36-.12-2.63-.36-3.8-.24-1.17-.58-2.2-1.02-3.08-.44-.88-.98-1.57-1.62-2.06-.64-.49-1.36-.74-2.16-.74s-1.56.24-2.2.72-1.18,1.15-1.62,2.02c-.44.87-.78,1.89-1.02,3.06-.24,1.17-.36,2.47-.36,3.88s.12,2.63.36,3.82c.24,1.19.58,2.21,1.02,3.08.44.87.98,1.55,1.62,2.06s1.37.76,2.2.76Z"/>
        <path class="cls-1" d="m213.72,9.76c.72,0,1.4.13,2.04.38.64.25,1.21.55,1.72.9.51.35.92.69,1.24,1.02.32.33.55.57.68.7l-.84.92c-.48-.37-.97-.71-1.48-1-.43-.27-.89-.51-1.4-.72-.51-.21-.97-.32-1.4-.32-.4,0-.85.12-1.34.36-.49.24-.98.58-1.46,1.02-.48.44-.93.97-1.34,1.6-.41.63-.73,1.33-.94,2.1v14.96h-5.44V9.84h5.44v1.64c.61-.48,1.3-.89,2.06-1.22.76-.33,1.58-.5,2.46-.5Zm5.76,3h-.04c.05-.08.08-.13.08-.14,0-.01-.01.03-.04.14Z"/>
        <path class="cls-1" d="m229.17,25.41c.03.8.12,1.51.28,2.12.16.56.4,1.05.72,1.48.32.43.8.64,1.44.64.27,0,.67-.13,1.2-.38.53-.25,1.15-.55,1.84-.9l.4.6c.11.16.23.35.36.56-.72.37-1.45.71-2.2,1-.61.27-1.31.5-2.1.7-.79.2-1.54.3-2.26.3-.67,0-1.31-.1-1.94-.3-.63-.2-1.17-.55-1.64-1.06-.47-.51-.84-1.19-1.12-2.04-.28-.85-.42-1.93-.42-3.24v-13.4l-2.44-.04v-1.64h2.44V3.96h5.44v5.84h4.6v1.64l-4.6.04v13.92Z"/>
        <path class="cls-1" d="m240.05,12.28h-3.28v-1.56h3.28v-3.64c0-1.28.15-2.35.44-3.2.29-.85.68-1.53,1.15-2.04.48-.51,1.02-.86,1.63-1.06s1.26-.3,1.95-.3,1.44.09,2.16.26c.72.17,1.37.37,1.94.6.57.23,1.07.45,1.48.68.41.23.71.39.9.5l-.68,1.28c-.75-.45-1.34-.76-1.78-.92-.44-.16-.82-.24-1.14-.24-.61,0-1.09.25-1.44.76-.35.51-.61,1.15-.78,1.92-.17.77-.28,1.64-.32,2.6-.04.96-.06,1.89-.06,2.8h5.12v1.56h-5.12v19.2h-5.44V12.28Z"/>
        <path class="cls-1" d="m264.97,9.32c1.49,0,2.89.3,4.2.9,1.31.6,2.45,1.41,3.42,2.42.97,1.01,1.74,2.2,2.3,3.56s.84,2.79.84,4.28-.28,2.83-.84,4.16c-.56,1.33-1.32,2.53-2.28,3.58-.96,1.05-2.1,1.89-3.42,2.52-1.32.63-2.73.94-4.22.94-1.41,0-2.77-.3-4.08-.9-1.31-.6-2.46-1.41-3.46-2.44-1-1.03-1.79-2.22-2.38-3.58-.59-1.36-.88-2.79-.88-4.28s.28-2.83.84-4.18c.56-1.35,1.33-2.54,2.3-3.58.97-1.04,2.11-1.87,3.42-2.48,1.31-.61,2.72-.92,4.24-.92Zm0,20.88c1.63,0,2.89-.85,3.8-2.54.91-1.69,1.36-4.09,1.36-7.18,0-1.36-.12-2.63-.36-3.8-.24-1.17-.58-2.2-1.02-3.08-.44-.88-.98-1.57-1.62-2.06-.64-.49-1.36-.74-2.16-.74s-1.56.24-2.2.72-1.18,1.15-1.62,2.02c-.44.87-.78,1.89-1.02,3.06-.24,1.17-.36,2.47-.36,3.88s.12,2.63.36,3.82c.24,1.19.58,2.21,1.02,3.08.44.87.98,1.55,1.62,2.06s1.37.76,2.2.76Z"/>
        <path class="cls-1" d="m278.78,1.44V0h7.96v31.61h-5.44V1.44h-2.52Z"/>
        <path class="cls-1" d="m296.54,5.88c-.85,0-1.58-.23-2.18-.68-.6-.45-.9-1.01-.9-1.68s.3-1.23.9-1.7c.6-.47,1.33-.7,2.18-.7s1.63.23,2.24.7c.61.47.92,1.03.92,1.7s-.31,1.23-.92,1.68c-.61.45-1.36.68-2.24.68Zm2.72,3.92v21.8h-5.44V9.8h5.44Z"/>
        <path class="cls-1" d="m315.22,9.32c1.49,0,2.89.3,4.2.9,1.31.6,2.45,1.41,3.42,2.42.97,1.01,1.74,2.2,2.3,3.56s.84,2.79.84,4.28-.28,2.83-.84,4.16c-.56,1.33-1.32,2.53-2.28,3.58-.96,1.05-2.1,1.89-3.42,2.52-1.32.63-2.73.94-4.22.94-1.41,0-2.77-.3-4.08-.9-1.31-.6-2.46-1.41-3.46-2.44-1-1.03-1.79-2.22-2.38-3.58-.59-1.36-.88-2.79-.88-4.28s.28-2.83.84-4.18c.56-1.35,1.33-2.54,2.3-3.58.97-1.04,2.11-1.87,3.42-2.48,1.31-.61,2.72-.92,4.24-.92Zm0,20.88c1.63,0,2.89-.85,3.8-2.54.91-1.69,1.36-4.09,1.36-7.18,0-1.36-.12-2.63-.36-3.8-.24-1.17-.58-2.2-1.02-3.08-.44-.88-.98-1.57-1.62-2.06-.64-.49-1.36-.74-2.16-.74s-1.56.24-2.2.72-1.18,1.15-1.62,2.02c-.44.87-.78,1.89-1.02,3.06-.24,1.17-.36,2.47-.36,3.88s.12,2.63.36,3.82c.24,1.19.58,2.21,1.02,3.08.44.87.98,1.55,1.62,2.06s1.37.76,2.2.76Z"/>
      </g>
      <g>
        <path class="cls-1" d="m1180.31,1.56h1.68l-10.28,30.09h-2.52l-8.12-18.52-5.16,18.52h-2.52l-11.72-26.61c-.27-.51-.6-.94-1-1.3-.4-.36-.92-.57-1.56-.62v-1.52c1.36-.11,2.65-.07,3.88.12.53.05,1.07.16,1.6.32.53.16,1.04.37,1.52.62.48.25.93.55,1.34.9s.77.77,1.06,1.28l7.96,18.48,3.56-12.52-2.52-5.76c-.27-.51-.61-.94-1.02-1.3-.41-.36-.94-.57-1.58-.62v-1.52c.8-.08,1.65-.09,2.54-.04.89.05,1.77.19,2.64.42.87.23,1.67.57,2.42,1.02.75.45,1.36,1.07,1.84,1.84l8.36,18.52,7.6-21.8Z"/>
        <path class="cls-1" d="m1189.99,30.77c-.99-.43-1.91-.99-2.76-1.7-.85-.71-1.59-1.51-2.2-2.4-.61-.89-1.09-1.85-1.42-2.86-.33-1.01-.5-2.07-.5-3.16,0-1.39.29-2.73.86-4.04.57-1.31,1.36-2.47,2.36-3.5,1-1.03,2.2-1.85,3.6-2.46,1.4-.61,2.91-.92,4.54-.92.61,0,1.31.05,2.1.16.79.11,1.59.29,2.42.54.83.25,1.64.59,2.44,1.02.8.43,1.52.98,2.16,1.66.64.68,1.15,1.51,1.54,2.48.39.97.58,2.13.58,3.46v2.24l-16.16.08c.19,2.83.75,4.99,1.68,6.48.93,1.49,2.01,2.24,3.24,2.24.51,0,1.05-.03,1.64-.1.59-.07,1.19-.2,1.82-.4.63-.2,1.26-.49,1.9-.88.64-.39,1.27-.9,1.88-1.54l1,1.04c-1.71,1.65-3.67,2.69-5.88,3.12-2.21.43-4.5.24-6.84-.56Zm4.84-19.6c-1.55,0-2.75.71-3.6,2.12-.85,1.41-1.41,3.44-1.68,6.08l10.52.04c0-1.65-.18-3.01-.54-4.08-.36-1.07-.8-1.91-1.32-2.52-.52-.61-1.09-1.04-1.7-1.28-.61-.24-1.17-.36-1.68-.36Z"/>
        <path class="cls-1" d="m1210.6,2.32h5.44v9c.56-.4,1.26-.77,2.11-1.1.84-.33,1.77-.5,2.79-.5,1.58,0,2.97.32,4.17.96,1.2.64,2.22,1.48,3.05,2.52.83,1.04,1.45,2.25,1.87,3.64.41,1.39.62,2.81.62,4.28,0,1.57-.25,2.99-.74,4.26-.5,1.27-1.2,2.34-2.13,3.22-.92.88-2.05,1.56-3.37,2.04s-2.83.72-4.51.72c-.75,0-1.46-.07-2.13-.22-.67-.15-1.24-.39-1.72-.74-.13.19-.27.37-.42.56-.15.19-.28.41-.42.68h-4.61V2.32Zm8.5,9.84c-.64,0-1.21.13-1.71.4-.5.27-.94.68-1.35,1.24v14.48c.24.48.54.85.88,1.12.35.27.78.4,1.29.4,1.12,0,2.1-.27,2.91-.8.82-.53,1.5-1.22,2.05-2.06.55-.84.96-1.77,1.23-2.8.27-1.03.4-2.03.4-3.02s-.08-1.97-.24-3.02-.46-2.02-.88-2.9c-.43-.88-1.01-1.61-1.75-2.18-.74-.57-1.68-.86-2.83-.86Z"/>
        <path class="cls-1" d="m1256.36,16.36c.83-.03,1.72-.18,2.68-.46.96-.28,1.85-.69,2.68-1.24.83-.55,1.51-1.25,2.06-2.1.55-.85.82-1.88.82-3.08,0-1.39-.32-2.49-.96-3.32-.64-.83-1.44-1.46-2.4-1.9-.96-.44-1.98-.72-3.06-.84s-2.07-.18-2.98-.18v28.29h-6.68V1.56l11-.08c1.17,0,2.36.19,3.56.56,1.2.37,2.28.92,3.24,1.64.96.72,1.75,1.6,2.36,2.64.61,1.04.92,2.21.92,3.52,0,.93-.17,1.81-.52,2.64s-.82,1.58-1.42,2.26c-.6.68-1.3,1.26-2.1,1.74-.8.48-1.65.85-2.56,1.12.8,1.47,1.51,2.74,2.14,3.82.63,1.08,1.17,2.03,1.64,2.84.47.81.88,1.51,1.24,2.1.36.59.7,1.11,1.02,1.56.35.59.7,1.01,1.06,1.28.36.27.69.47.98.6.37.11.72.16,1.04.16h1.32v1.48l-5.64.04c-.91,0-1.67-.13-2.3-.38-.63-.25-1.13-.54-1.5-.86-.43-.4-.77-.84-1.04-1.32l-6.6-12.56Z"/>
        <path class="cls-1" d="m1283.33,30.77c-.99-.43-1.91-.99-2.76-1.7-.85-.71-1.59-1.51-2.2-2.4-.61-.89-1.09-1.85-1.42-2.86-.33-1.01-.5-2.07-.5-3.16,0-1.39.29-2.73.86-4.04.57-1.31,1.36-2.47,2.36-3.5,1-1.03,2.2-1.85,3.6-2.46,1.4-.61,2.91-.92,4.54-.92.61,0,1.31.05,2.1.16.79.11,1.59.29,2.42.54.83.25,1.64.59,2.44,1.02.8.43,1.52.98,2.16,1.66.64.68,1.15,1.51,1.54,2.48.39.97.58,2.13.58,3.46v2.24l-16.16.08c.19,2.83.75,4.99,1.68,6.48.93,1.49,2.01,2.24,3.24,2.24.51,0,1.05-.03,1.64-.1.59-.07,1.19-.2,1.82-.4.63-.2,1.26-.49,1.9-.88.64-.39,1.27-.9,1.88-1.54l1,1.04c-1.71,1.65-3.67,2.69-5.88,3.12-2.21.43-4.5.24-6.84-.56Zm4.84-19.6c-1.55,0-2.75.71-3.6,2.12-.85,1.41-1.41,3.44-1.68,6.08l10.52.04c0-1.65-.18-3.01-.54-4.08-.36-1.07-.8-1.91-1.32-2.52-.52-.61-1.09-1.04-1.7-1.28-.61-.24-1.17-.36-1.68-.36Z"/>
        <path class="cls-1" d="m1317.54,30.49c-.4.32-.94.55-1.62.68-.68.13-1.43.2-2.26.2-1.57,0-3.02-.23-4.34-.68-1.32-.45-2.46-1.12-3.42-2s-1.7-1.95-2.22-3.22c-.52-1.27-.78-2.71-.78-4.34,0-1.41.19-2.81.56-4.18.37-1.37.96-2.59,1.76-3.66.8-1.07,1.81-1.93,3.04-2.58,1.23-.65,2.68-.98,4.36-.98,1.01,0,1.93.17,2.76.52.83.35,1.53.72,2.12,1.12V2.32h5.44v29.33h-4.6l-.8-1.16Zm.08-17.56c-.99-.75-1.88-1.19-2.68-1.32-.8-.13-1.53-.04-2.2.28-.67.32-1.25.82-1.74,1.5s-.91,1.45-1.24,2.3c-.33.85-.59,1.75-.76,2.7-.17.95-.26,1.86-.26,2.74,0,.99.13,1.99.38,3,.25,1.01.65,1.94,1.2,2.78.55.84,1.23,1.53,2.06,2.06.83.53,1.81.8,2.96.8.64,0,1.11-.18,1.42-.54.31-.36.58-.86.82-1.5l.04-14.8Z"/>
        <path class="cls-1" d="m1334.78,30.77c-.99-.43-1.91-.99-2.76-1.7-.85-.71-1.59-1.51-2.2-2.4-.61-.89-1.09-1.85-1.42-2.86-.33-1.01-.5-2.07-.5-3.16,0-1.39.29-2.73.86-4.04.57-1.31,1.36-2.47,2.36-3.5,1-1.03,2.2-1.85,3.6-2.46,1.4-.61,2.91-.92,4.54-.92.61,0,1.31.05,2.1.16.79.11,1.59.29,2.42.54.83.25,1.64.59,2.44,1.02.8.43,1.52.98,2.16,1.66.64.68,1.15,1.51,1.54,2.48.39.97.58,2.13.58,3.46v2.24l-16.16.08c.19,2.83.75,4.99,1.68,6.48.93,1.49,2.01,2.24,3.24,2.24.51,0,1.05-.03,1.64-.1.59-.07,1.19-.2,1.82-.4.63-.2,1.26-.49,1.9-.88.64-.39,1.27-.9,1.88-1.54l1,1.04c-1.71,1.65-3.67,2.69-5.88,3.12-2.21.43-4.5.24-6.84-.56Zm4.84-19.6c-1.55,0-2.75.71-3.6,2.12-.85,1.41-1.41,3.44-1.68,6.08l10.52.04c0-1.65-.18-3.01-.54-4.08-.36-1.07-.8-1.91-1.32-2.52-.52-.61-1.09-1.04-1.7-1.28-.61-.24-1.17-.36-1.68-.36Z"/>
        <path class="cls-1" d="m1369.51,21.76c1.15,1.09,1.72,2.37,1.72,3.84,0,1.31-.35,2.39-1.04,3.24-.69.85-1.58,1.51-2.66,1.96-1.08.45-2.29.72-3.64.8-1.35.08-2.67,0-3.96-.24-1.29-.24-2.49-.62-3.6-1.14-1.11-.52-1.97-1.18-2.58-1.98.19-.13.31-.24.36-.32s.11-.15.16-.2c.05-.05.11-.12.16-.2s.16-.19.32-.32c.27.32.68.65,1.24.98.56.33,1.17.64,1.82.92.65.28,1.33.51,2.02.7.69.19,1.29.28,1.8.28.59,0,1.21-.17,1.86-.52.65-.35,1.19-.79,1.6-1.34.41-.55.65-1.15.7-1.8.05-.65-.25-1.3-.92-1.94-.48-.48-1.09-.91-1.82-1.28-.73-.37-1.52-.74-2.36-1.1-.84-.36-1.68-.75-2.52-1.16-.84-.41-1.59-.87-2.24-1.38-.65-.51-1.19-1.09-1.62-1.76-.43-.67-.64-1.44-.64-2.32,0-1.07.25-1.97.76-2.72.51-.75,1.16-1.36,1.96-1.84.8-.48,1.69-.83,2.66-1.04.97-.21,1.94-.32,2.9-.32.56,0,1.17.02,1.82.06s1.3.12,1.94.24c.64.12,1.25.3,1.84.54.59.24,1.12.56,1.6.96.77.72,1.2,1.37,1.28,1.96.05.37.09.82.12,1.34s.04,1.09.04,1.7h-2.76c-.13-.69-.32-1.37-.56-2.02-.24-.65-.56-1.23-.96-1.72-.4-.49-.89-.89-1.46-1.2-.57-.31-1.26-.46-2.06-.46-.43,0-.85.09-1.28.28-.43.19-.8.45-1.12.8-.32.35-.57.73-.76,1.16-.19.43-.28.89-.28,1.4,0,.72.19,1.33.56,1.84.37.51.87.95,1.48,1.34.61.39,1.29.73,2.02,1.02.73.29,1.48.59,2.24.88.76.29,1.47.61,2.14.94.67.33,1.24.71,1.72,1.14Z"/>
        <path class="cls-1" d="m1379.19,5.88c-.85,0-1.58-.23-2.18-.68-.6-.45-.9-1.01-.9-1.68s.3-1.23.9-1.7c.6-.47,1.33-.7,2.18-.7s1.63.23,2.24.7c.61.47.92,1.03.92,1.7s-.31,1.23-.92,1.68c-.61.45-1.36.68-2.24.68Zm2.72,3.92v21.8h-5.44V9.8h5.44Z"/>
        <path class="cls-1" d="m1387.71,18c0-1.23.29-2.32.86-3.28.57-.96,1.31-1.79,2.22-2.48.91-.69,1.92-1.24,3.04-1.64,1.12-.4,2.25-.67,3.4-.8h10.88v1.6h-3.32c.35.51.72,1.01,1.12,1.5.4.49.76.99,1.08,1.5.32.51.59,1.05.8,1.64.21.59.32,1.24.32,1.96,0,1.25-.31,2.39-.94,3.4-.63,1.01-1.43,1.87-2.4,2.56-.97.69-2.06,1.23-3.26,1.62-1.2.39-2.39.59-3.56.62-.72,0-1.31.01-1.78.04-.47.03-.85.05-1.16.08-.31.03-.55.07-.74.14-.19.07-.36.14-.52.22-.27.16-.41.37-.44.64-.03.27-.04.51-.04.72,0,.51.16.91.48,1.22.32.31.71.53,1.18.68.47.15.97.23,1.52.26.55.03,1.05.04,1.5.04.72,0,1.55.06,2.48.18s1.87.31,2.8.56c.93.25,1.84.58,2.72.98.88.4,1.66.89,2.34,1.46.68.57,1.23,1.23,1.64,1.98.41.75.62,1.6.62,2.56,0,1.41-.43,2.64-1.28,3.68-.85,1.04-1.93,1.89-3.22,2.54-1.29.65-2.67,1.14-4.12,1.46-1.45.32-2.78.48-3.98.48-.85,0-1.75-.07-2.7-.2-.95-.13-1.89-.33-2.84-.6-.95-.27-1.85-.62-2.7-1.06-.85-.44-1.61-.96-2.28-1.56s-1.19-1.29-1.58-2.08c-.39-.79-.58-1.67-.58-2.66,0-.8.16-1.53.48-2.18.32-.65.75-1.27,1.28-1.86.53-.59,1.14-1.16,1.82-1.72.68-.56,1.38-1.13,2.1-1.72-.96-.96-1.44-1.77-1.44-2.44,0-.45.05-.81.14-1.08.09-.27.24-.52.44-.76.2-.24.44-.49.72-.74.28-.25.61-.58.98-.98-.56-.37-1.08-.79-1.56-1.24s-.91-.95-1.3-1.5c-.39-.55-.69-1.13-.9-1.74-.21-.61-.32-1.28-.32-2Zm17.08,20c0-1.44-.34-2.63-1.02-3.56-.68-.93-1.53-1.62-2.54-2.06s-2.11-.65-3.3-.64c-1.19.01-2.29.26-3.32.74-1.03.48-1.88,1.19-2.56,2.12-.68.93-1.02,2.07-1.02,3.4,0,.85.17,1.69.5,2.52.33.83.81,1.55,1.42,2.18.61.63,1.35,1.13,2.2,1.52s1.79.58,2.8.58c1.12,0,2.11-.19,2.96-.58.85-.39,1.57-.89,2.14-1.52.57-.63,1.01-1.35,1.3-2.18.29-.83.44-1.67.44-2.52Zm-6.84-26.69c-.64,0-1.23.18-1.78.54-.55.36-1.03.85-1.44,1.46-.41.61-.74,1.32-.98,2.12s-.36,1.65-.36,2.56c0,.85.12,1.69.36,2.5.24.81.57,1.53.98,2.14.41.61.89,1.11,1.44,1.48.55.37,1.14.56,1.78.56s1.19-.19,1.72-.56c.53-.37,1.01-.87,1.42-1.48.41-.61.74-1.33.98-2.14.24-.81.36-1.65.36-2.5,0-.91-.12-1.76-.36-2.56-.24-.8-.57-1.51-.98-2.12-.41-.61-.89-1.1-1.42-1.46-.53-.36-1.11-.54-1.72-.54Z"/>
        <path class="cls-1" d="m1423.92,9.52c2.83,0,4.99.77,6.48,2.32,1.49,1.55,2.31,3.79,2.44,6.72v12.92h-5.8V15.48c0-1.41-.36-2.51-1.07-3.28-.71-.77-1.59-1.16-2.63-1.16s-1.96.39-2.66,1.16c-.7.77-1.05,1.87-1.05,3.28v16.12h-5.44V9.8h5.44l.04.48c.56-.27,1.25-.46,2.06-.58.81-.12,1.54-.18,2.18-.18Z"/>
      </g>
      <path d="m394.61,23.38c215.66-.43,472.66-.43,688.31,0-215.66.43-472.66.43-688.31,0h0Z"/>
    </g>
  </g>
</svg>