<?xml version="1.0" encoding="UTF-8"?>
<svg id="_레이어_2" data-name="레이어 2" xmlns="http://www.w3.org/2000/svg" viewBox="0 0 602.79 234.18">
  <defs>
    <style>
      .cls-1 {
        fill: #ecffec;
      }

      .cls-1, .cls-2 {
        stroke: #000;
        stroke-miterlimit: 10;
      }

      .cls-2 {
        fill: #88ffa4;
      }
    </style>
  </defs>
  <g id="_레이어_1-2" data-name="레이어 1">
    <g>
      <g>
        <path class="cls-1" d="m23.1,8.05v76.2h35.74v3.96H5.33V8.05h17.77Z"/>
        <path class="cls-1" d="m77.68,18.65c-2.28,0-4.23-.6-5.83-1.82-1.61-1.21-2.41-2.71-2.41-4.49s.8-3.3,2.41-4.55c1.6-1.25,3.55-1.87,5.83-1.87s4.35.63,5.99,1.87c1.64,1.25,2.46,2.77,2.46,4.55s-.82,3.28-2.46,4.49c-1.64,1.21-3.64,1.82-5.99,1.82Zm7.28,10.49v58.33h-14.55V29.14h14.55Z"/>
        <path class="cls-1" d="m100.48,51.08c0-3.28.77-6.21,2.3-8.78,1.53-2.57,3.51-4.78,5.94-6.63,2.42-1.85,5.14-3.32,8.13-4.39s6.03-1.78,9.1-2.14h29.11v4.28h-8.88c.93,1.36,1.93,2.69,3,4.01,1.07,1.32,2.03,2.66,2.89,4.01.86,1.36,1.57,2.82,2.14,4.39.57,1.57.86,3.32.86,5.24,0,3.35-.84,6.39-2.51,9.1-1.68,2.71-3.82,4.99-6.42,6.85-2.6,1.86-5.51,3.3-8.72,4.33-3.21,1.04-6.39,1.59-9.52,1.66-1.93,0-3.51.04-4.76.11-1.25.07-2.28.14-3.1.21-.82.07-1.48.2-1.98.38-.5.18-.96.37-1.39.59-.71.43-1.11,1-1.18,1.71-.07.71-.11,1.36-.11,1.93,0,1.36.43,2.45,1.28,3.26.86.82,1.91,1.43,3.16,1.82,1.25.39,2.6.62,4.07.7,1.46.07,2.8.11,4.01.11,1.93,0,4.14.16,6.64.48,2.5.32,4.99.82,7.49,1.5,2.5.68,4.92,1.55,7.28,2.62s4.44,2.37,6.26,3.91c1.82,1.53,3.28,3.3,4.39,5.3,1.11,2,1.66,4.28,1.66,6.85,0,3.78-1.14,7.06-3.42,9.85-2.28,2.78-5.16,5.05-8.62,6.79-3.46,1.75-7.14,3.05-11.02,3.91-3.89.86-7.44,1.28-10.65,1.28-2.28,0-4.69-.18-7.22-.54-2.53-.36-5.07-.89-7.6-1.6-2.53-.71-4.94-1.66-7.22-2.84-2.28-1.18-4.32-2.57-6.1-4.17-1.78-1.61-3.19-3.46-4.23-5.57-1.03-2.11-1.55-4.48-1.55-7.12,0-2.14.43-4.08,1.28-5.83.86-1.75,2-3.41,3.42-4.98,1.43-1.57,3.05-3.1,4.87-4.6,1.82-1.5,3.69-3.03,5.62-4.6-2.57-2.57-3.85-4.74-3.85-6.53,0-1.21.12-2.17.37-2.89.25-.71.64-1.39,1.18-2.03.54-.64,1.18-1.3,1.93-1.98.75-.68,1.62-1.55,2.62-2.62-1.5-1-2.89-2.1-4.17-3.32-1.28-1.21-2.44-2.55-3.48-4.01-1.04-1.46-1.84-3.01-2.41-4.66-.57-1.64-.86-3.42-.86-5.35Zm45.7,53.51c0-3.85-.91-7.03-2.73-9.52-1.82-2.5-4.09-4.33-6.8-5.51-2.71-1.18-5.66-1.75-8.83-1.71-3.18.04-6.14.7-8.88,1.98-2.75,1.28-5.03,3.17-6.85,5.67-1.82,2.5-2.73,5.53-2.73,9.1,0,2.28.44,4.53,1.34,6.74.89,2.21,2.16,4.16,3.8,5.83,1.64,1.67,3.6,3.03,5.89,4.07,2.28,1.03,4.78,1.55,7.49,1.55,3,0,5.64-.52,7.92-1.55,2.28-1.04,4.19-2.39,5.73-4.07,1.53-1.68,2.69-3.62,3.48-5.83.78-2.21,1.18-4.46,1.18-6.74Zm-18.3-71.38c-1.71,0-3.3.48-4.76,1.45-1.46.96-2.75,2.27-3.85,3.91-1.11,1.64-1.98,3.53-2.62,5.67s-.96,4.42-.96,6.85c0,2.28.32,4.51.96,6.69.64,2.18,1.52,4.08,2.62,5.73,1.1,1.64,2.39,2.96,3.85,3.96,1.46,1,3.05,1.5,4.76,1.5s3.17-.5,4.6-1.5c1.43-1,2.69-2.32,3.8-3.96,1.11-1.64,1.98-3.55,2.62-5.73.64-2.18.96-4.4.96-6.69,0-2.42-.32-4.71-.96-6.85s-1.52-4.03-2.62-5.67c-1.11-1.64-2.37-2.94-3.8-3.91-1.43-.96-2.96-1.45-4.6-1.45Z"/>
        <path class="cls-1" d="m185.77,2.92l-.03,27.72c1.21-.36,2.83-.66,4.86-.91,2.03-.25,3.9-.38,5.61-.38,7.33,0,13.03,2.02,17.08,6.05,4.06,4.03,6.16,9.76,6.3,17.18v34.46h-14.55v-41.1c0-3.78-1-6.72-3-8.83-2-2.1-4.5-3.16-7.49-3.16-1.64,0-3.25.48-4.82,1.44-1.57.96-2.89,2.48-3.96,4.55v47.52h-14.55V2.92h14.55Z"/>
        <path class="cls-1" d="m251.69,70.88c.07,2.14.32,4.03.75,5.67.43,1.5,1.07,2.82,1.93,3.96.86,1.14,2.14,1.71,3.85,1.71.71,0,1.78-.34,3.21-1.02,1.43-.68,3.07-1.48,4.92-2.41l1.07,1.61c.28.43.61.93.96,1.5-1.93,1-3.89,1.89-5.89,2.68-1.64.71-3.51,1.34-5.62,1.87-2.1.54-4.12.8-6.05.8-1.78,0-3.52-.27-5.19-.8-1.68-.54-3.14-1.48-4.39-2.84-1.25-1.36-2.25-3.17-3-5.46-.75-2.28-1.12-5.17-1.12-8.67v-35.85l-6.53-.11v-4.39h6.53v-15.62h14.55v15.62h12.31v4.39l-12.31.11v37.24Z"/>
        <path class="cls-1" d="m316.55,18.65c-2.28,0-4.23-.6-5.83-1.82-1.61-1.21-2.41-2.71-2.41-4.49s.8-3.3,2.41-4.55c1.6-1.25,3.55-1.87,5.83-1.87s4.35.63,5.99,1.87c1.64,1.25,2.46,2.77,2.46,4.55s-.82,3.28-2.46,4.49c-1.64,1.21-3.64,1.82-5.99,1.82Zm7.28,10.49v58.33h-14.55V29.14h14.55Z"/>
        <path class="cls-1" d="m367.7,28.39c7.56,0,13.34,2.07,17.34,6.21,3.99,4.14,6.17,10.13,6.53,17.98v34.57h-15.52v-42.81c0-3.78-.95-6.71-2.85-8.78-1.9-2.07-4.25-3.1-7.05-3.1s-5.24,1.04-7.1,3.1c-1.87,2.07-2.8,5-2.8,8.78v43.13h-14.55V29.14h14.55l.11,1.28c1.5-.71,3.33-1.23,5.51-1.55,2.18-.32,4.12-.48,5.83-.48Z"/>
        <path class="cls-1" d="m453.42,70.88c.07,2.14.32,4.03.75,5.67.43,1.5,1.07,2.82,1.93,3.96.86,1.14,2.14,1.71,3.85,1.71.71,0,1.78-.34,3.21-1.02,1.43-.68,3.07-1.48,4.92-2.41l1.07,1.61c.29.43.61.93.96,1.5-1.93,1-3.89,1.89-5.89,2.68-1.64.71-3.51,1.34-5.62,1.87-2.11.54-4.12.8-6.05.8-1.78,0-3.52-.27-5.19-.8-1.68-.54-3.14-1.48-4.39-2.84-1.25-1.36-2.25-3.17-3-5.46-.75-2.28-1.12-5.17-1.12-8.67v-35.85l-6.53-.11v-4.39h6.53v-15.62h14.55v15.62h12.31v4.39l-12.31.11v37.24Z"/>
        <path class="cls-1" d="m494.52,2.92l-.03,27.72c1.21-.36,2.83-.66,4.86-.91,2.03-.25,3.9-.38,5.61-.38,7.33,0,13.03,2.02,17.08,6.05,4.06,4.03,6.16,9.76,6.3,17.18v34.46h-14.55v-41.1c0-3.78-1-6.72-3-8.83-2-2.1-4.49-3.16-7.49-3.16-1.64,0-3.25.48-4.82,1.44-1.57.96-2.89,2.48-3.96,4.55v47.52h-14.55V2.92h14.55Z"/>
        <path class="cls-1" d="m560.23,85.21c-2.64-1.14-5.1-2.66-7.38-4.55s-4.25-4.03-5.89-6.42c-1.64-2.39-2.91-4.94-3.8-7.65-.89-2.71-1.34-5.53-1.34-8.45,0-3.71.77-7.31,2.3-10.81,1.53-3.5,3.64-6.62,6.31-9.36,2.68-2.75,5.89-4.94,9.63-6.58,3.75-1.64,7.79-2.46,12.15-2.46,1.64,0,3.51.14,5.62.43,2.1.29,4.26.77,6.47,1.45,2.21.68,4.39,1.59,6.53,2.73,2.14,1.14,4.07,2.62,5.78,4.44s3.09,4.03,4.12,6.64c1.03,2.6,1.55,5.69,1.55,9.26v5.99l-43.24.21c.5,7.56,2,13.34,4.5,17.34,2.5,4,5.39,5.99,8.67,5.99,1.35,0,2.82-.09,4.39-.27,1.57-.18,3.19-.53,4.87-1.07,1.67-.54,3.37-1.32,5.08-2.35,1.71-1.03,3.39-2.41,5.03-4.12l2.67,2.78c-4.57,4.42-9.81,7.21-15.73,8.35-5.92,1.14-12.02.64-18.3-1.5Zm12.95-52.44c-4.14,0-7.35,1.89-9.63,5.67-2.28,3.78-3.78,9.2-4.5,16.27l28.15.11c0-4.42-.48-8.06-1.44-10.92-.96-2.85-2.14-5.1-3.53-6.74-1.39-1.64-2.91-2.78-4.55-3.42-1.64-.64-3.14-.96-4.5-.96Z"/>
        <path class="cls-1" d="m184.16,200.39c0,4.28-.57,8.42-1.71,12.41-1.14,4-2.84,7.53-5.08,10.59-2.25,3.07-5.08,5.53-8.51,7.38-3.42,1.85-7.49,2.78-12.2,2.78s-8.83-.87-12.79-2.62c-3.96-1.75-7.42-4.14-10.38-7.17-2.96-3.03-5.32-6.54-7.06-10.54-1.75-3.99-2.69-8.28-2.84-12.84v-38.63c0-1.5-.52-2.6-1.55-3.32-1.04-.71-2.3-1.14-3.8-1.28v-3.96c4.35-.21,8.2-.04,11.56.54,1.43.14,2.85.43,4.28.86,1.43.43,2.66.96,3.69,1.61,1.03.64,1.89,1.43,2.57,2.35.68.93,1.02,2,1.02,3.21v38.63c0,2.14.44,4.44,1.34,6.9.89,2.46,2.19,4.75,3.91,6.85,1.71,2.11,3.83,3.87,6.37,5.3,2.53,1.43,5.47,2.14,8.83,2.14s6.42-.71,8.78-2.14c2.35-1.43,4.26-3.19,5.73-5.3,1.46-2.1,2.5-4.39,3.1-6.85.6-2.46.91-4.76.91-6.9v-47.52h3.85v47.52Z"/>
        <path class="cls-1" d="m228.04,174.39c7.56,0,13.34,2.07,17.34,6.21,3.99,4.14,6.17,10.13,6.53,17.98v34.57h-15.52v-42.81c0-3.78-.95-6.71-2.85-8.78-1.9-2.07-4.25-3.1-7.05-3.1s-5.24,1.04-7.1,3.1c-1.87,2.07-2.8,5-2.8,8.78v43.13h-14.55v-58.33h14.55l.11,1.28c1.5-.71,3.33-1.23,5.51-1.55,2.18-.32,4.12-.48,5.83-.48Z"/>
        <path class="cls-1" d="m277.38,164.65c-2.28,0-4.23-.6-5.83-1.82-1.61-1.21-2.41-2.71-2.41-4.49s.8-3.3,2.41-4.55c1.6-1.25,3.55-1.87,5.83-1.87s4.35.63,5.99,1.87c1.64,1.25,2.46,2.77,2.46,4.55s-.82,3.28-2.46,4.49c-1.64,1.21-3.64,1.82-5.99,1.82Zm7.28,10.49v58.33h-14.55v-58.33h14.55Z"/>
        <path class="cls-1" d="m295.46,175.99v.32c0,.07-.04-.07-.11-.43l.21.11h-.11Zm52.33,0h9.42l-25.26,55.54h-8.03c-3.78-8.63-7.03-15.96-9.74-21.99-2.71-6.03-5.03-11.08-6.96-15.14-1.93-4.07-3.52-7.29-4.76-9.69-1.25-2.39-2.28-4.21-3.1-5.46-.82-1.25-1.52-2.07-2.09-2.46-.57-.39-1.14-.66-1.71-.8.14-.07.53-.12,1.18-.16.64-.04,1.43-.05,2.35-.05,1.5,0,3.26.07,5.3.21,2.03.14,4.07.5,6.1,1.07,2.03.57,3.94,1.38,5.73,2.41,1.78,1.04,3.14,2.41,4.07,4.12l11.45,25.47,16.05-33.07Z"/>
        <path class="cls-1" d="m381.72,231.21c-2.64-1.14-5.1-2.66-7.38-4.55-2.28-1.89-4.25-4.03-5.89-6.42-1.64-2.39-2.91-4.94-3.8-7.65-.89-2.71-1.34-5.53-1.34-8.46,0-3.71.77-7.31,2.3-10.81,1.53-3.5,3.64-6.62,6.31-9.36,2.68-2.75,5.89-4.94,9.63-6.58,3.75-1.64,7.79-2.46,12.15-2.46,1.64,0,3.51.14,5.62.43,2.1.29,4.26.77,6.47,1.44,2.21.68,4.39,1.59,6.53,2.73,2.14,1.14,4.07,2.62,5.78,4.44s3.09,4.03,4.12,6.63c1.03,2.61,1.55,5.69,1.55,9.26v5.99l-43.24.21c.5,7.56,2,13.34,4.49,17.34,2.5,4,5.39,5.99,8.67,5.99,1.35,0,2.82-.09,4.39-.27,1.57-.18,3.19-.54,4.87-1.07,1.68-.54,3.37-1.32,5.08-2.35,1.71-1.03,3.39-2.41,5.03-4.12l2.68,2.78c-4.57,4.42-9.81,7.21-15.73,8.35-5.92,1.14-12.02.64-18.3-1.5Zm12.95-52.44c-4.14,0-7.35,1.89-9.63,5.67-2.28,3.78-3.78,9.2-4.49,16.27l28.15.11c0-4.42-.48-8.06-1.44-10.92-.96-2.85-2.14-5.1-3.53-6.74-1.39-1.64-2.91-2.78-4.55-3.42-1.64-.64-3.14-.96-4.5-.96Z"/>
        <path class="cls-1" d="m463.91,175.03c1.93,0,3.75.34,5.46,1.02,1.71.68,3.25,1.48,4.6,2.41,1.35.93,2.46,1.84,3.32,2.73.86.89,1.46,1.52,1.82,1.87l-2.25,2.46c-1.28-1-2.61-1.89-3.96-2.68-1.14-.71-2.39-1.35-3.75-1.93-1.36-.57-2.61-.86-3.75-.86-1.07,0-2.27.32-3.58.96-1.32.64-2.62,1.55-3.91,2.73-1.29,1.18-2.48,2.6-3.59,4.28-1.11,1.68-1.95,3.55-2.52,5.62v40.03h-14.55v-58.43h14.55v4.39c1.64-1.29,3.48-2.37,5.51-3.26,2.03-.89,4.23-1.34,6.58-1.34Zm15.41,8.03h-.11c.14-.21.21-.34.21-.37s-.04.09-.11.37Z"/>
        <path class="cls-1" d="m528.12,207.14c3.07,2.93,4.6,6.35,4.6,10.27,0,3.5-.93,6.39-2.78,8.67-1.86,2.28-4.23,4.03-7.12,5.24-2.89,1.21-6.14,1.93-9.74,2.14-3.6.21-7.13,0-10.6-.64s-6.67-1.66-9.63-3.05c-2.96-1.39-5.26-3.16-6.9-5.3.5-.36.82-.64.96-.86.14-.21.28-.39.43-.54.14-.14.28-.32.43-.53.14-.21.43-.5.86-.86.71.86,1.82,1.73,3.32,2.62,1.5.89,3.12,1.71,4.87,2.46s3.55,1.37,5.4,1.87c1.86.5,3.46.75,4.82.75,1.57,0,3.23-.46,4.98-1.39,1.75-.93,3.17-2.12,4.28-3.59,1.11-1.46,1.73-3.07,1.87-4.82.14-1.75-.68-3.48-2.46-5.19-1.28-1.28-2.91-2.42-4.87-3.42-1.96-1-4.07-1.98-6.31-2.94-2.25-.96-4.5-2-6.74-3.1-2.25-1.11-4.25-2.34-5.99-3.69-1.75-1.35-3.19-2.92-4.33-4.71-1.14-1.78-1.71-3.85-1.71-6.21,0-2.85.68-5.28,2.03-7.28,1.35-2,3.1-3.64,5.24-4.92s4.51-2.21,7.12-2.78c2.6-.57,5.19-.86,7.76-.86,1.5,0,3.12.05,4.87.16,1.75.11,3.48.32,5.19.64,1.71.32,3.35.8,4.92,1.45,1.57.64,3,1.5,4.28,2.57,2.07,1.93,3.21,3.67,3.42,5.24.14,1,.25,2.19.32,3.58.07,1.39.11,2.91.11,4.55h-7.38c-.36-1.85-.86-3.66-1.5-5.4-.64-1.75-1.5-3.28-2.57-4.6-1.07-1.32-2.37-2.39-3.91-3.21-1.54-.82-3.37-1.23-5.51-1.23-1.14,0-2.28.25-3.42.75-1.14.5-2.14,1.21-3,2.14-.86.93-1.54,1.96-2.03,3.1-.5,1.14-.75,2.39-.75,3.75,0,1.93.5,3.57,1.5,4.92,1,1.36,2.32,2.55,3.96,3.59,1.64,1.04,3.44,1.94,5.41,2.73,1.96.79,3.96,1.57,5.99,2.35,2.03.79,3.94,1.62,5.73,2.51,1.78.89,3.32,1.91,4.6,3.05Z"/>
        <path class="cls-1" d="m560.23,231.21c-2.64-1.14-5.1-2.66-7.38-4.55-2.28-1.89-4.25-4.03-5.89-6.42-1.64-2.39-2.91-4.94-3.8-7.65-.89-2.71-1.34-5.53-1.34-8.46,0-3.71.77-7.31,2.3-10.81,1.53-3.5,3.64-6.62,6.31-9.36,2.68-2.75,5.89-4.94,9.63-6.58,3.75-1.64,7.79-2.46,12.15-2.46,1.64,0,3.51.14,5.62.43,2.1.29,4.26.77,6.47,1.44,2.21.68,4.39,1.59,6.53,2.73,2.14,1.14,4.07,2.62,5.78,4.44,1.71,1.82,3.09,4.03,4.12,6.63,1.03,2.61,1.55,5.69,1.55,9.26v5.99l-43.24.21c.5,7.56,2,13.34,4.5,17.34,2.5,4,5.39,5.99,8.67,5.99,1.36,0,2.82-.09,4.39-.27,1.57-.18,3.19-.54,4.87-1.07,1.68-.54,3.37-1.32,5.08-2.35,1.71-1.03,3.39-2.41,5.03-4.12l2.68,2.78c-4.57,4.42-9.81,7.21-15.73,8.35-5.92,1.14-12.02.64-18.3-1.5Zm12.95-52.44c-4.14,0-7.35,1.89-9.63,5.67-2.29,3.78-3.78,9.2-4.5,16.27l28.15.11c0-4.42-.48-8.06-1.44-10.92-.96-2.85-2.14-5.1-3.53-6.74-1.39-1.64-2.91-2.78-4.55-3.42-1.64-.64-3.14-.96-4.5-.96Z"/>
      </g>
      <g>
        <path class="cls-2" d="m18.27,5.64v76.2h35.74v3.96H.5V5.64h17.77Z"/>
        <path class="cls-2" d="m72.85,16.23c-2.28,0-4.23-.6-5.83-1.82-1.61-1.21-2.41-2.71-2.41-4.49s.8-3.3,2.41-4.55c1.6-1.25,3.55-1.87,5.83-1.87s4.35.63,5.99,1.87c1.64,1.25,2.46,2.77,2.46,4.55s-.82,3.28-2.46,4.49c-1.64,1.21-3.64,1.82-5.99,1.82Zm7.28,10.49v58.33h-14.55V26.72h14.55Z"/>
        <path class="cls-2" d="m95.64,48.66c0-3.28.77-6.21,2.3-8.78,1.53-2.57,3.51-4.78,5.94-6.63,2.42-1.85,5.14-3.32,8.13-4.39s6.03-1.78,9.1-2.14h29.11v4.28h-8.88c.93,1.36,1.93,2.69,3,4.01,1.07,1.32,2.03,2.66,2.89,4.01.86,1.36,1.57,2.82,2.14,4.39.57,1.57.86,3.32.86,5.24,0,3.35-.84,6.39-2.51,9.1-1.68,2.71-3.82,4.99-6.42,6.85-2.6,1.86-5.51,3.3-8.72,4.33-3.21,1.04-6.39,1.59-9.52,1.66-1.93,0-3.51.04-4.76.11-1.25.07-2.28.14-3.1.21-.82.07-1.48.2-1.98.38-.5.18-.96.37-1.39.59-.71.43-1.11,1-1.18,1.71-.07.71-.11,1.36-.11,1.93,0,1.36.43,2.45,1.28,3.26.86.82,1.91,1.43,3.16,1.82,1.25.39,2.6.62,4.07.7,1.46.07,2.8.11,4.01.11,1.93,0,4.14.16,6.64.48,2.5.32,4.99.82,7.49,1.5,2.5.68,4.92,1.55,7.28,2.62s4.44,2.37,6.26,3.91c1.82,1.53,3.28,3.3,4.39,5.3,1.11,2,1.66,4.28,1.66,6.85,0,3.78-1.14,7.06-3.42,9.85-2.28,2.78-5.16,5.05-8.62,6.79-3.46,1.75-7.14,3.05-11.02,3.91-3.89.86-7.44,1.28-10.65,1.28-2.28,0-4.69-.18-7.22-.54-2.53-.36-5.07-.89-7.6-1.6-2.53-.71-4.94-1.66-7.22-2.84-2.28-1.18-4.32-2.57-6.1-4.17-1.78-1.61-3.19-3.46-4.23-5.57-1.03-2.11-1.55-4.48-1.55-7.12,0-2.14.43-4.08,1.28-5.83.86-1.75,2-3.41,3.42-4.98,1.43-1.57,3.05-3.1,4.87-4.6,1.82-1.5,3.69-3.03,5.62-4.6-2.57-2.57-3.85-4.74-3.85-6.53,0-1.21.12-2.17.37-2.89.25-.71.64-1.39,1.18-2.03.54-.64,1.18-1.3,1.93-1.98.75-.68,1.62-1.55,2.62-2.62-1.5-1-2.89-2.1-4.17-3.32-1.28-1.21-2.44-2.55-3.48-4.01-1.04-1.46-1.84-3.01-2.41-4.66-.57-1.64-.86-3.42-.86-5.35Zm45.7,53.51c0-3.85-.91-7.03-2.73-9.52-1.82-2.5-4.09-4.33-6.8-5.51-2.71-1.18-5.66-1.75-8.83-1.71-3.18.04-6.14.7-8.88,1.98-2.75,1.28-5.03,3.17-6.85,5.67-1.82,2.5-2.73,5.53-2.73,9.1,0,2.28.44,4.53,1.34,6.74.89,2.21,2.16,4.16,3.8,5.83,1.64,1.67,3.6,3.03,5.89,4.07,2.28,1.03,4.78,1.55,7.49,1.55,3,0,5.64-.52,7.92-1.55,2.28-1.04,4.19-2.39,5.73-4.07,1.53-1.68,2.69-3.62,3.48-5.83.78-2.21,1.18-4.46,1.18-6.74Zm-18.3-71.38c-1.71,0-3.3.48-4.76,1.45-1.46.96-2.75,2.27-3.85,3.91-1.11,1.64-1.98,3.53-2.62,5.67s-.96,4.42-.96,6.85c0,2.28.32,4.51.96,6.69.64,2.18,1.52,4.08,2.62,5.73,1.1,1.64,2.39,2.96,3.85,3.96,1.46,1,3.05,1.5,4.76,1.5s3.17-.5,4.6-1.5c1.43-1,2.69-2.32,3.8-3.96,1.11-1.64,1.98-3.55,2.62-5.73.64-2.18.96-4.4.96-6.69,0-2.42-.32-4.71-.96-6.85s-1.52-4.03-2.62-5.67c-1.11-1.64-2.37-2.94-3.8-3.91-1.43-.96-2.96-1.45-4.6-1.45Z"/>
        <path class="cls-2" d="m180.94.5l-.03,27.72c1.21-.36,2.83-.66,4.86-.91,2.03-.25,3.9-.38,5.61-.38,7.33,0,13.03,2.02,17.08,6.05,4.06,4.03,6.16,9.76,6.3,17.18v34.46h-14.55v-41.1c0-3.78-1-6.72-3-8.83-2-2.1-4.5-3.16-7.49-3.16-1.64,0-3.25.48-4.82,1.44-1.57.96-2.89,2.48-3.96,4.55v47.52h-14.55V.5h14.55Z"/>
        <path class="cls-2" d="m246.86,68.46c.07,2.14.32,4.03.75,5.67.43,1.5,1.07,2.82,1.93,3.96.86,1.14,2.14,1.71,3.85,1.71.71,0,1.78-.34,3.21-1.02,1.43-.68,3.07-1.48,4.92-2.41l1.07,1.61c.28.43.61.93.96,1.5-1.93,1-3.89,1.89-5.89,2.68-1.64.71-3.51,1.34-5.62,1.87-2.1.54-4.12.8-6.05.8-1.78,0-3.52-.27-5.19-.8-1.68-.54-3.14-1.48-4.39-2.84-1.25-1.36-2.25-3.17-3-5.46-.75-2.28-1.12-5.17-1.12-8.67V31.21l-6.53-.11v-4.39h6.53v-15.62h14.55v15.62h12.31v4.39l-12.31.11v37.24Z"/>
        <path class="cls-2" d="m311.71,16.23c-2.28,0-4.23-.6-5.83-1.82-1.61-1.21-2.41-2.71-2.41-4.49s.8-3.3,2.41-4.55c1.6-1.25,3.55-1.87,5.83-1.87s4.35.63,5.99,1.87c1.64,1.25,2.46,2.77,2.46,4.55s-.82,3.28-2.46,4.49c-1.64,1.21-3.64,1.82-5.99,1.82Zm7.28,10.49v58.33h-14.55V26.72h14.55Z"/>
        <path class="cls-2" d="m362.87,25.97c7.56,0,13.34,2.07,17.34,6.21,3.99,4.14,6.17,10.13,6.53,17.98v34.57h-15.52v-42.81c0-3.78-.95-6.71-2.85-8.78-1.9-2.07-4.25-3.1-7.05-3.1s-5.24,1.04-7.1,3.1c-1.87,2.07-2.8,5-2.8,8.78v43.13h-14.55V26.72h14.55l.11,1.28c1.5-.71,3.33-1.23,5.51-1.55,2.18-.32,4.12-.48,5.83-.48Z"/>
        <path class="cls-2" d="m448.59,68.46c.07,2.14.32,4.03.75,5.67.43,1.5,1.07,2.82,1.93,3.96.86,1.14,2.14,1.71,3.85,1.71.71,0,1.78-.34,3.21-1.02,1.43-.68,3.07-1.48,4.92-2.41l1.07,1.61c.28.43.61.93.96,1.5-1.93,1-3.89,1.89-5.89,2.68-1.64.71-3.51,1.34-5.62,1.87s-4.12.8-6.05.8c-1.78,0-3.51-.27-5.19-.8-1.68-.54-3.14-1.48-4.39-2.84-1.25-1.36-2.25-3.17-3-5.46-.75-2.28-1.12-5.17-1.12-8.67V31.21l-6.53-.11v-4.39h6.53v-15.62h14.56v15.62h12.31v4.39l-12.31.11v37.24Z"/>
        <path class="cls-2" d="m489.68.5l-.03,27.72c1.21-.36,2.83-.66,4.86-.91,2.03-.25,3.9-.38,5.61-.38,7.33,0,13.03,2.02,17.08,6.05,4.06,4.03,6.16,9.76,6.3,17.18v34.46h-14.55v-41.1c0-3.78-1-6.72-3-8.83-2-2.1-4.5-3.16-7.49-3.16-1.64,0-3.25.48-4.82,1.44s-2.89,2.48-3.96,4.55v47.52h-14.55V.5h14.55Z"/>
        <path class="cls-2" d="m555.39,82.8c-2.64-1.14-5.1-2.66-7.38-4.55-2.29-1.89-4.25-4.03-5.89-6.42-1.64-2.39-2.91-4.94-3.8-7.65-.89-2.71-1.34-5.53-1.34-8.45,0-3.71.77-7.31,2.3-10.81,1.53-3.5,3.64-6.62,6.31-9.36,2.68-2.75,5.89-4.94,9.63-6.58,3.75-1.64,7.79-2.46,12.15-2.46,1.64,0,3.51.14,5.62.43,2.1.29,4.26.77,6.47,1.45,2.21.68,4.39,1.59,6.53,2.73,2.14,1.14,4.07,2.62,5.78,4.44s3.08,4.03,4.12,6.64c1.03,2.6,1.55,5.69,1.55,9.26v5.99l-43.24.21c.5,7.56,2,13.34,4.49,17.34,2.5,4,5.39,5.99,8.67,5.99,1.35,0,2.82-.09,4.39-.27,1.57-.18,3.19-.53,4.87-1.07,1.68-.54,3.37-1.32,5.08-2.35,1.71-1.03,3.39-2.41,5.03-4.12l2.68,2.78c-4.57,4.42-9.81,7.21-15.73,8.35-5.92,1.14-12.02.64-18.3-1.5Zm12.95-52.44c-4.14,0-7.35,1.89-9.63,5.67-2.28,3.78-3.78,9.2-4.49,16.27l28.15.11c0-4.42-.48-8.06-1.45-10.92-.96-2.85-2.14-5.1-3.53-6.74-1.39-1.64-2.91-2.78-4.55-3.42-1.64-.64-3.14-.96-4.5-.96Z"/>
        <path class="cls-2" d="m179.33,197.98c0,4.28-.57,8.42-1.71,12.41-1.14,4-2.84,7.53-5.08,10.59-2.25,3.07-5.08,5.53-8.51,7.38-3.42,1.85-7.49,2.78-12.2,2.78s-8.83-.87-12.79-2.62c-3.96-1.75-7.42-4.14-10.38-7.17-2.96-3.03-5.32-6.54-7.06-10.54-1.75-3.99-2.69-8.28-2.84-12.84v-38.63c0-1.5-.52-2.6-1.55-3.32-1.04-.71-2.3-1.14-3.8-1.28v-3.96c4.35-.21,8.2-.04,11.56.54,1.43.14,2.85.43,4.28.86,1.43.43,2.66.96,3.69,1.61,1.03.64,1.89,1.43,2.57,2.35.68.93,1.02,2,1.02,3.21v38.63c0,2.14.44,4.44,1.34,6.9.89,2.46,2.19,4.75,3.91,6.85,1.71,2.11,3.83,3.87,6.37,5.3,2.53,1.43,5.47,2.14,8.83,2.14s6.42-.71,8.78-2.14c2.35-1.43,4.26-3.19,5.73-5.3,1.46-2.1,2.5-4.39,3.1-6.85.6-2.46.91-4.76.91-6.9v-47.52h3.85v47.52Z"/>
        <path class="cls-2" d="m223.21,171.97c7.56,0,13.34,2.07,17.34,6.21,3.99,4.14,6.17,10.13,6.53,17.98v34.57h-15.52v-42.81c0-3.78-.95-6.71-2.85-8.78-1.9-2.07-4.25-3.1-7.05-3.1s-5.24,1.04-7.1,3.1c-1.87,2.07-2.8,5-2.8,8.78v43.13h-14.55v-58.33h14.55l.11,1.28c1.5-.71,3.33-1.23,5.51-1.55,2.18-.32,4.12-.48,5.83-.48Z"/>
        <path class="cls-2" d="m272.54,162.23c-2.28,0-4.23-.6-5.83-1.82-1.61-1.21-2.41-2.71-2.41-4.49s.8-3.3,2.41-4.55c1.6-1.25,3.55-1.87,5.83-1.87s4.35.63,5.99,1.87c1.64,1.25,2.46,2.77,2.46,4.55s-.82,3.28-2.46,4.49c-1.64,1.21-3.64,1.82-5.99,1.82Zm7.28,10.49v58.33h-14.55v-58.33h14.55Z"/>
        <path class="cls-2" d="m290.63,173.58v.32c0,.07-.04-.07-.11-.43l.21.11h-.11Zm52.33,0h9.42l-25.26,55.54h-8.03c-3.78-8.63-7.03-15.96-9.74-21.99-2.71-6.03-5.03-11.08-6.96-15.14-1.93-4.07-3.52-7.29-4.76-9.69-1.25-2.39-2.28-4.21-3.1-5.46-.82-1.25-1.52-2.07-2.09-2.46-.57-.39-1.14-.66-1.71-.8.14-.07.53-.12,1.18-.16.64-.04,1.43-.05,2.35-.05,1.5,0,3.26.07,5.3.21,2.03.14,4.07.5,6.1,1.07,2.03.57,3.94,1.38,5.73,2.41,1.78,1.04,3.14,2.41,4.07,4.12l11.45,25.47,16.05-33.07Z"/>
        <path class="cls-2" d="m376.89,228.8c-2.64-1.14-5.1-2.66-7.38-4.55-2.28-1.89-4.25-4.03-5.89-6.42-1.64-2.39-2.91-4.94-3.8-7.65-.89-2.71-1.34-5.53-1.34-8.46,0-3.71.77-7.31,2.3-10.81,1.53-3.5,3.64-6.62,6.31-9.36,2.68-2.75,5.89-4.94,9.63-6.58,3.75-1.64,7.79-2.46,12.15-2.46,1.64,0,3.51.14,5.62.43,2.1.29,4.26.77,6.47,1.44,2.21.68,4.39,1.59,6.53,2.73,2.14,1.14,4.07,2.62,5.78,4.44s3.09,4.03,4.12,6.63c1.03,2.61,1.55,5.69,1.55,9.26v5.99l-43.24.21c.5,7.56,2,13.34,4.49,17.34,2.5,4,5.39,5.99,8.67,5.99,1.35,0,2.82-.09,4.39-.27,1.57-.18,3.19-.54,4.87-1.07,1.68-.54,3.37-1.32,5.08-2.35,1.71-1.03,3.39-2.41,5.03-4.12l2.68,2.78c-4.57,4.42-9.81,7.21-15.73,8.35-5.92,1.14-12.02.64-18.3-1.5Zm12.95-52.44c-4.14,0-7.35,1.89-9.63,5.67-2.28,3.78-3.78,9.2-4.49,16.27l28.15.11c0-4.42-.48-8.06-1.44-10.92-.96-2.85-2.14-5.1-3.53-6.74-1.39-1.64-2.91-2.78-4.55-3.42-1.64-.64-3.14-.96-4.5-.96Z"/>
        <path class="cls-2" d="m459.08,172.61c1.93,0,3.75.34,5.46,1.02,1.71.68,3.25,1.48,4.6,2.41,1.36.93,2.46,1.84,3.32,2.73.86.89,1.46,1.52,1.82,1.87l-2.25,2.46c-1.29-1-2.61-1.89-3.96-2.68-1.14-.71-2.39-1.35-3.75-1.93-1.36-.57-2.6-.86-3.75-.86-1.07,0-2.27.32-3.59.96-1.32.64-2.62,1.55-3.91,2.73-1.28,1.18-2.48,2.6-3.58,4.28-1.11,1.68-1.94,3.55-2.51,5.62v40.03h-14.56v-58.43h14.56v4.39c1.64-1.29,3.48-2.37,5.51-3.26,2.03-.89,4.23-1.34,6.58-1.34Zm15.41,8.03h-.11c.14-.21.21-.34.21-.37s-.04.09-.11.37Z"/>
        <path class="cls-2" d="m523.29,204.72c3.07,2.93,4.6,6.35,4.6,10.27,0,3.5-.93,6.39-2.78,8.67-1.86,2.28-4.23,4.03-7.12,5.24-2.89,1.21-6.14,1.93-9.74,2.14-3.6.21-7.14,0-10.59-.64-3.46-.64-6.67-1.66-9.63-3.05-2.96-1.39-5.26-3.16-6.9-5.3.5-.36.82-.64.96-.86.14-.21.29-.39.43-.54.14-.14.28-.32.43-.53.14-.21.43-.5.86-.86.71.86,1.82,1.73,3.32,2.62,1.5.89,3.12,1.71,4.87,2.46,1.75.75,3.55,1.37,5.4,1.87,1.85.5,3.46.75,4.82.75,1.57,0,3.23-.46,4.98-1.39,1.75-.93,3.17-2.12,4.28-3.59,1.11-1.46,1.73-3.07,1.87-4.82.14-1.75-.68-3.48-2.46-5.19-1.28-1.28-2.91-2.42-4.87-3.42-1.96-1-4.07-1.98-6.31-2.94-2.25-.96-4.5-2-6.74-3.1-2.25-1.11-4.25-2.34-5.99-3.69-1.75-1.35-3.19-2.92-4.33-4.71-1.14-1.78-1.71-3.85-1.71-6.21,0-2.85.68-5.28,2.03-7.28,1.35-2,3.1-3.64,5.24-4.92,2.14-1.28,4.51-2.21,7.12-2.78,2.6-.57,5.19-.86,7.76-.86,1.5,0,3.12.05,4.87.16,1.75.11,3.48.32,5.19.64s3.35.8,4.92,1.45c1.57.64,3,1.5,4.28,2.57,2.07,1.93,3.21,3.67,3.42,5.24.14,1,.25,2.19.32,3.58.07,1.39.11,2.91.11,4.55h-7.38c-.36-1.85-.86-3.66-1.5-5.4-.64-1.75-1.5-3.28-2.57-4.6-1.07-1.32-2.37-2.39-3.91-3.21-1.54-.82-3.37-1.23-5.51-1.23-1.14,0-2.28.25-3.42.75-1.14.5-2.14,1.21-3,2.14-.86.93-1.54,1.96-2.03,3.1-.5,1.14-.75,2.39-.75,3.75,0,1.93.5,3.57,1.5,4.92,1,1.36,2.32,2.55,3.96,3.59,1.64,1.04,3.44,1.94,5.4,2.73,1.96.79,3.96,1.57,5.99,2.35,2.03.79,3.94,1.62,5.73,2.51,1.78.89,3.32,1.91,4.6,3.05Z"/>
        <path class="cls-2" d="m555.39,228.8c-2.64-1.14-5.1-2.66-7.38-4.55-2.28-1.89-4.25-4.03-5.89-6.42-1.64-2.39-2.91-4.94-3.8-7.65-.89-2.71-1.34-5.53-1.34-8.46,0-3.71.77-7.31,2.3-10.81,1.53-3.5,3.64-6.62,6.31-9.36,2.68-2.75,5.89-4.94,9.63-6.58,3.75-1.64,7.79-2.46,12.15-2.46,1.64,0,3.51.14,5.62.43,2.1.29,4.26.77,6.47,1.44,2.21.68,4.39,1.59,6.53,2.73,2.14,1.14,4.07,2.62,5.78,4.44,1.71,1.82,3.08,4.03,4.12,6.63,1.03,2.61,1.55,5.69,1.55,9.26v5.99l-43.24.21c.5,7.56,2,13.34,4.49,17.34,2.5,4,5.39,5.99,8.67,5.99,1.35,0,2.82-.09,4.39-.27,1.57-.18,3.19-.54,4.87-1.07,1.67-.54,3.37-1.32,5.08-2.35,1.71-1.03,3.39-2.41,5.03-4.12l2.67,2.78c-4.57,4.42-9.81,7.21-15.73,8.35-5.92,1.14-12.02.64-18.3-1.5Zm12.95-52.44c-4.14,0-7.35,1.89-9.63,5.67-2.28,3.78-3.78,9.2-4.49,16.27l28.15.11c0-4.42-.48-8.06-1.45-10.92-.96-2.85-2.14-5.1-3.53-6.74-1.39-1.64-2.91-2.78-4.55-3.42-1.64-.64-3.14-.96-4.49-.96Z"/>
      </g>
    </g>
  </g>
</svg>