<?xml version="1.0" encoding="UTF-8"?>
<svg id="_레이어_2" data-name="레이어 2" xmlns="http://www.w3.org/2000/svg" viewBox="0 0 179.45 62.48">
  <defs>
    <style>
      .cls-1 {
        fill: #333;
      }
    </style>
  </defs>
  <g id="_레이어_1-2" data-name="레이어 1">
    <g>
      <g>
        <path class="cls-1" d="m27.85,16.86l7.73,19.46c.02.1.09.22.2.38s.27.31.47.47c.19.16.44.29.73.41.29.12.63.18,1.02.18v1.05h-6.35l-2.49-6h-6.97l-2.37,6h-1.02l8.28-21.95h.76Zm.85,14.78l-3.07-7.52-2.96,7.55,6.03-.03Z"/>
        <path class="cls-1" d="m39.59,17.36h3.98v6.59c.41-.29.92-.56,1.54-.81.62-.24,1.3-.37,2.04-.37,1.15,0,2.17.23,3.05.7.88.47,1.62,1.08,2.23,1.84.61.76,1.06,1.65,1.37,2.66.3,1.02.46,2.06.46,3.13,0,1.15-.18,2.19-.54,3.12-.36.93-.88,1.71-1.56,2.36s-1.5,1.14-2.47,1.49c-.97.35-2.07.53-3.3.53-.55,0-1.07-.05-1.56-.16s-.91-.29-1.26-.54c-.1.14-.2.27-.31.41-.11.14-.21.3-.3.5h-3.37v-21.46Zm6.21,7.2c-.47,0-.89.1-1.25.29-.36.2-.69.5-.98.91v10.6c.18.35.39.62.65.82s.57.29.94.29c.82,0,1.53-.2,2.13-.59.6-.39,1.1-.89,1.5-1.51.4-.61.7-1.3.9-2.05.2-.75.29-1.49.29-2.21s-.06-1.44-.18-2.21c-.12-.77-.33-1.48-.65-2.12-.31-.64-.74-1.18-1.28-1.6-.54-.42-1.23-.63-2.07-.63Z"/>
        <path class="cls-1" d="m64.99,22.48c1.09,0,2.12.22,3.07.66s1.79,1.03,2.5,1.77c.71.74,1.27,1.61,1.68,2.6.41,1,.62,2.04.62,3.13s-.21,2.07-.62,3.04c-.41.98-.97,1.85-1.67,2.62s-1.54,1.39-2.5,1.84-2,.69-3.09.69c-1.03,0-2.03-.22-2.99-.66s-1.8-1.03-2.53-1.79c-.73-.75-1.31-1.62-1.74-2.62-.43-1-.64-2.04-.64-3.13s.21-2.07.61-3.06c.41-.99.97-1.86,1.68-2.62.71-.76,1.55-1.37,2.5-1.81.96-.45,1.99-.67,3.1-.67Zm0,15.28c1.19,0,2.12-.62,2.78-1.86.66-1.24,1-2.99,1-5.25,0-1-.09-1.92-.26-2.78-.18-.86-.42-1.61-.75-2.25-.32-.64-.72-1.15-1.19-1.51-.47-.36-1-.54-1.58-.54s-1.14.18-1.61.53c-.47.35-.86.84-1.19,1.48-.32.63-.57,1.38-.75,2.24-.18.86-.26,1.81-.26,2.84s.09,1.93.26,2.8c.17.87.42,1.62.75,2.25s.72,1.14,1.19,1.51c.47.37,1,.56,1.61.56Z"/>
        <path class="cls-1" d="m86.1,22.77h3.98v15.28h-2.93l-.9-1.64c-.2.22-.41.44-.64.67s-.49.44-.76.61c-.27.18-.59.32-.94.44-.35.12-.75.18-1.2.18-1.27,0-2.31-.18-3.12-.53-.81-.35-1.44-.83-1.9-1.43-.46-.6-.78-1.31-.95-2.11-.17-.8-.26-1.67-.26-2.6v-8.78l2.43-.03c.37,0,.65.05.85.16.19.11.34.22.44.34.1.16.16.32.18.5v7.81c0,.47.03,1.02.09,1.65.06.63.19,1.23.41,1.8.21.57.51,1.05.89,1.45.38.4.91.6,1.59.6.37,0,.73-.08,1.07-.25.34-.17.63-.4.88-.72s.44-.67.59-1.08.22-.86.22-1.35v-10.98Z"/>
        <path class="cls-1" d="m98.8,34.25c.02.59.09,1.1.21,1.55.12.41.29.77.53,1.08.23.31.59.47,1.05.47.2,0,.49-.09.88-.28s.84-.4,1.35-.66l.29.44c.08.12.17.25.26.41-.53.27-1.06.52-1.61.73-.45.19-.96.37-1.54.51-.58.15-1.13.22-1.65.22-.49,0-.96-.07-1.42-.22-.46-.15-.86-.4-1.2-.78-.34-.37-.62-.87-.82-1.49-.2-.62-.31-1.41-.31-2.37v-9.81l-1.79-.03v-1.2h1.79v-4.27h3.98v4.27h3.37v1.2l-3.37.03v10.19Z"/>
        <path class="cls-1" d="m138.58,36.62c0,.1.02.21.06.35.04.14.11.27.21.4.1.13.23.24.41.34.18.1.41.16.7.18h.09v1.08c-.17.02-.42.03-.73.03h-2.87c-.66,0-1.18-.18-1.55-.53-.37-.35-.64-.74-.82-1.17-.2-.49-.31-1.05-.35-1.7v-12.5l-5.74,15.84v.06h-4.33l-6.21-17.15v17.15h-1.08v-21.89l4.21-.03,7.14,19.38,6.97-19.38h3.89v19.55Z"/>
        <path class="cls-1" d="m148.73,38.17c-.72-.31-1.4-.73-2.02-1.24-.62-.52-1.16-1.1-1.61-1.76s-.79-1.35-1.04-2.09-.37-1.51-.37-2.31c0-1.01.21-2,.63-2.96.42-.96,1-1.81,1.73-2.56.73-.75,1.61-1.35,2.63-1.8s2.13-.67,3.32-.67c.45,0,.96.04,1.54.12.58.08,1.17.21,1.77.4.6.19,1.2.43,1.79.75.59.31,1.11.72,1.58,1.21.47.5.84,1.1,1.13,1.81.28.71.42,1.56.42,2.53v1.64l-11.83.06c.14,2.07.55,3.65,1.23,4.74.68,1.09,1.47,1.64,2.37,1.64.37,0,.77-.02,1.2-.07.43-.05.87-.15,1.33-.29.46-.15.92-.36,1.39-.64.47-.28.93-.66,1.38-1.13l.73.76c-1.25,1.21-2.68,1.97-4.3,2.28s-3.29.18-5-.41Zm3.54-14.34c-1.13,0-2.01.52-2.63,1.55-.62,1.03-1.03,2.52-1.23,4.45l7.7.03c0-1.21-.13-2.21-.4-2.99-.26-.78-.58-1.39-.97-1.84-.38-.45-.79-.76-1.24-.94-.45-.18-.86-.26-1.23-.26Z"/>
      </g>
      <path d="m179.45,31.4c-2.4,0-4.35,4.04-4.35,9.02,0-4.98-1.95-9.02-4.35-9.02,2.4,0,4.35-4.04,4.35-9.02,0,4.98,1.95,9.02,4.35,9.02Z"/>
      <path d="m8.7,31.4c-2.4,0-4.35,4.04-4.35,9.02,0-4.98-1.95-9.02-4.35-9.02,2.4,0,4.35-4.04,4.35-9.02,0,4.98,1.95,9.02,4.35,9.02Z"/>
      <path class="cls-1" d="m9.67,41.81c10.62,9.31,24.97,12.92,38.47,15.82,32.85,6.09,72.24,5.54,103.89-5.72,6.54-2.45,12.99-5.58,18.11-10.42-5.02,4.97-11.43,8.27-17.93,10.88-32.38,11.91-70.56,12.47-104.22,6.01-13.55-3.05-27.87-6.94-38.32-16.57h0Z"/>
      <path class="cls-1" d="m171.12,22.05c-9.73-9.92-25.14-13.95-38.36-16.89C99.77-1.29,59.64-.78,27.77,10.46c-6.62,2.45-13.15,5.59-18.34,10.46,5.09-5,11.58-8.31,18.17-10.92C60.29-1.9,99.02-2.4,132.92,4.4c13.5,3.2,28.39,7.27,38.2,17.64h0Z"/>
    </g>
  </g>
</svg>