<?xml version="1.0" encoding="UTF-8"?>
<svg id="_레이어_2" data-name="레이어 2" xmlns="http://www.w3.org/2000/svg" viewBox="0 0 885.5 20.4">
  <defs>
    <style>
      .cls-1 {
        fill: #333;
      }

      .cls-2 {
        fill: none;
        stroke: #000;
        stroke-miterlimit: 10;
        stroke-width: .75px;
      }
    </style>
  </defs>
  <g id="_레이어_1-2" data-name="레이어 1">
    <g>
      <g>
        <path class="cls-1" d="m37.2,19.41c.21,0,.41-.08.59-.23.18-.15.34-.35.48-.59s.27-.51.37-.81c.11-.3.2-.61.29-.93.2-.75.35-1.59.45-2.54h1.01c0,1.01-.05,1.86-.16,2.55-.11.69-.25,1.25-.43,1.7s-.37.79-.59,1.04c-.21.25-.44.43-.68.55-.24.12-.48.18-.71.2-.23.02-.45.03-.64.03h-11.77V.37h11.77c.62,0,1.08.18,1.39.55s.51.77.61,1.21c.12.5.17,1.07.13,1.71h-.99c0-.52-.05-.94-.15-1.28-.1-.34-.22-.6-.36-.77-.14-.21-.3-.36-.48-.45h-7.48v8.46h7.34v.96h-7.34v8.65h7.32Z"/>
        <path class="cls-1" d="m53.51,19.6c-.27.21-.63.36-1.08.45-.45.09-.96.13-1.51.13-1.05,0-2.02-.15-2.9-.45-.88-.3-1.64-.75-2.28-1.33s-1.13-1.3-1.48-2.15c-.35-.84-.52-1.81-.52-2.9,0-.94.12-1.87.37-2.79.25-.92.64-1.73,1.17-2.44s1.21-1.29,2.03-1.72c.82-.44,1.79-.65,2.91-.65.68,0,1.29.12,1.84.35.55.23,1.02.48,1.42.75V.8h3.63v19.57h-3.07l-.53-.77Zm.05-11.72c-.66-.5-1.25-.79-1.79-.88-.53-.09-1.02-.03-1.47.19-.45.21-.83.55-1.16,1-.33.45-.61.97-.83,1.54-.22.57-.39,1.17-.51,1.8-.12.63-.17,1.24-.17,1.83,0,.66.08,1.33.25,2,.17.68.44,1.29.8,1.86.36.56.82,1.02,1.38,1.38s1.21.53,1.98.53c.43,0,.74-.12.95-.36.2-.24.39-.57.55-1l.03-9.88Z"/>
        <path class="cls-1" d="m70.17,5.74h3.63v13.94h-2.68l-.82-1.5c-.18.2-.37.4-.59.61-.21.21-.44.4-.69.56-.25.16-.53.29-.85.4-.32.11-.69.16-1.09.16-1.16,0-2.11-.16-2.84-.48-.74-.32-1.32-.76-1.74-1.31-.42-.55-.71-1.19-.87-1.92-.16-.73-.24-1.52-.24-2.38V5.82l2.22-.03c.34,0,.6.05.77.15.18.1.31.2.4.31.09.14.14.29.16.45v7.13c0,.43.03.93.08,1.51.05.58.18,1.13.37,1.64.2.52.47.96.81,1.32.35.36.83.55,1.46.55.34,0,.66-.08.97-.23.31-.15.58-.37.8-.65.22-.28.4-.61.53-.99.13-.37.2-.78.2-1.23V5.74Z"/>
        <path class="cls-1" d="m84.67,20.37c-.94,0-1.87-.19-2.79-.56-.92-.37-1.73-.89-2.43-1.55-.7-.66-1.27-1.43-1.7-2.32-.43-.89-.64-1.86-.64-2.91,0-.46.04-.93.13-1.39.09-.46.23-.93.43-1.42.27-.64.63-1.24,1.09-1.79s1-1.02,1.6-1.42c.6-.39,1.27-.7,2-.93.73-.23,1.5-.35,2.3-.35.46,0,.94.04,1.43.12s.96.21,1.42.37c.45.17.88.38,1.28.63.4.25.75.54,1.05.88l-.03.03c.32.36.52.8.61,1.32.09.53.13.99.13,1.4v.53h-1.42c-.28-.6-.57-1.17-.87-1.68-.29-.52-.62-.97-.99-1.35-.36-.38-.76-.69-1.19-.91-.43-.22-.91-.33-1.44-.33-.57,0-1.08.2-1.52.61-.45.41-.81.93-1.11,1.55-.29.62-.52,1.3-.68,2.04-.16.74-.24,1.43-.24,2.07,0,.69.07,1.42.2,2.16.13.75.35,1.43.64,2.06.29.62.66,1.14,1.11,1.55.44.41.98.61,1.6.61.43,0,.84-.02,1.24-.07s.8-.13,1.2-.25c.4-.12.8-.3,1.2-.53.4-.23.82-.55,1.27-.96l.53.51c-.73.73-1.55,1.29-2.47,1.68-.92.39-1.91.59-2.98.59Z"/>
        <path class="cls-1" d="m98.44,5.77c1.05,0,1.93.07,2.65.2s1.32.31,1.79.52c.48.21.85.46,1.11.73.27.28.46.56.6.84.13.29.21.57.24.85.03.29.04.53.04.75v10.68h-3.13l-.53-1.36c-.57.44-1.2.78-1.9,1.01-.69.23-1.38.35-2.06.35-.62,0-1.23-.09-1.82-.28-.59-.19-1.1-.46-1.55-.83-.45-.37-.81-.82-1.08-1.38-.28-.55-.41-1.2-.41-1.95s.23-1.41.68-1.94,1.01-.95,1.67-1.28c.66-.33,1.38-.59,2.16-.79.78-.2,1.5-.34,2.15-.44.65-.1,1.18-.16,1.6-.2s.61-.08.57-.13v-1.47c-.04-.5-.18-.95-.43-1.36-.21-.34-.53-.65-.93-.93-.41-.28-1.01-.43-1.79-.43-.64,0-1.16.09-1.55.28s-.7.4-.92.65c-.22.25-.37.5-.45.76-.08.26-.13.45-.15.57h-1.84c0-.18.02-.36.05-.56.04-.18.08-.37.15-.57s.16-.42.28-.65c.14-.23.37-.45.68-.65.31-.2.68-.38,1.12-.52.44-.14.91-.26,1.42-.35.51-.09,1.03-.13,1.56-.13Zm-1.87,9.85c0,.52.07.97.21,1.35s.33.7.57.96c.24.26.52.45.83.59.31.13.64.2.97.2.36,0,.71-.1,1.07-.29.36-.2.69-.5,1.01-.91v-4.81s-.05-.07-.25-.09c-.2-.03-.49-.02-.84.03-.36.04-.74.12-1.16.23-.42.11-.81.28-1.16.51-.36.23-.65.53-.89.91-.24.37-.36.82-.36,1.33Z"/>
        <path class="cls-1" d="m112.7,16.21c.02.53.08,1.01.19,1.42.11.37.27.7.48.99.21.28.53.43.96.43.18,0,.44-.08.8-.25s.77-.37,1.23-.6l.27.4c.07.11.15.23.24.37-.48.25-.97.47-1.47.67-.41.18-.88.33-1.4.47-.52.13-1.03.2-1.51.2-.45,0-.88-.07-1.29-.2-.42-.13-.78-.37-1.09-.71-.31-.34-.56-.79-.75-1.36-.19-.57-.28-1.29-.28-2.16V6.92l-1.63-.03v-1.09h1.63V1.9h3.63v3.9h3.07v1.09l-3.07.03v9.29Z"/>
        <path class="cls-1" d="m121.4,3.18c-.57,0-1.05-.15-1.46-.45-.4-.3-.6-.68-.6-1.12s.2-.82.6-1.13c.4-.31.88-.47,1.46-.47s1.09.16,1.5.47c.41.31.61.69.61,1.13s-.21.82-.61,1.12c-.41.3-.91.45-1.5.45Zm1.82,2.62v14.55h-3.63V5.79h3.63Z"/>
        <path class="cls-1" d="m133.87,5.47c1,0,1.93.2,2.8.6.87.4,1.63.94,2.28,1.62.65.68,1.16,1.47,1.54,2.38s.56,1.86.56,2.86-.19,1.89-.56,2.78-.88,1.69-1.52,2.39c-.64.7-1.4,1.26-2.28,1.68-.88.42-1.82.63-2.82.63-.94,0-1.85-.2-2.72-.6s-1.64-.94-2.31-1.63c-.67-.69-1.2-1.48-1.59-2.39-.39-.91-.59-1.86-.59-2.86s.19-1.89.56-2.79c.37-.9.89-1.7,1.54-2.39s1.41-1.25,2.28-1.66c.87-.41,1.82-.61,2.83-.61Zm0,13.94c1.08,0,1.93-.57,2.54-1.7.6-1.13.91-2.73.91-4.79,0-.91-.08-1.75-.24-2.54-.16-.78-.39-1.47-.68-2.06-.29-.59-.65-1.05-1.08-1.38-.43-.33-.91-.49-1.44-.49s-1.04.16-1.47.48-.79.77-1.08,1.35c-.29.58-.52,1.26-.68,2.04-.16.78-.24,1.65-.24,2.59s.08,1.76.24,2.55.39,1.48.68,2.06c.29.58.65,1.04,1.08,1.38s.92.51,1.47.51Z"/>
        <path class="cls-1" d="m150.85,5.61c1.89,0,3.33.52,4.33,1.55,1,1.03,1.54,2.53,1.63,4.49v8.62h-3.87v-10.68c0-.94-.24-1.67-.71-2.19-.47-.52-1.06-.77-1.76-.77s-1.31.26-1.77.77c-.47.52-.7,1.25-.7,2.19v10.76h-3.63V5.79h3.63l.03.32c.37-.18.83-.31,1.38-.39s1.03-.12,1.46-.12Z"/>
      </g>
      <path d="m8.7,10.7c-2.4,0-4.35,4.04-4.35,9.02,0-4.98-1.95-9.02-4.35-9.02,2.4,0,4.35-4.04,4.35-9.02,0,4.98,1.95,9.02,4.35,9.02Z"/>
      <path class="cls-1" d="m182.45,10.51c221.47-.61,469.91-.62,691.38,0-221.47.62-469.91.61-691.38,0h0Z"/>
      <polygon class="cls-2" points="882.88 13.14 880.56 12.16 881.43 14.52 879.71 12.68 879.54 15.19 878.72 12.82 877.54 15.04 877.76 12.53 875.78 14.08 876.99 11.88 874.55 12.49 876.56 10.98 874.08 10.54 876.53 9.97 874.45 8.57 876.92 9.05 875.58 6.92 877.64 8.36 877.29 5.87 878.59 8.02 879.28 5.6 879.59 8.1 881.2 6.17 880.47 8.58 882.73 7.47 881.08 9.37 883.59 9.28 881.31 10.35 883.65 11.29 881.13 11.33 882.88 13.14"/>
    </g>
  </g>
</svg>