<?xml version="1.0" encoding="UTF-8"?>
<svg id="_레이어_2" data-name="레이어 2" xmlns="http://www.w3.org/2000/svg" viewBox="0 0 884.19 21.47">
  <defs>
    <style>
      .cls-1 {
        fill: #333;
      }

      .cls-2 {
        fill: none;
        stroke: #000;
        stroke-miterlimit: 10;
        stroke-width: .75px;
      }
    </style>
  </defs>
  <g id="_레이어_1-2" data-name="레이어 1">
    <g>
      <g>
        <path class="cls-1" d="m30.95,21.47c-.57,0-1.25-.06-2.04-.17-.79-.12-1.55-.33-2.27-.64-.72-.31-1.34-.72-1.86-1.23-.52-.51-.79-1.14-.83-1.91v-3.52h.93c.07,1.09.31,2.06.71,2.94s.92,1.6,1.55,2.18,1.36.98,2.19,1.21c.83.23,1.71.24,2.66.03.43-.12.8-.4,1.12-.81s.55-.89.69-1.43c.14-.53.18-1.07.11-1.62s-.28-1.01-.61-1.4c-.12-.14-.28-.29-.47-.45-.19-.16-.49-.38-.89-.65-.41-.28-.97-.63-1.67-1.05s-1.62-.97-2.74-1.63c-.5-.3-.96-.63-1.39-.97-.43-.35-.81-.74-1.13-1.17s-.59-.92-.77-1.44c-.19-.52-.28-1.1-.28-1.72,0-.8.17-1.53.49-2.19s.77-1.22,1.32-1.68,1.19-.82,1.91-1.08c.72-.26,1.48-.39,2.28-.39.59,0,1.25.06,2,.19.75.12,1.46.34,2.15.64.69.3,1.27.7,1.75,1.2.48.5.74,1.12.77,1.87v3.52h-.99c-.11-.55-.22-1.1-.35-1.66-.12-.55-.27-1.07-.44-1.55-.17-.48-.35-.9-.55-1.25-.2-.36-.39-.63-.59-.83-.29-.25-.64-.47-1.07-.65-.43-.19-.89-.32-1.38-.41s-.98-.12-1.48-.11c-.5.02-.95.11-1.35.27s-.73.4-.97.73c-.25.33-.37.74-.37,1.24s.12.99.35,1.43c.23.44.51.83.83,1.17s.65.64.97.88c.33.24.6.41.81.52.57.34,1.21.69,1.92,1.05.71.36,1.41.77,2.08,1.23.68.45,1.29.95,1.84,1.5.55.54.95,1.15,1.2,1.83.32,1.1.4,2.14.23,3.1-.17.96-.54,1.81-1.11,2.54-.57.73-1.31,1.3-2.22,1.72-.91.42-1.93.64-3.07.65Z"/>
        <path class="cls-1" d="m41.15,0h3.63v11.48c.44-.68.89-1.33,1.32-1.96.44-.63.89-1.29,1.35-1.96.21-.23.45-.44.72-.61.23-.16.5-.31.81-.44.31-.13.64-.2,1-.2h3.18v.75h-.59c-.34,0-.65.08-.93.23-.28.15-.63.46-1.04.92s-.93,1.13-1.58,2-1.47,2.03-2.48,3.47v.29l3.74,5.23c.2.23.5.48.92.75.42.27.96.4,1.62.4h.59v.75h-3.42c-.36,0-.68-.04-.97-.13-.29-.09-.55-.2-.76-.32-.21-.12-.39-.24-.52-.33-.13-.1-.22-.17-.25-.23l-2.7-3.92v4.94h-3.63V0Z"/>
        <path class="cls-1" d="m58.4,3.92c-.57,0-1.05-.15-1.46-.45-.4-.3-.6-.68-.6-1.12s.2-.82.6-1.13c.4-.31.88-.47,1.46-.47s1.09.16,1.5.47c.41.31.61.69.61,1.13s-.21.82-.61,1.12c-.41.3-.91.45-1.5.45Zm1.82,2.62v14.55h-3.63V6.54h3.63Z"/>
        <path class="cls-1" d="m63.39.96v-.96h5.31v21.09h-3.63V.96h-1.68Z"/>
        <path class="cls-1" d="m71.91.96v-.96h5.31v21.09h-3.63V.96h-1.68Z"/>
        <path class="cls-1" d="m91.08,14.52c.77.73,1.15,1.58,1.15,2.56,0,.87-.23,1.59-.69,2.16s-1.05,1.01-1.78,1.31-1.53.48-2.43.53c-.9.05-1.78,0-2.64-.16s-1.66-.41-2.4-.76c-.74-.35-1.31-.79-1.72-1.32.12-.09.21-.16.24-.21.04-.05.07-.1.11-.13.04-.04.07-.08.11-.13.04-.05.11-.12.21-.21.18.21.45.43.83.65.37.22.78.43,1.21.61.44.19.89.34,1.35.47s.86.19,1.2.19c.39,0,.81-.12,1.24-.35.44-.23.79-.53,1.07-.89.28-.36.43-.77.47-1.2.04-.44-.17-.87-.61-1.29-.32-.32-.73-.6-1.21-.85-.49-.25-1.01-.49-1.58-.73-.56-.24-1.12-.5-1.68-.77s-1.06-.58-1.5-.92c-.44-.34-.8-.73-1.08-1.17-.29-.44-.43-.96-.43-1.55,0-.71.17-1.32.51-1.82.34-.5.77-.91,1.31-1.23.53-.32,1.12-.55,1.78-.69.65-.14,1.29-.21,1.94-.21.37,0,.78.01,1.21.04.44.03.87.08,1.29.16.43.08.84.2,1.23.36s.75.37,1.07.64c.52.48.8.92.85,1.31.04.25.06.55.08.89s.03.73.03,1.13h-1.84c-.09-.46-.21-.91-.37-1.35s-.37-.82-.64-1.15c-.27-.33-.59-.6-.97-.8-.38-.2-.84-.31-1.38-.31-.29,0-.57.06-.85.19-.29.12-.53.3-.75.53-.21.23-.38.49-.51.77-.12.29-.19.6-.19.93,0,.48.12.89.37,1.23.25.34.58.64.99.89.41.26.86.49,1.35.68.49.2.99.39,1.5.59.51.2.98.41,1.43.63s.83.48,1.15.76Z"/>
      </g>
      <path d="m8.7,11.44c-2.4,0-4.35,4.04-4.35,9.02,0-4.98-1.95-9.02-4.35-9.02,2.4,0,4.35-4.04,4.35-9.02,0,4.98,1.95,9.02,4.35,9.02Z"/>
      <path class="cls-1" d="m111.45,11.64c243.89-.61,517.47-.62,761.35,0-243.89.62-517.47.61-761.35,0h0Z"/>
      <polygon class="cls-2" points="881.58 14.65 879.26 13.67 880.12 16.03 878.41 14.19 878.23 16.7 877.41 14.33 876.23 16.55 876.45 14.04 874.47 15.59 875.69 13.39 873.25 14 875.26 12.49 872.78 12.05 875.23 11.48 873.14 10.08 875.61 10.56 874.28 8.43 876.34 9.87 875.99 7.38 877.28 9.53 877.98 7.11 878.28 9.61 879.9 7.68 879.17 10.09 881.42 8.98 879.78 10.88 882.29 10.79 880.01 11.86 882.34 12.8 879.83 12.84 881.58 14.65"/>
    </g>
  </g>
</svg>