<?xml version="1.0" encoding="UTF-8"?>
<svg id="_레이어_2" data-name="레이어 2" xmlns="http://www.w3.org/2000/svg" viewBox="0 0 469.32 20.02">
  <defs>
    <style>
      .cls-1 {
        fill: #333;
      }

      .cls-2 {
        fill: none;
        stroke: #000;
        stroke-miterlimit: 10;
        stroke-width: .75px;
      }
    </style>
  </defs>
  <g id="_레이어_1-2" data-name="레이어 1">
    <g>
      <g>
        <path class="cls-1" d="m37.39.8c.59.25,1.09.56,1.51.92.42.37.84.79,1.27,1.27.32.37.56.77.71,1.17s.26.79.33,1.15c.05.41.08.82.08,1.23h-.99c-.34-.78-.72-1.52-1.13-2.2-.42-.69-.89-1.28-1.43-1.79-.53-.51-1.13-.9-1.78-1.19-.65-.28-1.38-.43-2.18-.43-.75,0-1.45.26-2.1.77-.65.52-1.22,1.19-1.72,2.03-.5.84-.89,1.8-1.16,2.88-.28,1.09-.41,2.21-.41,3.36,0,1.23.14,2.39.41,3.47.28,1.09.66,2.04,1.16,2.87.5.83,1.07,1.49,1.72,1.98s1.35.73,2.1.73c.91,0,1.68-.08,2.32-.23.64-.15,1.21-.36,1.71-.64.5-.28.95-.6,1.35-.99s.83-.81,1.29-1.29l.67.67c-.12.18-.26.34-.4.48-.48.46-.97.88-1.48,1.24-.51.36-1.05.67-1.64.92-1.23.53-2.5.8-3.82.8s-2.59-.27-3.82-.8c-.57-.25-1.11-.56-1.63-.92-.52-.36-1.01-.78-1.47-1.24-.87-.91-1.56-1.97-2.06-3.18-.5-1.19-.75-2.48-.75-3.87s.25-2.66.75-3.87c.48-1.17,1.17-2.22,2.06-3.15.91-.94,1.94-1.66,3.1-2.16,1.23-.53,2.5-.8,3.82-.8.68,0,1.29.06,1.86.19.56.12,1.14.33,1.75.61Z"/>
        <path class="cls-1" d="m49.77,5.39c1.05,0,1.93.07,2.65.2s1.32.31,1.79.52c.48.21.85.46,1.11.73.27.28.46.56.6.84.13.29.21.57.24.85.03.29.04.53.04.75v10.68h-3.13l-.53-1.36c-.57.44-1.2.78-1.9,1.01-.69.23-1.38.35-2.06.35-.62,0-1.23-.09-1.82-.28-.59-.19-1.1-.46-1.55-.83-.45-.37-.81-.82-1.08-1.38-.28-.55-.41-1.2-.41-1.95s.23-1.41.68-1.94,1.01-.95,1.67-1.28c.66-.33,1.38-.59,2.16-.79.78-.2,1.5-.34,2.15-.44.65-.1,1.18-.16,1.6-.2s.61-.08.57-.13v-1.47c-.04-.5-.18-.95-.43-1.36-.21-.34-.53-.65-.93-.93-.41-.28-1.01-.43-1.79-.43-.64,0-1.16.09-1.55.28s-.7.4-.92.65c-.22.25-.37.5-.45.76-.08.26-.13.45-.15.57h-1.84c0-.18.02-.36.05-.56.04-.18.08-.37.15-.57s.16-.42.28-.65c.14-.23.37-.45.68-.65.31-.2.68-.38,1.12-.52.44-.14.91-.26,1.42-.35.51-.09,1.03-.13,1.56-.13Zm-1.87,9.85c0,.52.07.97.21,1.35s.33.7.57.96c.24.26.52.45.83.59.31.13.64.2.97.2.36,0,.71-.1,1.07-.29.36-.2.69-.5,1.01-.91v-4.81s-.05-.07-.25-.09c-.2-.03-.49-.02-.84.03-.36.04-.74.12-1.16.23-.42.11-.81.28-1.16.51-.36.23-.65.53-.89.91-.24.37-.36.82-.36,1.33Z"/>
        <path class="cls-1" d="m67.07,5.39c.48,0,.93.08,1.36.25.43.17.81.37,1.15.6s.61.46.83.68c.21.22.36.38.45.47l-.56.61c-.32-.25-.65-.47-.99-.67-.29-.18-.6-.34-.93-.48-.34-.14-.65-.21-.93-.21-.27,0-.57.08-.89.24s-.65.39-.97.68c-.32.29-.62.65-.89,1.07-.28.42-.49.89-.63,1.4v9.99h-3.63V5.45h3.63v1.09c.41-.32.87-.59,1.38-.81.51-.22,1.05-.33,1.64-.33Zm3.84,2h-.03c.04-.05.05-.08.05-.09,0,0,0,.02-.03.09Z"/>
        <path class="cls-1" d="m77.33,19.41c-.66-.28-1.27-.66-1.84-1.13-.57-.47-1.06-1.01-1.47-1.6-.41-.6-.73-1.23-.95-1.91-.22-.68-.33-1.38-.33-2.11,0-.93.19-1.82.57-2.7s.91-1.65,1.58-2.34c.67-.69,1.47-1.23,2.4-1.64.93-.41,1.94-.61,3.03-.61.41,0,.88.04,1.4.11.52.07,1.06.19,1.62.36.55.17,1.09.4,1.63.68.53.29,1.01.65,1.44,1.11.43.45.77,1.01,1.03,1.66.26.65.39,1.42.39,2.31v1.5l-10.79.05c.12,1.89.5,3.33,1.12,4.33s1.34,1.5,2.16,1.5c.34,0,.7-.02,1.09-.07.39-.04.8-.13,1.21-.27.42-.13.84-.33,1.27-.59.43-.26.85-.6,1.25-1.03l.67.69c-1.14,1.1-2.45,1.8-3.92,2.08-1.48.28-3,.16-4.57-.37Zm3.23-13.08c-1.03,0-1.83.47-2.4,1.42s-.94,2.3-1.12,4.06l7.02.03c0-1.1-.12-2.01-.36-2.72-.24-.71-.53-1.27-.88-1.68-.35-.41-.73-.69-1.13-.85s-.78-.24-1.12-.24Z"/>
        <path class="cls-1" d="m94.74,19.41c-.66-.28-1.27-.66-1.84-1.13-.57-.47-1.06-1.01-1.47-1.6-.41-.6-.73-1.23-.95-1.91-.22-.68-.33-1.38-.33-2.11,0-.93.19-1.82.57-2.7s.91-1.65,1.58-2.34c.67-.69,1.47-1.23,2.4-1.64.93-.41,1.94-.61,3.03-.61.41,0,.88.04,1.4.11.52.07,1.06.19,1.62.36.55.17,1.09.4,1.63.68.53.29,1.01.65,1.44,1.11.43.45.77,1.01,1.03,1.66.26.65.39,1.42.39,2.31v1.5l-10.79.05c.12,1.89.5,3.33,1.12,4.33s1.34,1.5,2.16,1.5c.34,0,.7-.02,1.09-.07.39-.04.8-.13,1.21-.27.42-.13.84-.33,1.27-.59.43-.26.85-.6,1.25-1.03l.67.69c-1.14,1.1-2.45,1.8-3.92,2.08-1.48.28-3,.16-4.57-.37Zm3.23-13.08c-1.03,0-1.83.47-2.4,1.42s-.94,2.3-1.12,4.06l7.02.03c0-1.1-.12-2.01-.36-2.72-.24-.71-.53-1.27-.88-1.68-.35-.41-.73-.69-1.13-.85s-.78-.24-1.12-.24Z"/>
        <path class="cls-1" d="m115.24,5.39c.48,0,.93.08,1.36.25.43.17.81.37,1.15.6s.61.46.83.68c.21.22.36.38.45.47l-.56.61c-.32-.25-.65-.47-.99-.67-.29-.18-.6-.34-.93-.48-.34-.14-.65-.21-.93-.21-.27,0-.57.08-.89.24s-.65.39-.97.68c-.32.29-.62.65-.89,1.07-.28.42-.49.89-.63,1.4v9.99h-3.63V5.45h3.63v1.09c.41-.32.87-.59,1.38-.81.51-.22,1.05-.33,1.64-.33Zm3.84,2h-.03c.04-.05.05-.08.05-.09,0,0,0,.02-.03.09Z"/>
      </g>
      <path d="m8.7,10.32c-2.4,0-4.35,4.04-4.35,9.02,0-4.98-1.95-9.02-4.35-9.02,2.4,0,4.35-4.04,4.35-9.02,0,4.98,1.95,9.02,4.35,9.02Z"/>
      <path class="cls-1" d="m133.97,10.9c103.62-.61,219.87-.62,323.49,0-103.62.62-219.87.61-323.49,0h0Z"/>
      <polygon class="cls-2" points="466.71 13.53 464.39 12.55 465.25 14.91 463.54 13.07 463.36 15.58 462.54 13.2 461.37 15.42 461.58 12.92 459.6 14.47 460.82 12.27 458.38 12.88 460.39 11.36 457.91 10.93 460.36 10.36 458.28 8.96 460.74 9.44 459.41 7.31 461.47 8.75 461.12 6.26 462.42 8.41 463.11 5.99 463.42 8.49 465.03 6.56 464.3 8.97 466.56 7.86 464.91 9.76 467.42 9.67 465.14 10.74 467.47 11.68 464.96 11.72 466.71 13.53"/>
    </g>
  </g>
</svg>