<?xml version="1.0" encoding="UTF-8"?>
<svg id="_레이어_2" data-name="레이어 2" xmlns="http://www.w3.org/2000/svg" viewBox="0 0 469.69 20.83">
  <defs>
    <style>
      .cls-1 {
        fill: #333;
      }

      .cls-2 {
        fill: none;
        stroke: #000;
        stroke-miterlimit: 10;
        stroke-width: .75px;
      }
    </style>
  </defs>
  <g id="_레이어_1-2" data-name="레이어 1">
    <g>
      <g>
        <path class="cls-1" d="m37.39,1.6c.59.25,1.09.56,1.51.92.42.37.84.79,1.27,1.27.32.37.56.77.71,1.17s.26.79.33,1.15c.05.41.08.82.08,1.23h-.99c-.34-.78-.72-1.52-1.13-2.2-.42-.69-.89-1.28-1.43-1.79-.53-.51-1.13-.9-1.78-1.19-.65-.28-1.38-.43-2.18-.43-.75,0-1.45.26-2.1.77-.65.52-1.22,1.19-1.72,2.03-.5.84-.89,1.8-1.16,2.88-.28,1.09-.41,2.21-.41,3.36,0,1.23.14,2.39.41,3.47.28,1.09.66,2.04,1.16,2.87.5.83,1.07,1.49,1.72,1.98s1.35.73,2.1.73c.91,0,1.68-.08,2.32-.23.64-.15,1.21-.36,1.71-.64.5-.28.95-.6,1.35-.99s.83-.81,1.29-1.29l.67.67c-.12.18-.26.34-.4.48-.48.46-.97.88-1.48,1.24-.51.36-1.05.67-1.64.92-1.23.53-2.5.8-3.82.8s-2.59-.27-3.82-.8c-.57-.25-1.11-.56-1.63-.92-.52-.36-1.01-.78-1.47-1.24-.87-.91-1.56-1.97-2.06-3.18-.5-1.19-.75-2.48-.75-3.87s.25-2.66.75-3.87c.48-1.17,1.17-2.22,2.06-3.15.91-.94,1.94-1.66,3.1-2.16,1.23-.53,2.5-.8,3.82-.8.68,0,1.29.06,1.86.19.56.12,1.14.33,1.75.61Z"/>
        <path class="cls-1" d="m48.47,20.21c-.66-.28-1.27-.66-1.84-1.13-.57-.47-1.06-1.01-1.47-1.6-.41-.6-.73-1.23-.95-1.91-.22-.68-.33-1.38-.33-2.11,0-.93.19-1.82.57-2.7s.91-1.65,1.58-2.34c.67-.69,1.47-1.23,2.4-1.64.93-.41,1.94-.61,3.03-.61.41,0,.88.04,1.4.11.52.07,1.06.19,1.62.36.55.17,1.09.4,1.63.68.53.29,1.01.65,1.44,1.11.43.45.77,1.01,1.03,1.66.26.65.39,1.42.39,2.31v1.5l-10.79.05c.12,1.89.5,3.33,1.12,4.33s1.34,1.5,2.16,1.5c.34,0,.7-.02,1.09-.07.39-.04.8-.13,1.21-.27.42-.13.84-.33,1.27-.59.43-.26.85-.6,1.25-1.03l.67.69c-1.14,1.1-2.45,1.8-3.92,2.08-1.48.28-3,.16-4.57-.37Zm3.23-13.08c-1.03,0-1.83.47-2.4,1.42s-.94,2.3-1.12,4.06l7.02.03c0-1.1-.12-2.01-.36-2.72-.24-.71-.53-1.27-.88-1.68-.35-.41-.73-.69-1.13-.85s-.78-.24-1.12-.24Z"/>
        <path class="cls-1" d="m68.97,6.19c.48,0,.93.08,1.36.25.43.17.81.37,1.15.6s.61.46.83.68c.21.22.36.38.45.47l-.56.61c-.32-.25-.65-.47-.99-.67-.29-.18-.6-.34-.93-.48-.34-.14-.65-.21-.93-.21-.27,0-.57.08-.89.24s-.65.39-.97.68c-.32.29-.62.65-.89,1.07-.28.42-.49.89-.63,1.4v9.99h-3.63V6.25h3.63v1.09c.41-.32.87-.59,1.38-.81.51-.22,1.05-.33,1.64-.33Zm3.84,2h-.03c.04-.05.05-.08.05-.09,0,0,0,.02-.03.09Z"/>
        <path class="cls-1" d="m79.28,16.63c.02.53.08,1.01.19,1.42.11.37.27.7.48.99.21.28.53.43.96.43.18,0,.44-.08.8-.25s.77-.37,1.23-.6l.27.4c.07.11.15.23.24.37-.48.25-.97.47-1.47.67-.41.18-.88.33-1.4.47-.52.13-1.03.2-1.51.2-.45,0-.88-.07-1.29-.2-.42-.13-.78-.37-1.09-.71-.31-.34-.56-.79-.75-1.36-.19-.57-.28-1.29-.28-2.16V7.34l-1.63-.03v-1.09h1.63v-3.9h3.63v3.9h3.07v1.09l-3.07.03v9.29Z"/>
        <path class="cls-1" d="m87.98,3.6c-.57,0-1.05-.15-1.46-.45-.4-.3-.6-.68-.6-1.12s.2-.82.6-1.13c.4-.31.88-.47,1.46-.47s1.09.16,1.5.47c.41.31.61.69.61,1.13s-.21.82-.61,1.12c-.41.3-.91.45-1.5.45Zm1.82,2.62v14.55h-3.63V6.22h3.63Z"/>
        <path class="cls-1" d="m94.87,7.88h-2.19v-1.04h2.19v-2.43c0-.85.1-1.57.29-2.14.19-.57.45-1.02.77-1.36.32-.34.68-.57,1.09-.71.41-.13.84-.2,1.3-.2s.96.06,1.44.17.91.25,1.29.4c.38.15.71.3.99.45.28.15.48.26.6.33l-.45.85c-.5-.3-.89-.51-1.19-.61s-.55-.16-.76-.16c-.41,0-.73.17-.96.51-.23.34-.41.77-.52,1.28-.12.52-.19,1.09-.21,1.74-.03.64-.04,1.26-.04,1.87h3.42v1.04h-3.42v12.82h-3.63V7.88Z"/>
        <path class="cls-1" d="m107.36,3.6c-.57,0-1.05-.15-1.46-.45-.4-.3-.6-.68-.6-1.12s.2-.82.6-1.13c.4-.31.88-.47,1.46-.47s1.09.16,1.5.47c.41.31.61.69.61,1.13s-.21.82-.61,1.12c-.41.3-.91.45-1.5.45Zm1.82,2.62v14.55h-3.63V6.22h3.63Z"/>
        <path class="cls-1" d="m120.2,20.8c-.94,0-1.87-.19-2.79-.56-.92-.37-1.73-.89-2.43-1.55-.7-.66-1.27-1.43-1.7-2.32-.43-.89-.64-1.86-.64-2.91,0-.46.04-.93.13-1.39.09-.46.23-.93.43-1.42.27-.64.63-1.24,1.09-1.79s1-1.02,1.6-1.42c.6-.39,1.27-.7,2-.93.73-.23,1.5-.35,2.3-.35.46,0,.94.04,1.43.12s.96.21,1.42.37c.45.17.88.38,1.28.63.4.25.75.54,1.05.88l-.03.03c.32.36.52.8.61,1.32.09.53.13.99.13,1.4v.53h-1.42c-.28-.6-.57-1.17-.87-1.68-.29-.52-.62-.97-.99-1.35-.36-.38-.76-.69-1.19-.91-.43-.22-.91-.33-1.44-.33-.57,0-1.08.2-1.52.61-.45.41-.81.93-1.11,1.55-.29.62-.52,1.3-.68,2.04-.16.74-.24,1.43-.24,2.07,0,.69.07,1.42.2,2.16.13.75.35,1.43.64,2.06.29.62.66,1.14,1.11,1.55.44.41.98.61,1.6.61.43,0,.84-.02,1.24-.07s.8-.13,1.2-.25c.4-.12.8-.3,1.2-.53.4-.23.82-.55,1.27-.96l.53.51c-.73.73-1.55,1.29-2.47,1.68-.92.39-1.91.59-2.98.59Z"/>
        <path class="cls-1" d="m133.98,6.19c1.05,0,1.93.07,2.65.2s1.32.31,1.79.52c.48.21.85.46,1.11.73.27.28.46.56.6.84.13.29.21.57.24.85.03.29.04.53.04.75v10.68h-3.13l-.53-1.36c-.57.44-1.2.78-1.9,1.01-.69.23-1.38.35-2.06.35-.62,0-1.23-.09-1.82-.28-.59-.19-1.1-.46-1.55-.83-.45-.37-.81-.82-1.08-1.38-.28-.55-.41-1.2-.41-1.95s.23-1.41.68-1.94,1.01-.95,1.67-1.28c.66-.33,1.38-.59,2.16-.79.78-.2,1.5-.34,2.15-.44.65-.1,1.18-.16,1.6-.2s.61-.08.57-.13v-1.47c-.04-.5-.18-.95-.43-1.36-.21-.34-.53-.65-.93-.93-.41-.28-1.01-.43-1.79-.43-.64,0-1.16.09-1.55.28s-.7.4-.92.65c-.22.25-.37.5-.45.76-.08.26-.13.45-.15.57h-1.84c0-.18.02-.36.05-.56.04-.18.08-.37.15-.57s.16-.42.28-.65c.14-.23.37-.45.68-.65.31-.2.68-.38,1.12-.52.44-.14.91-.26,1.42-.35.51-.09,1.03-.13,1.56-.13Zm-1.87,9.85c0,.52.07.97.21,1.35s.33.7.57.96c.24.26.52.45.83.59.31.13.64.2.97.2.36,0,.71-.1,1.07-.29.36-.2.69-.5,1.01-.91v-4.81s-.05-.07-.25-.09c-.2-.03-.49-.02-.84.03-.36.04-.74.12-1.16.23-.42.11-.81.28-1.16.51-.36.23-.65.53-.89.91-.24.37-.36.82-.36,1.33Z"/>
        <path class="cls-1" d="m148.24,16.63c.02.53.08,1.01.19,1.42.11.37.27.7.48.99.21.28.53.43.96.43.18,0,.44-.08.8-.25s.77-.37,1.23-.6l.27.4c.07.11.15.23.24.37-.48.25-.97.47-1.47.67-.41.18-.88.33-1.4.47-.52.13-1.03.2-1.51.2-.45,0-.88-.07-1.29-.2-.42-.13-.78-.37-1.09-.71-.31-.34-.56-.79-.75-1.36-.19-.57-.28-1.29-.28-2.16V7.34l-1.63-.03v-1.09h1.63v-3.9h3.63v3.9h3.07v1.09l-3.07.03v9.29Z"/>
        <path class="cls-1" d="m158.49,20.21c-.66-.28-1.27-.66-1.84-1.13-.57-.47-1.06-1.01-1.47-1.6-.41-.6-.73-1.23-.95-1.91-.22-.68-.33-1.38-.33-2.11,0-.93.19-1.82.57-2.7s.91-1.65,1.58-2.34c.67-.69,1.47-1.23,2.4-1.64.93-.41,1.94-.61,3.03-.61.41,0,.88.04,1.4.11.52.07,1.06.19,1.62.36.55.17,1.09.4,1.63.68.53.29,1.01.65,1.44,1.11.43.45.77,1.01,1.03,1.66.26.65.39,1.42.39,2.31v1.5l-10.79.05c.12,1.89.5,3.33,1.12,4.33s1.34,1.5,2.16,1.5c.34,0,.7-.02,1.09-.07.39-.04.8-.13,1.21-.27.42-.13.84-.33,1.27-.59.43-.26.85-.6,1.25-1.03l.67.69c-1.14,1.1-2.45,1.8-3.92,2.08-1.48.28-3,.16-4.57-.37Zm3.23-13.08c-1.03,0-1.83.47-2.4,1.42s-.94,2.3-1.12,4.06l7.02.03c0-1.1-.12-2.01-.36-2.72-.24-.71-.53-1.27-.88-1.68-.35-.41-.73-.69-1.13-.85s-.78-.24-1.12-.24Z"/>
      </g>
      <path d="m8.7,11.12c-2.4,0-4.35,4.04-4.35,9.02,0-4.98-1.95-9.02-4.35-9.02,2.4,0,4.35-4.04,4.35-9.02,0,4.98,1.95,9.02,4.35,9.02Z"/>
      <path d="m8.7,11.12c-2.4,0-4.35,4.04-4.35,9.02,0-4.98-1.95-9.02-4.35-9.02,2.4,0,4.35-4.04,4.35-9.02,0,4.98,1.95,9.02,4.35,9.02Z"/>
      <path class="cls-1" d="m182.06,11.7c88.46-.61,187.7-.62,276.17,0-88.46.62-187.7.61-276.17,0h0Z"/>
      <polygon class="cls-2" points="467.07 14.33 464.76 13.35 465.62 15.71 463.9 13.87 463.73 16.38 462.91 14.01 461.73 16.23 461.95 13.72 459.97 15.27 461.18 13.07 458.75 13.68 460.75 12.17 458.28 11.73 460.73 11.16 458.64 9.76 461.11 10.24 459.77 8.11 461.83 9.55 461.48 7.06 462.78 9.21 463.47 6.79 463.78 9.29 465.39 7.36 464.66 9.77 466.92 8.66 465.27 10.56 467.78 10.47 465.51 11.54 467.84 12.48 465.32 12.52 467.07 14.33"/>
    </g>
  </g>
</svg>