<?xml version="1.0" encoding="UTF-8"?>
<svg id="_레이어_2" data-name="레이어 2" xmlns="http://www.w3.org/2000/svg" viewBox="0 0 644.59 482.88">
  <defs>
    <style>
      .cls-1 {
        fill: #333;
      }
    </style>
  </defs>
  <g id="_레이어_1-2" data-name="레이어 1">
    <g>
      <path class="cls-1" d="m135.52,482.88c-7.14,0-14.1-.15-20.88-.44-65.83-2.85-106.08-19.36-113.34-46.46-7.26-27.11,19.35-61.52,74.93-96.91,55.5-35.34,133.27-67.45,218.99-90.41,85.72-22.97,169.11-34.05,234.86-31.2,65.83,2.85,106.08,19.36,113.34,46.46,7.26,27.11-19.35,61.52-74.93,96.91-55.5,35.34-133.27,67.45-218.99,90.41-76.88,20.6-151.9,31.64-213.98,31.64ZM509.18,217.52c-62.03,0-137.01,11.03-213.85,31.62C118.57,296.5-13.12,380.26,1.78,435.85c3.63,13.56,15.61,24.47,35.6,32.41,19.36,7.69,45.36,12.3,77.28,13.68,65.69,2.85,149.04-8.22,234.71-31.18,176.77-47.36,308.46-131.12,293.56-186.71-3.63-13.56-15.61-24.47-35.6-32.41-19.36-7.69-45.36-12.3-77.28-13.68-6.77-.29-13.73-.44-20.86-.44Z"/>
      <path class="cls-1" d="m135.4,373.52c-7.14,0-14.1-.15-20.88-.44-65.83-2.85-106.08-19.36-113.34-46.46-7.26-27.11,19.35-61.52,74.93-96.91,55.5-35.34,133.27-67.45,218.99-90.41,85.72-22.97,169.12-34.05,234.86-31.2,65.83,2.85,106.08,19.36,113.34,46.46,7.26,27.11-19.35,61.52-74.93,96.91-55.5,35.34-133.27,67.45-218.99,90.41-76.88,20.6-151.9,31.64-213.98,31.64ZM1.66,326.49c3.63,13.56,15.61,24.47,35.6,32.41,19.36,7.69,45.36,12.3,77.28,13.68,65.69,2.85,149.04-8.22,234.71-31.18,176.77-47.36,308.46-131.12,293.56-186.71-14.9-55.59-170.82-62.28-347.59-14.91C118.45,187.15-13.24,270.91,1.66,326.49Z"/>
      <path class="cls-1" d="m135.4,265.86c-7.14,0-14.1-.15-20.88-.44-65.83-2.85-106.08-19.36-113.34-46.46-7.26-27.11,19.35-61.52,74.93-96.91,55.5-35.34,133.27-67.45,218.99-90.41C380.81,8.67,464.22-2.41,529.95.44c65.83,2.85,106.08,19.36,113.34,46.46,7.26,27.11-19.35,61.52-74.93,96.91-55.5,35.34-133.27,67.45-218.99,90.41-76.88,20.6-151.9,31.64-213.98,31.64ZM509.31.54c-60,0-134.95,10.37-214.09,31.58C118.45,79.48-13.24,163.24,1.66,218.83c3.63,13.56,15.61,24.47,35.6,32.41,19.36,7.69,45.36,12.3,77.28,13.68,65.69,2.85,149.04-8.22,234.71-31.18,176.77-47.36,308.46-131.12,293.56-186.71C634.58,16.33,583.33.54,509.31.54Z"/>
    </g>
  </g>
</svg>