<?xml version="1.0" encoding="UTF-8"?>
<svg id="_레이어_2" data-name="레이어 2" xmlns="http://www.w3.org/2000/svg" viewBox="0 0 211.91 46.16">
  <defs>
    <style>
      .cls-1 {
        fill: #333;
      }
    </style>
  </defs>
  <g id="_레이어_1-2" data-name="레이어 1">
    <g>
      <g>
        <path d="m54.86,10.04c0,.48-.16.86-.47,1.16-.11.09-.21.18-.32.27l.81.07v5.92c0,.48-.18.86-.55,1.16-.37.3-.77.52-1.2.67-.51.18-1.1.31-1.75.4v-1.07h-7.62c-.25.22-.55.41-.88.55-.33.14-.65.25-.95.32-.36.09-.72.16-1.09.2v-7.38l-1.23-.13c-.06,0-.11-.02-.15-.07-.04-.04-.06-.09-.06-.13,0-.15.07-.22.22-.22h.02l4.67.45v1.43h7.06v-1.99l-1.23-.13c-.06,0-.11-.02-.16-.07-.03-.03-.04-.06-.04-.09-.27.21-.56.38-.87.51-.45.18-.95.31-1.52.4v-2.86h-.58c-.13.25-.32.46-.57.6-.25.15-.52.22-.82.22-.43,0-.8-.15-1.11-.46-.31-.31-.46-.67-.46-1.11h3.53v-1.1c-.4.07-.87.13-1.41.17-.54.04-1.16.06-1.88.06h-.6v1.56c0,.48-.17.86-.51,1.15s-.71.52-1.12.68c-.49.18-1.04.31-1.63.4v-3.8h-1.97l-1.32.58-1.32-.58v-.45h9.46c.49-.03.92-.06,1.3-.09l1.01-.11V1.25l-1.23-.13c-.13-.03-.2-.1-.2-.22,0-.13.07-.2.22-.2h.02l4.23.45v8.9c0,.43-.13.78-.38,1.05l1.61.16V.58l-1.23-.13c-.13-.03-.2-.1-.2-.22,0-.13.07-.2.22-.2h.02l4.22.45v9.57ZM42.25.98c.6.07,1.15.2,1.68.38.52.18.98.41,1.36.68.39.28.69.59.91.95.22.36.32.75.32,1.16,0,.45-.13.85-.4,1.22-.27.37-.63.68-1.1.94s-1.01.47-1.63.61-1.29.22-1.99.22-1.36-.07-1.97-.22c-.61-.15-1.15-.35-1.61-.61s-.82-.57-1.08-.94c-.26-.36-.39-.77-.39-1.22,0-.49.16-.94.47-1.33.31-.39.71-.73,1.21-1.01.49-.28,1.04-.49,1.63-.64.6-.15,1.18-.22,1.74-.22h.42c.13,0,.28,0,.42.02Zm-.85,5.66c.4,0,.75-.06,1.03-.19s.51-.3.67-.53c.16-.22.28-.49.36-.79.07-.31.11-.63.11-.97s-.04-.7-.11-1.02c-.08-.32-.19-.6-.36-.85-.16-.25-.39-.44-.67-.59s-.63-.22-1.03-.22-.74.07-1.02.22c-.28.15-.5.35-.66.59-.16.25-.28.53-.36.85-.07.32-.11.66-.11,1.02s.04.67.11.97c.07.31.19.57.36.79.16.22.38.4.66.53.28.13.61.19,1.02.19Zm9.97,11.24v-3.51h-7.06v3.08c0,.15-.02.29-.07.42h7.13Z"/>
        <path d="m64.8,1.14c.48,0,.83.1,1.06.3.23.2.39.42.48.66.1.27.14.58.11.94-.03.27-.06.6-.1.98-.04.39-.08.79-.13,1.2-.05.41-.11.8-.17,1.17-.06.37-.12.68-.18.92.15.13.39.32.72.56.33.24.68.52,1.07.85.39.33.78.69,1.17,1.08.39.4.73.8,1.02,1.23s.48.86.59,1.32c.11.45.09.9-.08,1.33-.16.42-.37.73-.6.94s-.49.34-.75.4-.51.06-.76.01-.46-.13-.64-.23c-.3-.18-.55-.53-.76-1.04s-.4-1.08-.57-1.7c-.17-.62-.34-1.23-.49-1.82-.16-.6-.32-1.07-.48-1.41l-.38.74c-.34.58-.79,1.12-1.34,1.62-.55.5-1.15.95-1.8,1.36-.65.41-1.32.78-2,1.11-.69.33-1.34.62-1.97.87l-.27-.45c.85-.52,1.57-1.14,2.16-1.87.59-.72,1.07-1.49,1.45-2.3.38-.81.67-1.64.87-2.48s.35-1.64.45-2.39c.1-.75.16-1.43.18-2.03.02-.6.04-1.08.06-1.42h-1.18c-.15,0-.22-.07-.22-.22s.07-.22.22-.22h3.26Zm12.32,5.79c.43,0,.8.15,1.11.46.31.31.46.67.46,1.11h-3.58v8.25c0,.48-.18.86-.55,1.16-.37.3-.76.52-1.2.67-.51.18-1.09.31-1.74.4V.58l-1.23-.13c-.13-.03-.2-.1-.2-.22,0-.13.07-.2.22-.2h.02l4.67.45v7.29h.63c.13-.25.32-.45.57-.6s.52-.22.82-.22Z"/>
        <path d="m86.55,2.06c.76,0,1.49.17,2.18.5.69.33,1.3.79,1.82,1.36s.94,1.25,1.25,2.03c.31.78.47,1.61.47,2.49s-.16,1.7-.47,2.48c-.31.77-.73,1.45-1.25,2.03s-1.13,1.04-1.82,1.37c-.69.33-1.42.5-2.18.5s-1.48-.17-2.17-.5-1.29-.79-1.81-1.37-.94-1.26-1.25-2.03c-.31-.77-.47-1.6-.47-2.48s.16-1.71.47-2.49c.31-.78.73-1.46,1.25-2.03s1.12-1.03,1.81-1.36c.69-.33,1.41-.5,2.17-.5Zm0,12.14c.43,0,.8-.17,1.11-.5s.56-.78.76-1.32.35-1.16.44-1.85c.09-.69.13-1.38.13-2.08s-.04-1.37-.13-2.06c-.09-.69-.24-1.3-.44-1.85-.2-.54-.45-.99-.76-1.33-.31-.34-.67-.52-1.11-.52s-.8.17-1.11.52c-.31.34-.56.79-.75,1.33-.19.54-.34,1.16-.44,1.85-.1.69-.15,1.37-.15,2.06s.05,1.4.15,2.08.24,1.3.44,1.85.44.99.75,1.32.67.5,1.11.5Zm12.03,2.55c0,.48-.18.86-.55,1.16s-.76.52-1.2.67c-.51.18-1.09.31-1.74.4V.58l-1.23-.13c-.13-.03-.2-.1-.2-.22,0-.13.07-.2.22-.2h.02l4.67.45v16.27Z"/>
        <path d="m103.07,15.85l-1.32.58-1.32-.58v-.45h15.38l2.19-1.48,2.19,1.48v.45h-17.12Zm3.02-9.52v3.24c0,.09.01.16.04.22.06.13.18.2.36.2h7.53l1.88-.87,1.88.87v.42h-14.46c-.22,0-.4-.04-.53-.13-.13-.09-.22-.19-.28-.31-.06-.13-.1-.28-.11-.45V2.28h-1.12c-.15,0-.22-.07-.22-.22s.07-.22.22-.22h13.08l1.88-.87,1.88.87v.45h-12.03v3.6l6.71-.02,1.88-.87,1.88.87v.45l-10.44.02h-.02Z"/>
        <path d="m146.35,16.74c0,.48-.18.86-.55,1.16s-.76.52-1.2.67c-.51.18-1.09.31-1.74.4v-6.97c-.16.15-.33.29-.49.42-.42.34-.89.65-1.42.92-.53.27-1.12.48-1.79.65s-1.4.25-2.2.25h-5.39c-.36,0-.63-.07-.82-.21-.19-.14-.32-.3-.39-.48-.09-.19-.14-.42-.16-.69v-4.96h-.67c-.15,0-.22-.07-.22-.22s.08-.22.22-.22h6.3V2.75h-2.55l-1.88.87-1.88-.87v-.42h3.6v-.02h2.42l1.88-.87,1.88.87v.02h.02v5.54h-5.43v5.45h3.06c.91,0,1.67-.06,2.27-.17s1.11-.27,1.53-.48.77-.46,1.06-.76c.29-.3.58-.63.88-1.01l.16-.2V.58l-1.23-.13c-.13-.03-.2-.1-.2-.22,0-.13.08-.2.22-.2h.02l4.67.45v16.27Z"/>
        <path d="m159.85,19.04v-6.8h-4.2v4.49c0,.45-.16.82-.49,1.11-.33.29-.7.52-1.11.68-.41.16-.8.28-1.17.34-.37.06-.6.1-.69.11l-.02.07v-6.8h-3.87v-.42h15.87l1.88-.87,1.88.87v.42h-4.58v4.2c0,.45-.16.83-.49,1.15-.33.32-.7.58-1.11.78-.41.2-.8.35-1.17.44-.37.09-.6.14-.69.16l-.02.07Zm-7.58-8.63c-.33,0-.57-.07-.74-.2-.17-.13-.28-.28-.36-.45-.09-.19-.14-.42-.16-.67V1.83h-1.12c-.15,0-.22-.07-.22-.22s.07-.22.22-.22h2.73c.28-.01.55.04.8.17.25.13.47.29.66.49s.34.42.45.66c.11.24.17.47.17.69v6.17c0,.09.01.16.04.22.06.13.18.2.36.2h6.64l1.88-.87,1.88.87v.42h-13.23Z"/>
        <path d="m188.33,8.83c0,.48-.18.86-.55,1.16-.37.3-.76.52-1.2.67-.51.18-1.09.31-1.74.4v-5.14h-1.16c-.13.25-.32.45-.57.6s-.52.22-.82.22c-.33,0-.62-.08-.87-.25-.04.57-.2,1.1-.47,1.59-.3.57-.71,1.05-1.24,1.45-.53.4-1.15.72-1.86.95-.71.23-1.46.35-2.27.35s-1.56-.12-2.26-.35c-.7-.23-1.31-.55-1.83-.95s-.94-.89-1.24-1.45c-.31-.57-.46-1.18-.46-1.85,0-.76.18-1.44.54-2.05.36-.6.82-1.12,1.37-1.54.56-.42,1.18-.75,1.87-.98.68-.23,1.36-.35,2.01-.35.18,0,.35,0,.5.01.16,0,.32.02.48.03.69.1,1.32.3,1.91.58.59.28,1.1.64,1.54,1.06.44.42.78.91,1.02,1.46.1.24.19.48.25.72h3.55V.56l-1.23-.13c-.06,0-.11-.02-.15-.07-.04-.04-.06-.09-.06-.13,0-.15.07-.22.22-.22h.02l4.67.45v8.38Zm-12.74,1.23c.46,0,.85-.1,1.17-.3s.58-.47.77-.82.33-.75.41-1.22c.08-.47.12-.96.12-1.49s-.04-1.05-.12-1.55c-.08-.5-.22-.94-.41-1.32s-.45-.69-.77-.92c-.32-.23-.71-.35-1.17-.35s-.85.12-1.16.35c-.31.23-.57.54-.76.92s-.33.82-.41,1.32c-.08.5-.12,1.02-.12,1.55s.04,1.02.12,1.49c.08.47.22.88.41,1.22s.45.61.76.82c.31.2.7.3,1.16.3Zm13.08,8.49v.42h-12.45c-.36,0-.63-.07-.82-.21-.19-.14-.32-.3-.39-.48-.09-.19-.14-.42-.16-.69v-2.5h-.67c-.15,0-.22-.07-.22-.22s.07-.22.22-.22h10.77v-2.46h-7.02l-1.88.87-1.88-.87v-.42h10.51l1.88-.87,1.88.87v3.31h-9.9v3.06c0,.09.01.16.04.22.06.13.18.2.36.2h4.69l2.5-1.19,2.53,1.19Z"/>
      </g>
      <path class="cls-1" d="m0,36.33c67.88-.46,144.03-.46,211.91,0-67.88.46-144.03.46-211.91,0h0Z"/>
      <path class="cls-1" d="m204.53,7.72c.5,12.81.51,25.64,0,38.45-.51-12.81-.5-25.64,0-38.45h0Z"/>
      <circle class="cls-1" cx="204.53" cy="36.33" r=".89"/>
      <path d="m25.04,9.89c-2.92,0-5.29,3.4-5.43,7.66h-.02c-.14-4.26-2.52-7.65-5.43-7.66,3.01,0,5.44-3.61,5.44-8.06,0,4.45,2.43,8.05,5.44,8.06Z"/>
    </g>
  </g>
</svg>