<?xml version="1.0" encoding="UTF-8"?>
<svg id="_레이어_2" data-name="레이어 2" xmlns="http://www.w3.org/2000/svg" viewBox="0 0 135.67 18.38">
  <g id="_레이어_1-2" data-name="레이어 1">
    <g>
      <g>
        <path d="m50.92,6.35c.02-.07.04-.14.05-.21.01-.08.02-.17.02-.28,0-.18-.15-.35-.44-.53-.3-.18-.69-.33-1.19-.48-.49-.14-1.06-.26-1.69-.36-.64-.1-1.31-.15-2.01-.15-.66,0-1.35.08-2.07.23-.72.15-1.39.41-1.99.76-.6.35-1.1.82-1.48,1.4-.38.58-.58,1.29-.58,2.12s.19,1.54.58,2.12c.38.58.88,1.05,1.48,1.4.6.35,1.27.6,1.99.76.72.15,1.42.23,2.07.23.29,0,.73-.05,1.35-.15.61-.1,1.23-.24,1.84-.41.61-.18,1.16-.37,1.63-.59.47-.22.71-.45.71-.69,0-.11-.02-.2-.07-.26s-.09-.14-.13-.23l.36-.23,3.39,5.17-.4.23c-.04-.11-.1-.18-.18-.21-.08-.03-.17-.05-.28-.05-.15,0-.46.09-.92.28s-1.06.38-1.79.59c-.74.21-1.6.4-2.58.56s-2.1.25-3.32.25c-1.32,0-2.62-.17-3.92-.51-1.29-.34-2.46-.88-3.49-1.61-1.03-.73-1.87-1.66-2.5-2.76-.64-1.11-.95-2.4-.95-3.87s.32-2.76.95-3.87c.64-1.11,1.47-2.03,2.5-2.76,1.03-.73,2.19-1.29,3.49-1.66,1.29-.37,2.6-.56,3.92-.56s2.45.07,3.41.21c.95.14,1.76.3,2.42.48.64.18,1.13.32,1.48.44.35.12.61.18.79.18.2,0,.36-.09.49-.26l.36.1-2.96,5.43-.33-.23Z"/>
        <path d="m59.08,4.02c0-.24-.09-.4-.26-.46-.18-.07-.38-.11-.63-.13v-.4h6.16v.4c-.24.02-.44.07-.61.13-.16.07-.25.22-.25.46v10.14h9.02c.13,0,.26-.05.39-.15.13-.1.2-.32.2-.67h.4v4.9h-.4c0-.35-.07-.56-.2-.63s-.26-.1-.39-.1h-14.32v-.4c.24-.02.45-.07.63-.13.17-.07.26-.22.26-.46V4.02Z"/>
        <path d="m83.31,3.42c-.33.02-.59.07-.77.13-.19.07-.28.22-.28.46v12.51c0,.24.09.4.28.46.19.07.44.11.77.13v.4h-6.52v-.4c.33-.02.59-.07.77-.13.19-.07.28-.22.28-.46V4.02c0-.24-.09-.4-.28-.46-.19-.07-.44-.11-.77-.13v-.4h6.52v.4Z"/>
        <path d="m101.24,8.59l-.46-.23c.02-.09.05-.18.08-.26.03-.09.05-.19.05-.3,0-.13-.14-.29-.41-.46-.27-.18-.62-.33-1.05-.48-.43-.14-.91-.27-1.45-.38-.54-.11-1.08-.16-1.63-.16-.62,0-1.24.08-1.88.23-.64.15-1.21.39-1.71.71s-.92.73-1.25,1.22c-.33.5-.49,1.1-.49,1.8s.16,1.28.49,1.78c.33.51.75.92,1.25,1.24s1.08.56,1.71.71c.64.15,1.26.23,1.88.23.66,0,1.28-.08,1.86-.25.58-.16,1.1-.36,1.55-.59.45-.23.8-.46,1.05-.69s.38-.4.38-.51v-.3c0-.13-.01-.23-.03-.3l.36-.23,3.13,4.49-.4.23c-.2-.24-.37-.36-.53-.36-.09,0-.32.1-.71.29-.38.2-.89.42-1.53.67-.64.25-1.39.46-2.25.64-.87.17-1.83.26-2.88.26-1.21,0-2.39-.12-3.54-.36-1.15-.24-2.18-.65-3.08-1.23-.9-.58-1.62-1.34-2.17-2.29s-.82-2.1-.82-3.46.27-2.48.82-3.42c.55-.94,1.27-1.71,2.17-2.3.9-.59,1.92-1.03,3.08-1.3,1.15-.27,2.33-.41,3.54-.41.72,0,1.43.06,2.11.18.68.12,1.3.25,1.88.38.57.13,1.06.26,1.48.38s.71.18.89.18c.11,0,.21-.03.3-.1.09-.07.15-.13.2-.2l.39.13-2.37,4.81Z"/>
        <path d="m118.13,17.11c.15,0,.35-.03.58-.1.23-.07.34-.22.34-.46,0-.07-.08-.22-.23-.48-.15-.25-.35-.55-.58-.91-.23-.35-.49-.74-.77-1.17-.29-.43-.56-.83-.82-1.22-.26-.38-.5-.73-.71-1.04-.21-.31-.36-.54-.44-.69l-2.86,2.76v2.7c0,.24.1.4.3.46.2.07.41.11.62.13v.4h-6.15v-.4c.2.02.38-.01.56-.1s.26-.25.26-.49V4.02c0-.24-.09-.41-.26-.49-.18-.09-.36-.12-.56-.1v-.4h6.15v.4c-.22.02-.43.07-.62.13-.2.07-.3.22-.3.46v6.06c.33-.29.72-.63,1.17-1.02.45-.4.92-.81,1.42-1.23.49-.43.98-.85,1.46-1.27.48-.42.92-.81,1.3-1.17.38-.36.69-.66.92-.91.23-.24.35-.4.35-.46,0-.24-.09-.4-.28-.46-.19-.07-.37-.11-.54-.13v-.4h6.42v.4c-.33.04-.76.27-1.28.69-.53.42-1.09.89-1.68,1.43-.59.54-1.18,1.09-1.76,1.65-.58.56-1.08,1-1.5,1.33l5.46,8.1c.11.18.22.3.35.36.12.07.26.11.41.13v.4h-6.71v-.4Z"/>
        <path d="m135.67.59c-.18,0-.33.06-.48.16-.14.11-.25.33-.31.66l-1.58,8.23s-.04.12-.05.23c-.01.11,0,.2.02.26,0,.07.04.17.13.31.09.14.28.24.59.28v.4h-3.69v-.4c.31-.04.5-.14.59-.28.09-.14.13-.25.13-.31.02-.07.03-.15.02-.26-.01-.11-.03-.19-.05-.23l-1.58-8.23c-.07-.33-.17-.55-.31-.66-.14-.11-.3-.16-.48-.16V.2h7.04v.4Zm-3.52,11.91c.7,0,1.31.26,1.83.77s.77,1.12.77,1.83-.26,1.29-.77,1.78c-.52.48-1.12.72-1.83.72s-1.31-.24-1.83-.72c-.52-.48-.77-1.07-.77-1.78s.26-1.31.77-1.83,1.12-.77,1.83-.77Z"/>
      </g>
      <polygon points="8.83 18.38 17.66 3.09 0 3.09 8.83 18.38"/>
    </g>
  </g>
</svg>