<?xml version="1.0" encoding="UTF-8"?>
<svg id="_레이어_2" data-name="레이어 2" xmlns="http://www.w3.org/2000/svg" viewBox="0 0 367.95 125.01">
  <defs>
    <style>
      .cls-1 {
        fill: #333;
      }
    </style>
  </defs>
  <g id="_레이어_1-2" data-name="레이어 1">
    <path d="m0,86.76c35.99-6.5,73.3-6.62,109.08,1.29,10.22,2.19,20.22,5.3,30.39,7.66,25.43,5.8,52.14,5.27,77.56-.37,10.2-2.19,20.22-5.23,30-8.91-12.14,4.8-24.72,8.59-37.57,10.99-23.14,4.24-47.18,4.32-70.19-.81-10.21-2.28-20.19-5.39-30.39-7.66-35.67-8.13-72.86-7.99-108.89-2.18h0Z"/>
    <g>
      <polygon points="0 108.76 3.94 108.09 3.95 108.15 0 108.76"/>
      <polygon points="11.68 106.9 19.45 105.9 19.49 106.2 11.71 107.08 11.68 106.9"/>
      <polygon points="27.25 105.09 35.06 104.5 35.09 105.01 27.28 105.52 27.25 105.09"/>
      <polygon points="42.89 104.14 50.73 103.98 50.73 104.58 42.91 104.69 42.89 104.14"/>
      <polygon points="58.56 104.05 66.4 104.34 66.36 105.02 58.55 104.69 58.56 104.05"/>
      <polygon points="74.22 104.85 82.03 105.59 81.94 106.36 74.16 105.57 74.22 104.85"/>
      <polygon points="89.81 106.57 97.56 107.79 97.41 108.63 89.69 107.38 89.81 106.57"/>
      <polygon points="105.27 109.24 112.93 110.93 112.71 111.84 105.09 110.11 105.27 109.24"/>
      <rect x="123.71" y="110.38" width=".98" height="7.83" transform="translate(-18.21 204.9) rotate(-75.09)"/>
      <polygon points="135.67 116.81 143.29 118.54 143.11 119.42 135.45 117.72 135.67 116.81"/>
      <polygon points="150.97 119.92 158.72 120.91 158.64 121.71 150.84 120.76 150.97 119.92"/>
      <polygon points="166.5 121.53 174.31 121.82 174.3 122.55 166.46 122.3 166.5 121.53"/>
      <polygon points="182.12 121.76 189.93 121.35 189.98 122 182.15 122.44 182.12 121.76"/>
      <polygon points="197.71 120.62 205.46 119.56 205.55 120.11 197.78 121.22 197.71 120.62"/>
      <polygon points="213.15 118.17 220.79 116.51 220.9 116.92 213.26 118.68 213.15 118.17"/>
      <polygon points="228.37 114.56 235.87 112.32 235.93 112.5 228.45 114.85 228.37 114.56"/>
      <polygon points="243.28 109.81 247.03 108.43 243.3 109.87 243.28 109.81"/>
    </g>
    <polygon class="cls-1" points="342.55 124.64 329.65 114.98 326.37 125.01 322.59 115.16 306.3 123.19 317.47 110.29 307.45 107.01 317.29 103.23 306.25 91.47 322.16 98.11 325.45 88.08 329.23 97.93 345.52 89.9 334.35 102.8 344.37 106.08 334.52 109.86 342.55 124.64"/>
    <path class="cls-1" d="m355.34,67.7l-2.43-6.33-10.77,5.31,7.34-8.48-6.3-2.06,6.19-2.38-7.25-7.71,10.51,4.38,2.11-6.45,2.43,6.33,10.77-5.31-7.34,8.48,6.3,2.06-6.32,2.42,5.29,9.73-8.46-6.34-2.08,6.34Zm-2.03-7.37l1.97,5.13,1.75-5.33,6.55,4.91-4.06-7.47,5.14-1.98-5.37-1.76,5.66-6.53-8.19,4.04-1.97-5.13-1.71,5.22-8.02-3.34,5.61,5.97-5.27,2.02,5.37,1.76-5.66,6.53,8.19-4.04Z"/>
    <path class="cls-1" d="m288.37,84.24c-3.19-8.77-6.61-17.53-9.8-26.35l.42.12-14.32,11.5-.74.59.2-.93,3.84-17.96.35.49c-9.89-1.14-23.28-2.88-33.24-4.15,0,0,1.8-.5,1.8-.5l28.63-7.99-.13.42-11.39-14.41-.33-.42.52.12c5.97,1.34,11.95,2.65,17.94,3.92,0,0-.21.21-.21.21l-4.93-27.65-.22-1.23.71,1.03,16.94,24.8-.59-.09,14.32-11.5,1.03-.82-.28,1.29-3.87,17.95-.43-.61,31.39,3.87,2.53.31c-8.29,2.35-22.75,6.42-31.07,8.73,0,0,.23-.71.23-.71l11.38,14.42.63.8-.99-.22-17.93-4,.33-.24-2.71,29.22h0Zm-.01-.1l2.18-29.16.02-.31.31.07,17.97,3.82-.36.58-11.52-14.31-.42-.52.65-.19c7.1-2.06,21.46-6.15,28.58-8.17l.08,1.01-31.39-3.89-.55-.07.12-.54,3.95-17.94.75.47-14.4,11.4-.34.27-.24-.36-16.72-24.95.49-.2,4.75,27.68.05.26-.26-.06c-5.97-1.34-11.96-2.63-17.95-3.9l.19-.3,11.51,14.32.25.31-.38.11-28.56,8.21-.06-.74c9.51,1.11,22.49,2.71,31.84,3.91,0,0-.1.43-.1.43l-3.98,17.93-.54-.33,14.41-11.4.29-.23c3.21,8.89,6.2,17.85,9.41,26.79h0Z"/>
  </g>
</svg>