<?xml version="1.0" encoding="UTF-8"?>
<svg id="_레이어_2" data-name="레이어 2" xmlns="http://www.w3.org/2000/svg" viewBox="0 0 144.57 73.63">
  <defs>
    <style>
      .cls-1 {
        fill: none;
        stroke: #333;
        stroke-miterlimit: 10;
        stroke-width: .5px;
      }
    </style>
  </defs>
  <g id="_레이어_1-2" data-name="레이어 1">
    <ellipse class="cls-1" cx="69.94" cy="36.82" rx="69.69" ry="36.57"/>
    <g>
      <path d="m37.42,21.07h.6l-3.67,10.73h-.9l-2.9-6.61-1.84,6.61h-.9l-4.18-9.49c-.1-.18-.21-.33-.36-.46s-.33-.2-.56-.22v-.54c.49-.04.95-.02,1.38.04.19.02.38.06.57.11s.37.13.54.22c.17.09.33.2.48.32.15.12.27.28.38.46l2.84,6.59,1.27-4.47-.9-2.05c-.1-.18-.22-.33-.36-.46s-.33-.2-.56-.22v-.54c.29-.03.59-.03.91-.01.32.02.63.07.94.15.31.08.6.2.86.36.27.16.49.38.66.66l2.98,6.61,2.71-7.78Z"/>
      <path d="m40.87,31.48c-.35-.15-.68-.35-.98-.61-.3-.25-.57-.54-.79-.86-.22-.32-.39-.66-.51-1.02-.12-.36-.18-.74-.18-1.13,0-.49.1-.97.31-1.44.21-.47.49-.88.84-1.25.36-.37.79-.66,1.28-.88s1.04-.33,1.62-.33c.22,0,.47.02.75.06.28.04.57.1.86.19s.58.21.87.36c.29.15.54.35.77.59.23.24.41.54.55.88s.21.76.21,1.23v.8l-5.76.03c.07,1.01.27,1.78.6,2.31s.72.8,1.16.8c.18,0,.38-.01.58-.04.21-.02.43-.07.65-.14.22-.07.45-.18.68-.31.23-.14.45-.32.67-.55l.36.37c-.61.59-1.31.96-2.1,1.11-.79.15-1.6.09-2.44-.2Zm1.73-6.99c-.55,0-.98.25-1.28.76-.3.5-.5,1.23-.6,2.17h3.75c0-.58-.06-1.06-.19-1.44-.13-.38-.29-.68-.47-.9-.19-.22-.39-.37-.61-.46-.22-.09-.42-.13-.6-.13Z"/>
      <path d="m48.22,21.34h1.94v3.21c.2-.14.45-.27.75-.39.3-.12.63-.18.99-.18.56,0,1.06.11,1.49.34.43.23.79.53,1.09.9.3.37.52.8.67,1.3.15.49.22,1,.22,1.53,0,.56-.09,1.07-.26,1.52s-.43.83-.76,1.15-.73.56-1.2.73c-.47.17-1.01.26-1.61.26-.27,0-.52-.03-.76-.08s-.44-.14-.62-.26c-.05.07-.1.13-.15.2-.05.07-.1.15-.15.24h-1.64v-10.46Zm3.03,3.51c-.23,0-.43.05-.61.14-.18.1-.34.24-.48.44v5.16c.09.17.19.3.32.4.12.1.28.14.46.14.4,0,.75-.1,1.04-.29.29-.19.54-.44.73-.73.2-.3.34-.63.44-1,.09-.37.14-.73.14-1.08s-.03-.7-.09-1.08c-.06-.38-.16-.72-.32-1.03-.15-.31-.36-.57-.62-.78s-.6-.31-1.01-.31Z"/>
      <path d="m60.02,20.89h1.97l-4.24,11.51h-1.97l4.24-11.51Z"/>
      <path d="m75.34,30.72s0,.1.03.17c.02.07.05.13.1.19s.11.12.2.16c.08.05.2.08.34.09h.04v.53c-.08,0-.2.01-.36.01h-1.4c-.32,0-.58-.09-.76-.26s-.31-.36-.4-.57c-.09-.24-.15-.51-.17-.83v-6.09l-2.8,7.72v.03h-2.11l-3.02-8.36v8.36h-.53v-10.67h2.05s3.48,9.43,3.48,9.43l3.4-9.44h1.9v9.53Z"/>
      <path d="m81.67,23.83c.53,0,1.03.11,1.5.32s.87.5,1.22.86c.35.36.62.78.82,1.27.2.48.3.99.3,1.53s-.1,1.01-.3,1.48c-.2.48-.47.9-.81,1.28-.34.38-.75.67-1.22.9s-.97.34-1.5.34c-.5,0-.99-.11-1.46-.32-.47-.21-.88-.5-1.23-.87-.36-.37-.64-.79-.85-1.28-.21-.48-.31-.99-.31-1.53s.1-1.01.3-1.49c.2-.48.47-.91.82-1.28.35-.37.75-.67,1.22-.88.47-.22.97-.33,1.51-.33Zm0,7.45c.58,0,1.03-.3,1.36-.91.32-.6.48-1.46.48-2.56,0-.48-.04-.94-.13-1.36-.09-.42-.21-.78-.36-1.1-.16-.31-.35-.56-.58-.73-.23-.18-.49-.26-.77-.26s-.56.09-.79.26c-.23.17-.42.41-.58.72-.16.31-.28.67-.36,1.09-.08.42-.13.88-.13,1.38s.04.94.13,1.36c.09.42.21.79.36,1.1.16.31.35.55.58.73.23.18.49.27.79.27Z"/>
      <path d="m87.25,21.34h1.94v3.21c.2-.14.45-.27.75-.39.3-.12.63-.18.99-.18.56,0,1.06.11,1.49.34.43.23.79.53,1.09.9.3.37.52.8.67,1.3.15.49.22,1,.22,1.53,0,.56-.09,1.07-.26,1.52s-.43.83-.76,1.15-.73.56-1.2.73c-.47.17-1.01.26-1.61.26-.27,0-.52-.03-.76-.08s-.44-.14-.62-.26c-.05.07-.1.13-.15.2-.05.07-.1.15-.15.24h-1.64v-10.46Zm3.03,3.51c-.23,0-.43.05-.61.14-.18.1-.34.24-.48.44v5.16c.09.17.19.3.32.4.12.1.28.14.46.14.4,0,.75-.1,1.04-.29.29-.19.54-.44.73-.73.2-.3.34-.63.44-1,.09-.37.14-.73.14-1.08s-.03-.7-.09-1.08c-.06-.38-.16-.72-.32-1.03-.15-.31-.36-.57-.62-.78s-.6-.31-1.01-.31Z"/>
      <path d="m97.42,22.61c-.3,0-.56-.08-.78-.24-.21-.16-.32-.36-.32-.6s.11-.44.32-.61c.21-.17.47-.25.78-.25s.58.08.8.25c.22.17.33.37.33.61s-.11.44-.33.6c-.22.16-.49.24-.8.24Zm.97,1.4v7.77h-1.94v-7.77h1.94Z"/>
      <path d="m100.09,21.02v-.51h2.84v11.27h-1.94v-10.76h-.9Z"/>
      <path d="m107.25,31.48c-.35-.15-.68-.35-.98-.61-.3-.25-.57-.54-.79-.86-.22-.32-.39-.66-.51-1.02-.12-.36-.18-.74-.18-1.13,0-.49.1-.97.31-1.44.21-.47.49-.88.84-1.25.36-.37.79-.66,1.28-.88s1.04-.33,1.62-.33c.22,0,.47.02.75.06.28.04.57.1.86.19s.58.21.87.36c.29.15.54.35.77.59.23.24.41.54.55.88s.21.76.21,1.23v.8l-5.76.03c.07,1.01.27,1.78.6,2.31s.72.8,1.16.8c.18,0,.38-.01.58-.04.21-.02.43-.07.65-.14.22-.07.45-.18.68-.31.23-.14.45-.32.67-.55l.36.37c-.61.59-1.31.96-2.1,1.11-.79.15-1.6.09-2.44-.2Zm1.73-6.99c-.55,0-.98.25-1.28.76-.3.5-.5,1.23-.6,2.17h3.75c0-.58-.06-1.06-.19-1.44-.13-.38-.29-.68-.47-.9-.19-.22-.39-.37-.61-.46-.22-.09-.42-.13-.6-.13Z"/>
      <path d="m57.64,38.28c1.15,0,2.04.26,2.65.78.62.52.93,1.34.93,2.46,0,.72-.14,1.32-.42,1.8-.28.48-.66.85-1.13,1.12s-1.02.46-1.64.56c-.62.1-1.27.14-1.95.11v3.88h-2.37v-10.69l3.92-.03Zm-1.55,6.28c.31,0,.66-.04,1.03-.12.37-.08.72-.23,1.04-.45s.6-.53.82-.92c.22-.39.33-.91.33-1.55,0-.95-.27-1.65-.81-2.11s-1.34-.66-2.42-.6v5.75Z"/>
      <path d="m64.97,41.11c.56,0,1.03.04,1.42.11s.7.16.96.28c.25.11.45.24.59.39s.25.3.32.45c.07.15.11.3.13.46.01.15.02.29.02.4v5.71h-1.67l-.28-.73c-.3.24-.64.42-1.01.54-.37.12-.74.19-1.1.19-.33,0-.66-.05-.97-.15-.31-.1-.59-.25-.83-.44-.24-.2-.43-.44-.58-.73-.15-.29-.22-.64-.22-1.04s.12-.75.36-1.03c.24-.28.54-.51.89-.68.35-.18.74-.32,1.16-.42.42-.1.8-.18,1.15-.24.35-.05.63-.09.86-.11.22-.02.33-.04.31-.07v-.78c-.02-.27-.1-.51-.23-.73-.11-.18-.28-.35-.5-.5-.22-.15-.54-.23-.96-.23-.34,0-.62.05-.83.15-.21.1-.37.22-.49.35-.12.13-.2.27-.24.41s-.07.24-.08.31h-.98c0-.1,0-.19.03-.3.02-.09.04-.2.08-.31s.08-.23.15-.35c.08-.12.2-.24.36-.35.17-.11.37-.2.6-.28.23-.08.49-.14.76-.19.27-.05.55-.07.83-.07Zm-1,5.26c0,.28.04.52.11.72.08.2.18.38.31.51.13.14.28.24.44.31.17.07.34.11.52.11.19,0,.38-.05.57-.16.19-.1.37-.27.54-.49v-2.57s-.03-.04-.14-.05-.26,0-.45.01c-.19.02-.4.06-.62.12-.22.06-.43.15-.62.27-.19.12-.35.29-.48.48-.13.2-.19.44-.19.71Z"/>
      <path d="m70.32,44.05c0-.44.1-.83.31-1.17.21-.34.47-.64.79-.88.32-.25.68-.44,1.08-.58.4-.14.8-.24,1.21-.29h3.88v.57h-1.18c.12.18.26.36.4.53.14.18.27.35.39.54s.21.38.29.58c.08.21.11.44.11.7,0,.45-.11.85-.34,1.21s-.51.67-.86.91c-.35.25-.73.44-1.16.58-.43.14-.85.21-1.27.22-.26,0-.47,0-.63.01-.17,0-.3.02-.41.03s-.2.03-.26.05c-.07.02-.13.05-.19.08-.09.06-.15.13-.16.23,0,.1-.01.18-.01.26,0,.18.06.33.17.44s.25.19.42.24.35.08.54.09c.2,0,.37.01.54.01.26,0,.55.02.88.06.33.04.67.11,1,.2.33.09.66.21.97.35.31.14.59.32.83.52.24.2.44.44.58.71.15.27.22.57.22.91,0,.5-.15.94-.46,1.31-.3.37-.69.67-1.15.91-.46.23-.95.41-1.47.52-.52.11-.99.17-1.42.17-.3,0-.62-.02-.96-.07-.34-.05-.68-.12-1.01-.21-.34-.1-.66-.22-.96-.38-.3-.16-.58-.34-.81-.56s-.43-.46-.56-.74c-.14-.28-.21-.6-.21-.95,0-.29.06-.54.17-.78.11-.23.27-.45.46-.66.19-.21.41-.41.65-.61.24-.2.49-.4.75-.61-.34-.34-.51-.63-.51-.87,0-.16.02-.29.05-.39.03-.09.09-.19.16-.27s.16-.17.26-.26c.1-.09.22-.21.35-.35-.2-.13-.38-.28-.56-.44-.17-.16-.33-.34-.46-.54-.14-.19-.25-.4-.32-.62-.08-.22-.11-.46-.11-.71Zm6.09,7.13c0-.51-.12-.94-.36-1.27-.24-.33-.54-.58-.91-.73s-.75-.23-1.18-.23c-.42,0-.82.09-1.18.26-.37.17-.67.42-.91.76-.24.33-.36.74-.36,1.21,0,.3.06.6.18.9.12.29.29.55.51.78s.48.4.79.54c.3.14.64.21,1,.21.4,0,.75-.07,1.06-.21.3-.14.56-.32.76-.54.2-.22.36-.48.46-.78.1-.29.16-.59.16-.9Zm-2.44-9.52c-.23,0-.44.06-.63.19s-.37.3-.51.52-.26.47-.35.76c-.08.29-.13.59-.13.91,0,.3.04.6.13.89.09.29.2.54.35.76s.32.39.51.53.41.2.63.2.42-.07.61-.2.36-.31.51-.53.26-.47.35-.76c.08-.29.13-.59.13-.89,0-.32-.04-.63-.13-.91-.09-.29-.2-.54-.35-.76s-.32-.39-.51-.52-.39-.19-.61-.19Z"/>
      <path d="m81.69,48.6c-.35-.15-.68-.35-.98-.61-.3-.25-.57-.54-.79-.86-.22-.32-.39-.66-.51-1.02-.12-.36-.18-.74-.18-1.13,0-.49.1-.97.31-1.44.21-.47.49-.88.84-1.25.36-.37.79-.66,1.28-.88s1.04-.33,1.62-.33c.22,0,.47.02.75.06.28.04.57.1.86.19s.58.21.87.36c.29.15.54.35.77.59.23.24.41.54.55.88s.21.76.21,1.23v.8l-5.76.03c.07,1.01.27,1.78.6,2.31s.72.8,1.16.8c.18,0,.38-.01.58-.04.21-.02.43-.07.65-.14.22-.07.45-.18.68-.31.23-.14.45-.32.67-.55l.36.37c-.61.59-1.31.96-2.1,1.11-.79.15-1.6.09-2.44-.2Zm1.73-6.99c-.55,0-.98.25-1.28.76-.3.5-.5,1.23-.6,2.17h3.75c0-.58-.06-1.06-.19-1.44-.13-.38-.29-.68-.47-.9-.19-.22-.39-.37-.61-.46-.22-.09-.42-.13-.6-.13Z"/>
    </g>
    <path d="m144.57,36.9c-2.98,0-5.42,2.79-5.56,6.29h-.02c-.14-3.5-2.58-6.28-5.56-6.29,3.08,0,5.57-2.97,5.57-6.62,0,3.65,2.49,6.61,5.57,6.62Z"/>
  </g>
</svg>