<?xml version="1.0" encoding="UTF-8"?>
<svg id="_레이어_2" data-name="레이어 2" xmlns="http://www.w3.org/2000/svg" viewBox="0 0 164.61 83.41">
  <defs>
    <style>
      .cls-1, .cls-2 {
        fill: #fff;
      }

      .cls-3 {
        fill: #333;
      }

      .cls-2 {
        stroke: #000;
        stroke-miterlimit: 10;
        stroke-width: .5px;
      }
    </style>
  </defs>
  <g id="_레이어_1-2" data-name="레이어 1">
    <ellipse class="cls-3" cx="79.49" cy="41.71" rx="79.49" ry="41.71"/>
    <g>
      <path class="cls-1" d="m42.4,23.74h.68l-4.18,12.24h-1.03l-3.3-7.53-2.1,7.53h-1.02l-4.77-10.82c-.11-.21-.24-.38-.41-.53-.16-.15-.37-.23-.63-.25v-.62c.55-.04,1.08-.03,1.58.05.22.02.43.06.65.13.22.07.42.15.62.25.2.1.38.23.54.37.17.14.31.31.43.52l3.24,7.52,1.45-5.09-1.03-2.34c-.11-.21-.25-.38-.42-.53s-.38-.23-.64-.25v-.62c.33-.03.67-.04,1.03-.02s.72.08,1.07.17c.35.09.68.23.98.42s.55.43.75.75l3.4,7.53,3.09-8.87Z"/>
      <path class="cls-1" d="m46.33,35.62c-.4-.17-.78-.4-1.12-.69-.35-.29-.65-.61-.89-.98-.25-.36-.44-.75-.58-1.16-.14-.41-.2-.84-.2-1.29,0-.56.12-1.11.35-1.64.23-.53.55-1.01.96-1.42.41-.42.9-.75,1.46-1,.57-.25,1.18-.37,1.85-.37.25,0,.53.02.85.07.32.04.65.12.98.22.34.1.67.24.99.42.33.17.62.4.88.67.26.28.47.61.63,1.01.16.4.24.87.24,1.41v.91l-6.57.03c.08,1.15.3,2.03.68,2.64s.82.91,1.32.91c.21,0,.43-.01.67-.04s.49-.08.74-.16c.25-.08.51-.2.77-.36.26-.16.51-.37.76-.63l.41.42c-.69.67-1.49,1.1-2.39,1.27s-1.83.1-2.78-.23Zm1.97-7.97c-.63,0-1.12.29-1.46.86-.35.58-.58,1.4-.68,2.47l4.28.02c0-.67-.07-1.23-.22-1.66s-.33-.78-.54-1.03c-.21-.25-.44-.42-.69-.52-.25-.1-.48-.15-.68-.15Z"/>
      <path class="cls-1" d="m54.71,24.05h2.21v3.66c.23-.16.51-.31.86-.45s.72-.2,1.13-.2c.64,0,1.21.13,1.7.39.49.26.9.6,1.24,1.03s.59.92.76,1.48c.17.56.25,1.14.25,1.74,0,.64-.1,1.22-.3,1.73-.2.51-.49.95-.87,1.31-.38.36-.83.63-1.37.83-.54.2-1.15.29-1.84.29-.3,0-.59-.03-.87-.09-.27-.06-.5-.16-.7-.3-.05.08-.11.15-.17.23-.06.08-.12.17-.17.28h-1.87v-11.93Zm3.46,4c-.26,0-.49.05-.69.16-.2.11-.38.28-.55.5v5.89c.1.2.22.35.36.46s.32.16.52.16c.46,0,.85-.11,1.19-.33.33-.22.61-.5.83-.84.22-.34.39-.72.5-1.14.11-.42.16-.83.16-1.23s-.03-.8-.1-1.23-.19-.82-.36-1.18c-.17-.36-.41-.65-.71-.89s-.68-.35-1.15-.35Z"/>
      <path class="cls-1" d="m68.17,23.55h2.25l-4.83,13.13h-2.25l4.83-13.13Z"/>
      <path class="cls-1" d="m85.65,34.76c0,.05.01.12.03.2.02.08.06.15.11.22.05.07.13.13.23.19.1.05.23.09.39.1h.05v.6c-.1.01-.23.02-.41.02h-1.59c-.37,0-.66-.1-.86-.29-.21-.19-.36-.41-.46-.65-.11-.27-.17-.59-.2-.94v-6.95l-3.19,8.8v.03h-2.41l-3.45-9.54v9.54h-.6v-12.17l2.34-.02,3.97,10.77,3.87-10.77h2.16v10.87Z"/>
      <path class="cls-1" d="m92.87,26.9c.61,0,1.18.12,1.71.37.53.24,1,.57,1.39.98.4.41.71.89.94,1.45.23.55.34,1.13.34,1.74s-.11,1.15-.34,1.69c-.23.54-.54,1.03-.93,1.46s-.85.77-1.39,1.03c-.54.25-1.11.38-1.72.38-.58,0-1.13-.12-1.66-.37-.53-.24-1-.58-1.41-.99-.41-.42-.73-.9-.97-1.46-.24-.55-.36-1.13-.36-1.74s.11-1.15.34-1.7.54-1.03.94-1.46c.4-.42.86-.76,1.39-1.01.53-.25,1.11-.37,1.72-.37Zm0,8.49c.66,0,1.18-.34,1.55-1.03.37-.69.55-1.66.55-2.92,0-.55-.05-1.07-.15-1.55s-.24-.9-.42-1.25c-.18-.36-.4-.64-.66-.84-.26-.2-.55-.3-.88-.3s-.63.1-.89.29c-.26.2-.48.47-.66.82s-.32.77-.42,1.24c-.1.48-.15,1-.15,1.58s.05,1.07.15,1.55.24.9.42,1.25.4.63.66.84c.26.21.56.31.89.31Z"/>
      <path class="cls-1" d="m99.24,24.05h2.21v3.66c.23-.16.51-.31.86-.45s.72-.2,1.13-.2c.64,0,1.21.13,1.7.39.49.26.9.6,1.24,1.03s.59.92.76,1.48c.17.56.25,1.14.25,1.74,0,.64-.1,1.22-.3,1.73-.2.51-.49.95-.87,1.31-.38.36-.83.63-1.37.83-.54.2-1.15.29-1.84.29-.3,0-.59-.03-.87-.09-.27-.06-.5-.16-.7-.3-.05.08-.11.15-.17.23-.06.08-.12.17-.17.28h-1.87v-11.93Zm3.46,4c-.26,0-.49.05-.69.16-.2.11-.38.28-.55.5v5.89c.1.2.22.35.36.46s.32.16.52.16c.46,0,.85-.11,1.19-.33.33-.22.61-.5.83-.84.22-.34.39-.72.5-1.14.11-.42.16-.83.16-1.23s-.03-.8-.1-1.23-.19-.82-.36-1.18c-.17-.36-.41-.65-.71-.89s-.68-.35-1.15-.35Z"/>
      <path class="cls-1" d="m110.84,25.5c-.35,0-.64-.09-.89-.28-.24-.18-.37-.41-.37-.68s.12-.5.37-.69c.24-.19.54-.28.89-.28s.66.09.91.28c.25.19.38.42.38.69s-.12.5-.38.68c-.25.18-.55.28-.91.28Zm1.11,1.59v8.87h-2.21v-8.87h2.21Z"/>
      <path class="cls-1" d="m113.88,23.69v-.59h3.24v12.86h-2.21v-12.27h-1.02Z"/>
      <path class="cls-1" d="m122.05,35.62c-.4-.17-.78-.4-1.12-.69-.35-.29-.65-.61-.89-.98-.25-.36-.44-.75-.58-1.16-.14-.41-.2-.84-.2-1.29,0-.56.12-1.11.35-1.64.23-.53.55-1.01.96-1.42.41-.42.9-.75,1.46-1,.57-.25,1.18-.37,1.85-.37.25,0,.53.02.85.07.32.04.65.12.98.22.34.1.67.24.99.42.33.17.62.4.88.67.26.28.47.61.63,1.01.16.4.24.87.24,1.41v.91l-6.57.03c.08,1.15.3,2.03.68,2.64s.82.91,1.32.91c.21,0,.43-.01.67-.04s.49-.08.74-.16c.25-.08.51-.2.77-.36.26-.16.51-.37.76-.63l.41.42c-.69.67-1.49,1.1-2.39,1.27s-1.83.1-2.78-.23Zm1.97-7.97c-.63,0-1.12.29-1.46.86-.35.58-.58,1.4-.68,2.47l4.28.02c0-.67-.07-1.23-.22-1.66s-.33-.78-.54-1.03c-.21-.25-.44-.42-.69-.52-.25-.1-.48-.15-.68-.15Z"/>
      <path class="cls-1" d="m65.45,43.38c1.31,0,2.32.29,3.03.89.71.59,1.06,1.53,1.06,2.81,0,.82-.16,1.51-.48,2.05-.32.54-.75.97-1.29,1.28-.54.31-1.16.52-1.87.64-.71.12-1.45.16-2.22.13v4.43h-2.7v-12.19l4.47-.03Zm-1.77,7.16c.36,0,.75-.05,1.17-.14.42-.09.82-.26,1.19-.51.37-.25.68-.6.94-1.05s.38-1.04.38-1.77c0-1.08-.31-1.89-.92-2.41-.61-.52-1.53-.75-2.76-.68v6.56Z"/>
      <path class="cls-1" d="m73.82,46.6c.64,0,1.18.04,1.62.12s.8.19,1.09.32c.29.13.52.28.68.45.16.17.28.34.36.51s.13.35.15.52c.02.17.02.33.02.46v6.51h-1.91l-.32-.83c-.35.27-.73.48-1.16.62s-.84.21-1.25.21c-.38,0-.75-.06-1.11-.17-.36-.11-.67-.28-.94-.5-.27-.22-.49-.5-.66-.84-.17-.34-.25-.73-.25-1.19s.14-.86.41-1.18c.28-.32.62-.58,1.02-.78s.84-.36,1.32-.48c.48-.12.91-.21,1.31-.27.4-.06.72-.1.98-.12.25-.02.37-.05.35-.08v-.89c-.02-.3-.11-.58-.26-.83-.13-.21-.32-.4-.57-.57-.25-.17-.61-.26-1.09-.26-.39,0-.71.06-.94.17s-.43.25-.56.4c-.14.15-.23.31-.28.46s-.08.27-.09.35h-1.12c0-.11.01-.22.03-.34.02-.11.05-.22.09-.35.04-.12.09-.26.17-.4.09-.14.22-.27.42-.4.19-.12.42-.23.68-.32s.55-.16.86-.21c.31-.05.63-.08.95-.08Zm-1.14,6c0,.32.04.59.13.82s.2.43.35.59.32.28.5.36c.19.08.39.12.59.12.22,0,.43-.06.65-.18.22-.12.42-.3.62-.55v-2.93s-.03-.04-.15-.06c-.12-.02-.3-.01-.51.02-.22.03-.45.07-.71.14-.25.07-.49.17-.71.31s-.4.33-.54.55c-.15.23-.22.5-.22.81Z"/>
      <path class="cls-1" d="m79.92,49.96c0-.5.12-.94.35-1.33s.53-.73.9-1.01c.37-.28.78-.5,1.24-.67.46-.16.92-.27,1.38-.33h4.43v.65h-1.35c.14.21.29.41.46.61.16.2.31.4.44.61.13.21.24.43.33.67s.13.5.13.8c0,.51-.13.97-.38,1.38s-.58.76-.98,1.04c-.4.28-.84.5-1.33.66-.49.16-.97.24-1.45.25-.29,0-.53,0-.72.02-.19.01-.35.02-.47.03-.12.01-.23.03-.3.06-.08.03-.15.06-.21.09-.11.07-.17.15-.18.26-.01.11-.02.21-.02.29,0,.21.07.37.2.5s.29.22.48.28c.19.06.4.09.62.11.22.01.42.02.61.02.29,0,.63.02,1.01.07.38.05.76.12,1.14.23.38.1.75.24,1.11.4.36.16.68.36.95.59s.5.5.67.81.25.65.25,1.04c0,.58-.17,1.07-.52,1.5-.35.42-.78.77-1.31,1.03-.53.27-1.08.46-1.68.59-.59.13-1.13.2-1.62.2-.35,0-.71-.03-1.1-.08-.39-.05-.77-.14-1.16-.24-.39-.11-.75-.25-1.1-.43-.35-.18-.66-.39-.93-.63s-.49-.53-.64-.85-.24-.68-.24-1.08c0-.33.07-.62.2-.89.13-.27.3-.52.52-.76.22-.24.46-.47.74-.7.28-.23.56-.46.85-.7-.39-.39-.58-.72-.58-.99,0-.18.02-.33.06-.44s.1-.21.18-.31c.08-.1.18-.2.29-.3.11-.1.25-.24.4-.4-.23-.15-.44-.32-.63-.5-.2-.18-.37-.39-.53-.61-.16-.22-.28-.46-.37-.71-.09-.25-.13-.52-.13-.81Zm6.95,8.14c0-.59-.14-1.07-.42-1.45s-.62-.66-1.03-.84c-.41-.18-.86-.27-1.34-.26s-.93.11-1.35.3-.76.48-1.04.86c-.28.38-.42.84-.42,1.38,0,.35.07.69.2,1.03.14.34.33.63.58.89.25.25.55.46.89.62.35.16.73.24,1.14.24.46,0,.86-.08,1.2-.24.35-.16.64-.36.87-.62s.41-.55.53-.89c.12-.34.18-.68.18-1.03Zm-2.78-10.85c-.26,0-.5.07-.72.22-.22.15-.42.34-.59.59s-.3.54-.4.86-.15.67-.15,1.04c0,.35.05.69.15,1.02s.23.62.4.87c.17.25.36.45.59.6.22.15.46.23.72.23s.48-.08.7-.23.41-.35.58-.6c.17-.25.3-.54.4-.87s.15-.67.15-1.02c0-.37-.05-.72-.15-1.04s-.23-.61-.4-.86c-.17-.25-.36-.45-.58-.59s-.45-.22-.7-.22Z"/>
      <path class="cls-1" d="m92.89,55.15c-.4-.17-.78-.4-1.12-.69-.35-.29-.65-.61-.89-.98-.25-.36-.44-.75-.58-1.16-.14-.41-.2-.84-.2-1.29,0-.56.12-1.11.35-1.64.23-.53.55-1.01.96-1.42.41-.42.9-.75,1.46-1,.57-.25,1.18-.37,1.85-.37.25,0,.53.02.85.07.32.04.65.12.98.22.34.1.67.24.99.42.33.17.62.4.88.67.26.28.47.61.63,1.01.16.4.24.87.24,1.41v.91l-6.57.03c.08,1.15.3,2.03.68,2.64s.82.91,1.32.91c.21,0,.43-.01.67-.04s.49-.08.74-.16c.25-.08.51-.2.77-.36.26-.16.51-.37.76-.63l.41.42c-.69.67-1.49,1.1-2.39,1.27s-1.83.1-2.78-.23Zm1.97-7.97c-.63,0-1.12.29-1.46.86-.35.58-.58,1.4-.68,2.47l4.28.02c0-.67-.07-1.23-.22-1.66s-.33-.78-.54-1.03c-.21-.25-.44-.42-.69-.52-.25-.1-.48-.15-.68-.15Z"/>
    </g>
    <path class="cls-2" d="m164.61,41.8c-3.4,0-6.18,3.18-6.34,7.17h-.02c-.16-3.99-2.94-7.17-6.34-7.17,3.51,0,6.35-3.38,6.35-7.55,0,4.17,2.84,7.54,6.35,7.55Z"/>
  </g>
</svg>