<?xml version="1.0" encoding="UTF-8"?>
<svg id="_레이어_2" data-name="레이어 2" xmlns="http://www.w3.org/2000/svg" viewBox="0 0 533.27 585.02">
  <defs>
    <style>
      .cls-1 {
        fill: #333;
      }

      .cls-2 {
        fill: none;
        stroke-width: .75px;
      }

      .cls-2, .cls-3 {
        stroke: #333;
        stroke-miterlimit: 10;
      }

      .cls-3 {
        fill: #edffd4;
      }
    </style>
  </defs>
  <g id="_레이어_1-2" data-name="레이어 1">
    <g>
      <g>
        <path class="cls-1" d="m308.17,5.65h192.5c17.99,0,32.6,14.61,32.6,32.6v514.18c0,17.99-14.61,32.6-32.6,32.6H38.24c-17.99,0-32.6-14.61-32.6-32.6v-244.26C5.65,141.2,141.2,5.65,308.17,5.65Z"/>
        <path class="cls-3" d="m306.5.5h189.03c17.99,0,32.6,14.61,32.6,32.6v514.18c0,17.99-14.61,32.6-32.6,32.6H33.1c-17.99,0-32.6-14.61-32.6-32.6v-240.78C.5,137.61,137.61.5,306.5.5Z"/>
      </g>
      <g>
        <path class="cls-1" d="m248.89,65.91h-1.52c-.04-1.08-.12-1.98-.25-2.69-.13-.71-.4-1.27-.81-1.68-.45-.45-1.07-.76-1.85-.93-.79-.17-1.85-.25-3.2-.25h-7.97v32.21c0,1.27.07,2.3.22,3.09.15.79.43,1.4.84,1.85.41.45.97.76,1.68.93.71.17,1.63.25,2.75.25v1.4c-.97,0-2.1,0-3.4-.03s-2.61-.03-3.96-.03h-4.01c-1.29,0-2.4.02-3.34.06v-1.4c2.13,0,3.57-.39,4.32-1.18.75-.79,1.12-2.43,1.12-4.94v-32.21h-6.85c-1.38,0-2.52.08-3.39.25-.88.17-1.6.46-2.16.87-.56.41-1,.97-1.32,1.68-.32.71-.61,1.63-.87,2.75h-1.52l.62-7.74c2.43.11,5.18.19,8.25.22,3.07.04,6.19.06,9.37.06s6.36-.02,9.43-.06c3.07-.04,5.84-.11,8.31-.22l-.51,7.74Z"/>
        <path class="cls-1" d="m272.52,97.95c-.82.79-1.69,1.5-2.61,2.13-.92.64-1.84.95-2.78.95s-1.62-.41-2.16-1.23c-.54-.82-.85-2.02-.93-3.59-1.38,1.46-2.92,2.63-4.6,3.51-1.68.88-3.44,1.32-5.28,1.32-1.68,0-3.11-.55-4.27-1.66s-1.7-2.5-1.63-4.18c.04-1.38.46-2.57,1.26-3.56.8-.99,1.92-1.86,3.34-2.61,1.38-.75,3.03-1.44,4.94-2.08,1.91-.64,3.98-1.31,6.23-2.02v-3.87c0-1.65-.38-3-1.15-4.07-.77-1.07-2.25-1.6-4.46-1.6-1.57,0-2.97.46-4.18,1.38-1.22.92-1.84,2.03-1.88,3.34,0,.9-.18,1.55-.53,1.96-.36.41-.79.62-1.32.62-.45,0-.79-.19-1.04-.56-.24-.37-.37-.86-.37-1.46,0-1.01.48-1.98,1.43-2.92.95-.93,2.5-1.96,4.63-3.09,1.24-.67,2.25-1.16,3.06-1.46.8-.3,1.66-.45,2.55-.45,1.79,0,3.36.54,4.69,1.63,1.33,1.09,1.99,2.66,1.99,4.71v15.32c0,2.1.46,3.29,1.38,3.59.92.3,2.09-.04,3.51-1.01l.17.95Zm-8.47-11.56c-4.12,1.23-7.19,2.38-9.23,3.45-2.04,1.07-3.06,2.42-3.06,4.07s.44,2.89,1.32,3.51c.88.62,2.1.93,3.68.93,1.38,0,2.71-.37,3.98-1.12,1.27-.75,2.38-1.63,3.31-2.64v-8.19Z"/>
        <path class="cls-1" d="m283.77,75.78c-.02,1.01-.03,1.74-.03,2.19.79-.56,1.62-1.16,2.5-1.8.88-.64,1.77-1.2,2.67-1.68.93-.52,1.87-.95,2.81-1.29s1.87-.5,2.81-.5c1.35,0,2.55.38,3.62,1.15,1.07.77,1.86,2.1,2.38,4.01,1.57-1.23,3.27-2.4,5.11-3.51,1.83-1.1,3.69-1.66,5.56-1.66,1.12,0,2.08.23,2.89.7.8.47,1.47,1.09,1.99,1.88.52.79.92,1.69,1.18,2.72s.39,2.09.39,3.17v13.36c0,1.57.25,2.66.76,3.25.51.6,1.54.9,3.12.9v1.4c-1.54-.04-3.38-.06-5.53-.08-2.15-.02-4.05,0-5.7.08v-1.4c1.61,0,2.67-.3,3.17-.9.5-.6.76-1.68.76-3.25v-11.28c0-1.01-.06-1.97-.17-2.89-.11-.92-.36-1.71-.73-2.38-.38-.67-.93-1.22-1.66-1.63-.73-.41-1.73-.62-3-.62-.71,0-1.45.14-2.22.42-.77.28-1.53.63-2.27,1.04-.71.38-1.38.79-1.99,1.24-.62.45-1.11.82-1.49,1.12v14.98c0,1.57.27,2.66.81,3.25.54.6,1.64.9,3.28.9v1.4c-.82,0-1.73,0-2.72-.03s-1.99-.03-3-.03h-3.06c-.99,0-1.88.02-2.67.06v-1.4c1.57,0,2.61-.3,3.11-.9.51-.6.76-1.68.76-3.25v-11.28c0-1.01-.05-1.97-.14-2.89-.09-.92-.33-1.71-.7-2.38-.38-.67-.92-1.22-1.63-1.63-.71-.41-1.7-.62-2.97-.62-.56,0-1.19.12-1.88.37s-1.41.55-2.16.93c-.75.41-1.47.85-2.16,1.32-.69.47-1.3.95-1.82,1.43v14.76c0,1.57.25,2.66.76,3.25.5.6,1.56.9,3.17.9v1.4c-1.61-.04-3.51-.06-5.7-.08-2.19-.02-4.12,0-5.81.08v-1.4c1.68,0,2.79-.3,3.31-.9.52-.6.79-1.68.79-3.25v-13.36c0-1.01-.03-1.81-.08-2.41-.06-.6-.2-1.07-.42-1.4s-.56-.56-1.01-.67c-.45-.11-1.07-.17-1.85-.17v-1.18c1.2-.19,2.29-.47,3.28-.84s1.9-.95,2.72-1.74h1.07c-.11,1.01-.18,2.02-.2,3.03Z"/>
        <path class="cls-1" d="m332.85,54.63c-.11,1.01-.19,2.09-.22,3.23s-.06,2.16-.06,3.06v17c.6-.56,1.3-1.14,2.1-1.74.8-.6,1.64-1.16,2.5-1.68.86-.52,1.73-.95,2.61-1.29.88-.34,1.69-.5,2.44-.5,1.57,0,3.01.36,4.32,1.07s2.41,1.65,3.31,2.81c.93,1.16,1.66,2.5,2.16,4.01.5,1.52.76,3.08.76,4.69,0,2.13-.35,4.15-1.04,6.06s-1.64,3.59-2.83,5.05c-1.23,1.42-2.68,2.55-4.35,3.4-1.66.84-3.49,1.26-5.47,1.26-1.8,0-3.46-.27-5-.81-1.53-.54-2.71-1.06-3.54-1.54l-1.35,1.57-1.01-.45c.26-1.76.49-3.54.67-5.36s.28-3.64.28-5.47v-25.93c0-.97-.05-1.75-.14-2.33-.09-.58-.29-1.04-.59-1.37-.26-.3-.64-.49-1.15-.56-.5-.07-1.15-.11-1.94-.11v-1.12c1.2-.22,2.37-.57,3.51-1.04,1.14-.47,2.14-1.09,3-1.88h1.01Zm-.28,38.78c0,1.76.54,3.19,1.63,4.29,1.08,1.1,2.81,1.66,5.16,1.66,1.76,0,3.27-.35,4.55-1.04,1.27-.69,2.3-1.58,3.09-2.67.82-1.12,1.42-2.37,1.8-3.73.37-1.37.56-2.74.56-4.12,0-3.52-.78-6.43-2.33-8.75-1.55-2.32-3.66-3.48-6.31-3.48-1.38,0-2.83.47-4.35,1.4-1.52.94-2.78,1.93-3.79,2.97v13.47Z"/>
        <path class="cls-1" d="m378.36,95.59c-1.8,1.46-3.67,2.73-5.61,3.82s-3.85,1.63-5.72,1.63c-.71,0-1.42-.12-2.13-.36-.71-.24-1.37-.66-1.96-1.26-.56-.56-1.02-1.29-1.38-2.19-.36-.9-.53-2-.53-3.31v-15.49c0-1.27-.24-2.12-.73-2.55-.49-.43-1.44-.68-2.86-.76v-1.07c.52,0,1.05-.02,1.57-.06s1.08-.08,1.68-.11,1.22-.08,1.85-.14c.64-.06,1.35-.12,2.13-.2-.07.75-.12,1.61-.14,2.58-.02.97-.03,1.74-.03,2.3v12.46c0,2.92.38,4.85,1.15,5.78.77.94,1.99,1.4,3.68,1.4,1.42,0,2.96-.37,4.63-1.12,1.66-.75,3.15-1.74,4.46-2.97v-15.54c0-1.27-.36-2.12-1.07-2.55-.71-.43-1.76-.68-3.14-.76v-1.07c.52,0,1.08-.02,1.68-.06.6-.04,1.22-.08,1.85-.11.64-.04,1.31-.08,2.02-.14.71-.06,1.46-.12,2.24-.2-.08.75-.12,1.61-.14,2.58-.02.97-.03,1.74-.03,2.3v17.45c0,1.2.29,1.92.87,2.16s1.6.31,3.06.2v1.07c-.37.08-.83.18-1.38.31-.54.13-1.11.29-1.71.48-.64.15-1.26.31-1.88.48-.62.17-1.21.33-1.77.48-.22.08-.39.08-.5,0-.11-.08-.17-.22-.17-.45v-4.99Z"/>
        <path class="cls-1" d="m397.11,78.87c.56-.75,1.2-1.49,1.91-2.22.71-.73,1.42-1.39,2.13-1.99.75-.56,1.48-1.02,2.19-1.38.71-.35,1.38-.53,2.02-.53.9,0,1.68.23,2.36.7.67.47,1.01,1.11,1.01,1.94,0,.9-.27,1.58-.81,2.05-.54.47-1.06.7-1.54.7-.45,0-.81-.06-1.07-.2-.26-.13-.53-.29-.79-.48-.26-.19-.55-.36-.87-.51-.32-.15-.74-.22-1.26-.22-.34,0-.8.17-1.4.5s-1.18.77-1.74,1.29c-.6.52-1.1,1.13-1.52,1.82-.41.69-.62,1.39-.62,2.1v11.9c0,.9.07,1.64.2,2.22s.42,1.02.87,1.32c.45.3,1.08.5,1.91.62.82.11,1.93.17,3.31.17v1.4c-.86-.04-1.93-.06-3.2-.08-1.27-.02-2.58-.03-3.93-.03s-2.66,0-3.93.03c-1.27.02-2.34.05-3.2.08v-1.4c1.91,0,3.14-.24,3.71-.73.56-.49.84-1.68.84-3.59v-13.19c0-1.01-.04-1.81-.11-2.41-.07-.6-.22-1.07-.45-1.4-.22-.34-.56-.56-1.01-.67s-1.07-.17-1.85-.17v-1.18c1.2-.19,2.29-.47,3.28-.84.99-.37,1.92-.95,2.78-1.74h1.01c-.11,1.01-.18,2.06-.2,3.14-.02,1.08-.03,2.08-.03,2.97Z"/>
        <path class="cls-1" d="m419.27,94.92c0,1.61.26,2.64.79,3.09.52.45,1.61.67,3.25.67v1.4h-1.46c-.45,0-.9-.02-1.35-.06-.45,0-.91,0-1.38-.03-.47-.02-.96-.03-1.49-.03-.56,0-1.08,0-1.54.03-.47.02-.93.03-1.38.03-.49,0-.96,0-1.43.03-.47.02-.96.03-1.49.03v-1.4c1.65,0,2.73-.22,3.25-.67.52-.45.79-1.48.79-3.09v-13.75c0-1.01-.04-1.81-.11-2.41-.07-.6-.22-1.07-.45-1.4-.22-.34-.56-.56-1.01-.67s-1.07-.17-1.85-.17v-1.18c1.2-.19,2.29-.47,3.28-.84.99-.37,1.92-.95,2.78-1.74h1.01c-.11,1.01-.18,2.09-.2,3.23-.02,1.14-.03,2.16-.03,3.06v15.88Zm-4.6-34.46c0-.75.27-1.4.81-1.96.54-.56,1.19-.84,1.94-.84s1.4.28,1.96.84c.56.56.84,1.22.84,1.96s-.28,1.39-.84,1.94-1.22.81-1.96.81-1.39-.27-1.94-.81c-.54-.54-.81-1.19-.81-1.94Z"/>
        <path class="cls-1" d="m434.45,75.73c-.02.97-.03,1.7-.03,2.19,1.68-1.23,3.5-2.41,5.44-3.54,1.95-1.12,3.82-1.68,5.61-1.68,2.25,0,3.85.81,4.83,2.44.97,1.63,1.46,3.6,1.46,5.92v13.3c0,1.57.26,2.68.79,3.34.52.66,1.63.98,3.31.98v1.4h-1.49c-.47,0-.93-.02-1.38-.06-.45,0-.91,0-1.38-.03-.47-.02-.96-.03-1.49-.03-.56,0-1.08,0-1.54.03-.47.02-.93.03-1.38.03s-.91,0-1.38.03c-.47.02-.96.03-1.49.03v-1.4c1.61,0,2.67-.33,3.2-.98.52-.65.79-1.77.79-3.34v-13.36c0-1.87-.43-3.22-1.29-4.04-.86-.82-2.28-1.23-4.27-1.23-.56.04-1.22.18-1.96.42-.75.24-1.5.53-2.24.87-.79.37-1.54.79-2.27,1.23-.73.45-1.36.9-1.88,1.35v14.76c0,1.57.26,2.68.79,3.34.52.66,1.63.98,3.31.98v1.4h-1.51c-.45,0-.9-.02-1.35-.06-.45,0-.91,0-1.38-.03-.47-.02-.96-.03-1.49-.03-.56,0-1.08,0-1.54.03-.47.02-.93.03-1.38.03-.49,0-.96,0-1.43.03s-.96.03-1.49.03v-1.4c1.65,0,2.72-.33,3.23-.98.51-.65.76-1.77.76-3.34v-13.19c0-1.01-.03-1.81-.08-2.41-.06-.6-.2-1.07-.42-1.4s-.56-.56-1.01-.67c-.45-.11-1.07-.17-1.85-.17v-1.18c1.2-.19,2.29-.47,3.28-.84.99-.37,1.9-.95,2.72-1.74h1.07c-.11,1.01-.18,2-.2,2.97Z"/>
        <path class="cls-1" d="m461.48,92.06c.11.79.29,1.61.53,2.47.24.86.61,1.65,1.1,2.36.49.71,1.13,1.29,1.94,1.74s1.84.67,3.12.67c2.13,0,3.6-.46,4.4-1.38s1.21-1.94,1.21-3.06c0-.86-.18-1.6-.53-2.22s-.81-1.17-1.38-1.66c-.56-.49-1.22-.93-1.96-1.32-.75-.39-1.51-.79-2.3-1.21-1.91-1.01-3.56-2.16-4.94-3.45-1.38-1.29-2.08-2.89-2.08-4.8,0-.97.21-1.91.62-2.81.41-.9.99-1.7,1.74-2.41.75-.67,1.66-1.22,2.72-1.66,1.07-.43,2.27-.65,3.62-.65.9,0,1.9.12,3,.36,1.1.24,2.16.65,3.17,1.21l.45,6.17h-1.18c-.26-1.91-.86-3.38-1.8-4.41-.94-1.03-2.36-1.54-4.27-1.54-1.46,0-2.73.36-3.82,1.09-1.09.73-1.63,1.71-1.63,2.95,0,.9.21,1.67.62,2.33.41.66.96,1.25,1.63,1.77.67.49,1.44.94,2.3,1.35.86.41,1.74.8,2.64,1.18.86.41,1.7.84,2.53,1.29.82.45,1.55.99,2.19,1.63.6.6,1.09,1.3,1.49,2.1.39.8.59,1.73.59,2.78s-.19,2-.56,2.97-.95,1.83-1.74,2.58c-.79.79-1.78,1.4-2.97,1.85-1.2.45-2.6.67-4.21.67-1.12,0-2.32-.17-3.59-.5-1.27-.34-2.36-.79-3.26-1.35l-.67-7.13h1.29Z"/>
      </g>
      <g>
        <path class="cls-1" d="m204.15,78.6c-14.86,1.27-29.74,1.53-44.63.74,14.86-1.28,29.74-1.52,44.63-.74h0Z"/>
        <path class="cls-1" d="m181.83,103.15c-1.03-16.11-1.04-32.23,0-48.35,1.04,16.11,1.03,32.23,0,48.35h0Z"/>
        <circle class="cls-1" cx="181.83" cy="79.35" r="2.13"/>
      </g>
      <rect class="cls-2" x="48.48" y="203.53" width="31.46" height="334.28" rx="15.73" ry="15.73"/>
      <polygon class="cls-1" points="70.43 235.17 66.2 233.79 66.44 238.24 63.82 234.63 61.41 238.37 61.41 233.92 57.26 235.52 59.88 231.92 55.58 230.78 59.81 229.41 57.01 225.95 61.24 227.34 61 222.89 63.61 226.49 66.03 222.76 66.02 227.21 70.18 225.61 67.55 229.2 71.86 230.35 67.62 231.72 70.43 235.17"/>
      <polygon class="cls-1" points="70.43 259.75 66.2 258.37 66.44 262.82 63.82 259.21 61.41 262.95 61.41 258.5 57.26 260.1 59.88 256.5 55.58 255.36 59.81 253.99 57.01 250.53 61.24 251.91 61 247.47 63.61 251.07 66.03 247.34 66.02 251.79 70.18 250.19 67.55 253.78 71.86 254.93 67.62 256.3 70.43 259.75"/>
      <polygon class="cls-1" points="70.43 284.33 66.2 282.95 66.44 287.4 63.82 283.79 61.41 287.53 61.41 283.08 57.26 284.68 59.88 281.08 55.58 279.94 59.81 278.57 57.01 275.11 61.24 276.49 61 272.05 63.61 275.65 66.03 271.92 66.02 276.37 70.18 274.77 67.55 278.36 71.86 279.51 67.62 280.88 70.43 284.33"/>
      <path class="cls-1" d="m63.72,303.32c.65,69.92.66,148.35,0,218.27-.66-69.92-.65-148.35,0-218.27h0Z"/>
    </g>
  </g>
</svg>