<?xml version="1.0" encoding="UTF-8"?>
<svg id="_레이어_2" data-name="레이어 2" xmlns="http://www.w3.org/2000/svg" viewBox="0 0 533.27 585.02">
  <defs>
    <style>
      .cls-1 {
        fill: #333;
      }

      .cls-2 {
        fill: none;
        stroke-width: .75px;
      }

      .cls-2, .cls-3 {
        stroke: #333;
        stroke-miterlimit: 10;
      }

      .cls-3 {
        fill: #edffd4;
      }
    </style>
  </defs>
  <g id="_레이어_1-2" data-name="레이어 1">
    <g>
      <path class="cls-1" d="m308.17,5.65h192.5c17.99,0,32.6,14.61,32.6,32.6v514.18c0,17.99-14.61,32.6-32.6,32.6H38.24c-17.99,0-32.6-14.61-32.6-32.6v-244.26C5.65,141.2,141.2,5.65,308.17,5.65Z"/>
      <path class="cls-3" d="m306.5.5h189.03c17.99,0,32.6,14.61,32.6,32.6v514.18c0,17.99-14.61,32.6-32.6,32.6H33.1c-17.99,0-32.6-14.61-32.6-32.6v-240.78C.5,137.61,137.61.5,306.5.5Z"/>
    </g>
    <g>
      <path class="cls-1" d="m233.56,76.89c1.37,1.42,2.85,2.86,4.44,4.3,1.59,1.45,3.32,2.86,5.2,4.23l-2.21,2.17c-1.37-1.6-2.7-3.17-4-4.72s-2.68-3.16-4.15-4.84c-1.37,2.01-2.92,3.88-4.64,5.63-1.73,1.75-3.66,3.36-5.79,4.84l-.76-.76c1.52-1.19,2.92-2.48,4.19-3.86,1.27-1.38,2.4-2.81,3.39-4.28.99-1.47,1.84-2.98,2.55-4.53.71-1.55,1.26-3.08,1.64-4.61.1-.36.17-.63.21-.82s-.11-.39-.44-.59c-.23-.15-.53-.34-.91-.57s-.85-.48-1.41-.76l.61-.8c1.04.28,2.04.55,3.01.8.96.25,1.94.58,2.93.99-.48,1.45-1.04,2.85-1.68,4.21-.63,1.36-1.36,2.68-2.17,3.98Zm15,.3c-.84.03-1.68.06-2.53.11-.85.05-1.67.1-2.46.15-.79.05-1.52.12-2.21.21-.69.09-1.28.18-1.79.29l-.99-2.21c.51.1,1.17.18,2,.23s1.62.06,2.38.04c.36,0,.77,0,1.26-.02.48-.01.98-.02,1.48-.02s1.01,0,1.5-.02c.5-.01.95-.03,1.35-.06v-8.94c0-.87-.39-1.55-1.16-2.06-.77-.51-1.97-.96-3.6-1.35l.42-1.05c1.29.15,2.58.35,3.86.59,1.28.24,2.43.46,3.45.67-.13.46-.23.98-.3,1.56-.08.58-.11,1.13-.11,1.64v21.32c0,.79-.02,1.69-.06,2.7-.04,1.02-.08,2.03-.13,3.05-.05,1.02-.11,1.98-.19,2.89-.08.91-.17,1.66-.27,2.25l-1.6.19c-.05-.43-.09-.97-.13-1.62-.04-.65-.07-1.35-.1-2.09s-.04-1.52-.06-2.3c-.01-.79-.02-1.55-.02-2.28v-13.86Z"/>
      <path class="cls-1" d="m277.3,85.5c1.6-.05,3.19-.1,4.76-.15,1.57-.05,3.01-.14,4.3-.27-.08.23-.15.58-.23,1.07s-.17.96-.27,1.45l-.53,2.82c.2-.02.38-.04.53-.04s.3-.01.46-.04l-.19,1.79c-1.47-.08-3.04-.11-4.7-.11s-3.27.02-4.82.06c-1.55.04-2.96.08-4.23.13-1.27.05-2.22.09-2.86.11-.03.23-.04.49-.06.78-.01.29-.02.54-.02.74v1.64c0,.46.1.75.3.89.2.14.63.22,1.29.25.94.03,2.15.03,3.64,0,1.48-.03,3.04-.08,4.66-.17,1.62-.09,3.21-.2,4.76-.32,1.55-.13,2.87-.28,3.96-.46l-.53,2.36c-1.42-.05-2.98-.08-4.68-.09-1.7-.01-3.41,0-5.12.02-1.71.03-3.36.06-4.93.11-1.57.05-2.95.1-4.11.15-.66.05-1.14-.11-1.43-.48-.29-.37-.44-.84-.44-1.43v-1.79c0-.48-.03-.88-.1-1.2s-.19-.58-.38-.8c-.19-.21-.46-.41-.82-.57-.36-.16-.84-.34-1.45-.51l.42-.88c1.37.15,2.86.26,4.47.32,1.61.06,3.24.09,4.87.08,1.64-.01,3.25-.05,4.83-.11,1.59-.06,3.04-.15,4.36-.25l.11-3.96c-.63-.03-1.48-.04-2.53-.04s-2.15.01-3.29.03c-1.14.02-2.25.05-3.31.09-1.07.03-1.93.07-2.59.12-.28.02-.63.05-1.05.07s-.87.05-1.35.09c-.48.04-.98.09-1.49.15s-1,.13-1.48.21l-1.33-2.32c.3.05.66.11,1.07.17.41.06.84.12,1.29.17.46.05.92.09,1.39.11.47.03.91.04,1.31.04h5.29c-.05-.58-.09-1.26-.11-2.04s-.04-1.47-.04-2.08c-1.12.03-2.21.06-3.27.1s-2.07.07-3.01.09c-.94.03-1.78.06-2.51.1-.74.04-1.31.07-1.71.09-.99.05-1.97.11-2.95.19-.98.08-1.94.18-2.88.3l-.99-2.63c1.19.13,2.32.22,3.39.29,1.07.06,2.2.12,3.39.17.63.03,1.47.04,2.51.04s2.18,0,3.41-.02c1.23-.01,2.51-.04,3.85-.08,1.33-.04,2.61-.07,3.85-.09,1.23-.03,2.36-.06,3.39-.1,1.03-.04,1.86-.07,2.49-.09,1.75-.08,3.41-.18,4.99-.32,1.57-.14,3.05-.31,4.42-.51l-.38,2.51c-1.02-.05-2.27-.09-3.75-.11-1.48-.02-3.09-.05-4.82-.08-.74,0-1.7,0-2.89.02s-2.47.04-3.85.09c0,.74-.03,1.47-.08,2.21-.05.74-.13,1.37-.23,1.9Zm-.34-20.83c1.07.1,2.06.34,2.97.71.91.37,1.69.83,2.34,1.37.65.55,1.16,1.18,1.52,1.9.37.72.55,1.49.55,2.3,0,.94-.22,1.8-.65,2.57-.43.77-1.03,1.45-1.81,2.02-.77.57-1.69,1.02-2.74,1.33s-2.19.48-3.41.48-2.35-.16-3.39-.48c-1.04-.32-1.95-.76-2.72-1.33-.77-.57-1.38-1.24-1.81-2.02-.43-.77-.65-1.63-.65-2.57,0-.86.2-1.67.61-2.42s.96-1.41,1.68-1.98c.71-.57,1.55-1.03,2.53-1.37.98-.34,2.05-.54,3.22-.59-.05-.28-.2-.51-.44-.7-.24-.19-.65-.37-1.24-.55l.34-.69c.63.13,1.23.24,1.79.32.56.09,1.17.2,1.83.32-.1.23-.2.45-.29.67-.09.22-.17.45-.25.7Zm4.68,6.13c0-.68-.15-1.34-.46-1.96s-.72-1.16-1.24-1.62c-.52-.46-1.14-.83-1.85-1.1s-1.48-.42-2.32-.42-1.61.14-2.32.42c-.71.28-1.33.65-1.87,1.1-.53.46-.95,1-1.26,1.62-.3.62-.46,1.28-.46,1.96,0,.74.15,1.41.46,2.02.3.61.72,1.14,1.26,1.58s1.16.79,1.87,1.05c.71.25,1.48.38,2.32.38s1.61-.13,2.32-.38,1.33-.6,1.87-1.05c.53-.44.95-.97,1.24-1.58.29-.61.44-1.28.44-2.02Z"/>
      <path class="cls-1" d="m308.07,76.63c1.4,1.45,2.91,2.89,4.53,4.34,1.62,1.45,3.43,2.89,5.41,4.34l-2.25,2.13c-1.4-1.62-2.77-3.22-4.11-4.78-1.35-1.56-2.78-3.18-4.3-4.85-2.74,4.16-6.28,7.73-10.62,10.7l-.76-.76c1.52-1.19,2.92-2.48,4.21-3.86,1.28-1.38,2.42-2.81,3.41-4.28.99-1.47,1.84-2.98,2.55-4.53.71-1.55,1.26-3.08,1.64-4.61.1-.36.17-.63.19-.82.02-.19-.13-.39-.46-.59-.23-.15-.53-.34-.89-.57-.37-.23-.84-.48-1.43-.76l.61-.8c1.07.28,2.07.55,3.03.8.95.25,1.92.58,2.91.99-.46,1.4-.98,2.75-1.58,4.05-.6,1.31-1.29,2.6-2.08,3.87Zm10.05-14.13c1.27.15,2.55.35,3.85.59,1.29.24,2.44.46,3.43.67-.1.46-.19.98-.27,1.56-.08.58-.11,1.13-.11,1.64v21.32c0,.79-.02,1.69-.06,2.7-.04,1.02-.08,2.03-.13,3.05-.05,1.02-.11,1.98-.19,2.89-.08.91-.17,1.66-.27,2.25l-1.6.19c-.05-.43-.09-.97-.13-1.62-.04-.65-.07-1.35-.1-2.09s-.04-1.52-.06-2.3c-.01-.79-.02-1.55-.02-2.28v-24.1c0-.86-.39-1.55-1.16-2.06-.77-.51-1.97-.96-3.6-1.35l.42-1.05Z"/>
      <path class="cls-1" d="m349.04,68.29c-.48-.02-1.04-.04-1.67-.04s-1.28.01-1.92.04c-.65.03-1.28.06-1.9.11-.62.05-1.16.09-1.62.11-.28.03-.63.05-1.05.08-.42.03-.87.06-1.35.1s-.98.09-1.5.15c-.52.06-1.02.13-1.5.21l-1.29-2.32c.58.13,1.37.23,2.36.32.99.09,1.89.13,2.7.13.69,0,1.5,0,2.44-.02.94-.01,1.94-.03,3.01-.06s2.16-.07,3.27-.13c1.12-.06,2.2-.15,3.24-.25-.08.3-.17.72-.29,1.26s-.2.94-.25,1.22l-.84,4.04c.25-.05.49-.08.72-.1.23-.01.44-.03.65-.06l-.19,1.83c-2.87-.13-5.25-.14-7.14-.04-1.89.1-3.48.18-4.78.23,0,.2-.01.45-.04.74-.03.29-.04.54-.04.74v3.05c0,.43.14.79.42,1.08.28.29.67.41,1.18.36,1.04-.08,2.29-.22,3.75-.44,1.46-.22,2.99-.48,4.61-.78s3.25-.65,4.91-1.05c1.66-.39,3.22-.82,4.66-1.28v-10.58c0-.86-.39-1.55-1.16-2.06-.77-.51-1.97-.96-3.6-1.35l.42-1.05c1.29.15,2.58.35,3.87.59,1.28.24,2.42.46,3.41.67-.1.46-.19.98-.27,1.56-.08.58-.11,1.13-.11,1.64v9.71c0,.46-.02.98-.06,1.58s-.09,1.19-.15,1.79c-.06.6-.13,1.16-.19,1.68-.06.52-.13.95-.21,1.28l-1.67.23c-.08-.56-.14-1.27-.19-2.13-.05-.86-.08-1.65-.08-2.36v-.11c-1.35.48-2.85.96-4.51,1.43-1.66.47-3.34.9-5.04,1.29-1.7.39-3.35.74-4.95,1.05-1.6.3-3.01.53-4.23.69-1.24.15-2.11,0-2.61-.48-.5-.47-.74-1.3-.74-2.49v-2.86c0-.48-.03-.88-.1-1.2-.06-.32-.19-.58-.38-.8s-.46-.4-.82-.55-.84-.33-1.45-.53l.42-.84c2.61.28,5.02.4,7.22.36,2.2-.04,4.3-.13,6.3-.29l.34-5.1Zm10.58,28.75c-1.93-.08-3.9-.08-5.92,0-2.02.08-4.19.18-6.53.3-.05.25-.1.5-.13.72s-.08.44-.13.65l-1.56.27c-.08-.51-.14-1.08-.19-1.73s-.08-1.33-.08-2.04v-6.36c0-.86-.2-1.5-.61-1.9-.41-.41-1.23-.75-2.48-1.03l.38-.95c.86.08,1.75.17,2.67.29.91.11,1.87.27,2.86.48-.1.48-.19.98-.27,1.5s-.11,1.02-.11,1.5v.57c2.03-.03,4-.08,5.9-.15,1.9-.08,3.93-.22,6.09-.42v-1.07c0-.43-.06-.8-.17-1.1-.11-.3-.3-.57-.57-.8s-.62-.43-1.07-.61c-.44-.18-1.01-.34-1.69-.5l.42-.99c1.07.13,2.08.25,3.03.38.95.13,1.92.29,2.91.5-.1.46-.19.95-.27,1.47-.08.52-.11,1.04-.11,1.54v5.48c0,.91-.07,1.87-.21,2.86-.14.99-.27,1.79-.4,2.4l-1.6.23c-.05-.2-.08-.43-.1-.69s-.03-.52-.06-.8Zm-.11-2.32v-4.23c-2.01-.08-3.97-.09-5.88-.04-1.92.05-3.95.15-6.11.3v2.78c0,.38-.01.77-.04,1.16-.03.39-.08.79-.15,1.2,2.06-.03,4.09-.08,6.09-.17,2-.09,4.04-.21,6.09-.36v-.65Z"/>
      <path class="cls-1" d="m388.14,83.63c.3-.02.59-.05.86-.08.27-.02.53-.05.78-.08l-.49,2.09c-2.03-.13-4.16-.18-6.38-.17-2.22.01-4.44.07-6.64.17-.05.58-.13,1.1-.23,1.56l-1.49.23c-.13-.51-.22-1.08-.29-1.71-.06-.63-.12-1.28-.17-1.94l-.68-9.94c-.03-.48-.08-.88-.17-1.18s-.24-.55-.44-.74c-.2-.19-.48-.36-.82-.5-.34-.14-.78-.29-1.31-.44l.42-.95c1.62.2,3.19.34,4.7.4,1.51.06,3.01.08,4.51.06s3.02-.09,4.57-.19c1.55-.1,3.19-.23,4.91-.38-.08.48-.16,1.08-.25,1.79-.09.71-.18,1.49-.29,2.34-.1.85-.21,1.73-.32,2.65-.11.91-.22,1.8-.32,2.65-.1.85-.19,1.66-.27,2.42s-.14,1.41-.19,1.94Zm-1.52-11.84c-.81-.02-1.69-.04-2.63-.06s-1.88,0-2.82.02c-.94.03-1.85.06-2.74.1s-1.69.08-2.4.13l.34,11.04v1.14c1.65,0,3.3-.02,4.95-.08,1.65-.05,3.24-.14,4.76-.27l.53-12.03Zm5.9-9.29c1.29.15,2.58.35,3.86.59,1.28.24,2.43.46,3.45.67-.13.46-.23.98-.3,1.56-.08.58-.11,1.13-.11,1.64v21.32c0,.79-.02,1.69-.06,2.7-.04,1.02-.08,2.03-.13,3.05-.05,1.02-.11,1.98-.19,2.89-.08.91-.17,1.66-.27,2.25l-1.6.19c-.05-.43-.09-.97-.13-1.62-.04-.65-.07-1.35-.1-2.09s-.04-1.52-.06-2.3c-.01-.79-.02-1.55-.02-2.28v-24.1c0-.86-.39-1.55-1.16-2.06-.77-.51-1.97-.96-3.6-1.35l.42-1.05Z"/>
      <path class="cls-1" d="m425.79,80.85c0,.76-.03,1.5-.08,2.25-.05.74-.11,1.42-.19,2.02,1.57-.05,3.15-.1,4.72-.15,1.57-.05,3.01-.14,4.3-.27-.08.23-.16.58-.25,1.07s-.17.95-.25,1.41l-.61,3.05c.23-.02.42-.04.59-.04s.32-.01.48-.04l-.19,1.79c-1.47-.08-3.04-.11-4.7-.11s-3.27.02-4.82.06c-1.55.04-2.96.08-4.23.13-1.27.05-2.22.09-2.86.11-.05.25-.08.52-.08.8v2.55c0,.51.1.82.3.93.2.11.63.18,1.29.21.94.03,2.15.03,3.64,0,1.48-.03,3.04-.08,4.66-.17,1.62-.09,3.21-.2,4.76-.32,1.55-.13,2.87-.28,3.96-.46l-.53,2.36c-1.42-.05-2.98-.08-4.68-.09-1.7-.01-3.41,0-5.12.02-1.71.03-3.36.06-4.93.11-1.57.05-2.95.1-4.11.15-.66.05-1.14-.11-1.43-.48-.29-.37-.44-.84-.44-1.43v-1.98c0-.51-.03-.92-.1-1.24s-.19-.58-.38-.8c-.19-.21-.46-.4-.82-.55s-.84-.32-1.45-.5l.42-.88c1.37.15,2.86.26,4.47.32,1.61.06,3.24.09,4.87.08,1.64-.01,3.25-.05,4.83-.11,1.59-.06,3.04-.15,4.36-.25l.11-4.15c-.63-.03-1.48-.04-2.53-.04s-2.15.01-3.29.04c-1.14.03-2.25.06-3.31.09-1.07.04-1.93.08-2.59.13-.28.03-.63.05-1.05.08s-.87.06-1.35.09c-.48.04-.98.09-1.49.15s-1,.13-1.48.21l-1.33-2.36c.3.05.66.11,1.07.17.41.06.84.12,1.29.17.46.05.92.09,1.39.11.47.03.91.04,1.31.04h5.22c-.03-.58-.05-1.22-.08-1.92-.03-.7-.04-1.31-.04-1.85v-1.18c-1.09.03-2.17.06-3.24.09s-2.07.07-3.01.09c-.94.03-1.78.06-2.51.1-.74.04-1.31.07-1.71.09-.99.05-1.97.12-2.95.21-.98.09-1.94.2-2.88.32l-.99-2.67c1.19.13,2.32.22,3.39.29,1.07.06,2.2.12,3.39.17.63.03,1.47.04,2.51.04s2.18,0,3.41-.02c1.23-.01,2.51-.04,3.85-.08,1.33-.04,2.61-.07,3.85-.09,1.23-.03,2.36-.06,3.39-.09,1.03-.04,1.86-.07,2.49-.1,1.75-.08,3.41-.18,4.99-.3,1.57-.13,3.05-.29,4.42-.5l-.38,2.51c-1.02-.05-2.27-.09-3.75-.12-1.48-.03-3.09-.05-4.82-.08-.74,0-1.7,0-2.89.02-1.19.01-2.47.04-3.85.1v.64Zm-1.48-12.56c2.03,1.07,4.23,2.06,6.61,2.97,2.37.91,4.87,1.76,7.48,2.55l-2.28,2.21c-1.85-1.01-3.9-2.11-6.15-3.29-2.25-1.18-4.42-2.34-6.53-3.48-1.96,1.9-4.14,3.48-6.55,4.74-2.41,1.26-4.85,2.28-7.31,3.07l-.8-.84c1.5-.56,2.95-1.21,4.36-1.94,1.41-.74,2.72-1.54,3.92-2.4,1.21-.86,2.3-1.78,3.29-2.76.99-.98,1.81-1.97,2.47-2.99.2-.3.3-.55.29-.74-.01-.19-.17-.39-.48-.59-.23-.18-.5-.35-.8-.53-.3-.18-.79-.43-1.45-.76l.69-.91c1.04.28,2.06.59,3.06.93s2.01.7,3.03,1.08c-.43.66-.88,1.3-1.33,1.92-.46.62-.96,1.21-1.52,1.77Z"/>
      <path class="cls-1" d="m455.07,82.98c2.56-.23,5.01-.51,7.35-.84,2.33-.33,4.57-.71,6.7-1.14v-14.06c0-.86-.39-1.54-1.16-2.05-.77-.51-1.97-.96-3.6-1.35l.42-1.05c1.29.15,2.58.35,3.86.59,1.28.24,2.42.46,3.41.67-.1.46-.19.98-.27,1.56-.08.58-.11,1.13-.11,1.64v10.39c1.04-.05,2.22-.15,3.54-.29,1.32-.14,2.67-.31,4.04-.51l-.34,2.32c-.53-.03-1.12-.04-1.75-.04h-1.92c-.65,0-1.28,0-1.88.02-.61.01-1.17.02-1.68.02v3.97c0,.58-.01,1.19-.04,1.84-.03.65-.07,1.29-.13,1.94-.06.65-.13,1.26-.21,1.85s-.15,1.09-.23,1.52l-1.67.27c-.05-.33-.09-.75-.11-1.26-.03-.51-.05-1.05-.08-1.62-.03-.57-.04-1.15-.06-1.73s-.02-1.1-.02-1.56v-2.04c-1.62.35-3.27.68-4.95.98-1.67.3-3.33.57-4.95.79-1.62.23-3.2.43-4.72.61-1.52.18-2.94.32-4.26.42-.28.03-.65.06-1.12.1-.47.04-.97.08-1.5.13l-1.6.15c-.53.05-1.02.11-1.45.19l-1.48-2.36c.84.13,1.75.23,2.74.3.99.08,1.9.09,2.74.04.69-.02,1.36-.05,2.04-.07.67-.03,1.34-.06,2-.11v-5.64c0-.43-.03-.79-.09-1.08-.06-.29-.2-.54-.42-.76-.22-.21-.51-.39-.9-.53-.38-.14-.89-.29-1.52-.44l.38-.95c.86.05,1.73.12,2.61.21.88.09,1.81.23,2.8.44-.1.48-.19.98-.27,1.5-.08.52-.11,1.02-.11,1.5v5.54Zm5.03-3.69c.15-.69.29-1.47.42-2.36.13-.89.24-1.81.34-2.76s.19-1.9.27-2.84c.08-.94.11-1.79.11-2.55-1.6,0-3.18.06-4.74.17-1.56.11-3.13.2-4.7.25-.79.05-1.61.1-2.47.15-.86.05-1.78.18-2.74.38l-1.33-2.44c1.02.13,1.97.23,2.86.3s1.74.11,2.55.11c2,0,4.1-.06,6.28-.17,2.18-.11,4.45-.36,6.82-.74l.72.65c-.41,2.16-.85,4.28-1.33,6.38-.48,2.09-1.02,3.86-1.6,5.31l-1.45.15Zm13.93,18.5c-1.6-.08-3.24-.13-4.91-.15-1.68-.03-3.32-.03-4.93-.02-1.61.01-3.15.04-4.63.09-1.47.05-2.78.11-3.92.19-.71.05-1.22-.09-1.52-.44-.3-.34-.46-.77-.46-1.28v-4.07c0-.58-.03-1.06-.1-1.43s-.21-.67-.44-.91-.56-.44-.99-.61c-.43-.17-1.03-.35-1.79-.55l.42-.95c.38.05.82.1,1.31.15.49.05,1,.11,1.5.17.51.06,1.01.13,1.52.19s.95.12,1.33.17c-.05.3-.1.73-.13,1.28s-.06,1.06-.06,1.54v3.81c0,.56.13.92.38,1.08.25.17.75.26,1.48.29.96.02,2.15.02,3.56,0,1.41-.03,2.87-.08,4.4-.15,1.52-.08,3.02-.18,4.49-.3,1.47-.13,2.77-.28,3.88-.46l-.42,2.36Z"/>
    </g>
    <rect class="cls-2" x="52.83" y="203.53" width="31.46" height="334.28" rx="15.73" ry="15.73" transform="translate(137.12 741.33) rotate(180)"/>
    <polygon class="cls-1" points="62.34 235.17 66.57 233.79 66.33 238.24 68.95 234.63 71.36 238.37 71.36 233.92 75.51 235.52 72.89 231.92 77.19 230.78 72.96 229.41 75.76 225.95 71.53 227.34 71.77 222.89 69.16 226.49 66.74 222.76 66.75 227.21 62.6 225.61 65.22 229.2 60.91 230.35 65.15 231.72 62.34 235.17"/>
    <polygon class="cls-1" points="62.34 259.75 66.57 258.37 66.33 262.82 68.95 259.21 71.36 262.95 71.36 258.5 75.51 260.1 72.89 256.5 77.19 255.36 72.96 253.99 75.76 250.53 71.53 251.91 71.77 247.47 69.16 251.07 66.74 247.34 66.75 251.79 62.6 250.19 65.22 253.78 60.91 254.93 65.15 256.3 62.34 259.75"/>
    <polygon class="cls-1" points="62.34 284.33 66.57 282.95 66.33 287.4 68.95 283.79 71.36 287.53 71.36 283.08 75.51 284.68 72.89 281.08 77.19 279.94 72.96 278.57 75.76 275.11 71.53 276.49 71.77 272.05 69.16 275.65 66.74 271.92 66.75 276.37 62.6 274.77 65.22 278.36 60.91 279.51 65.15 280.88 62.34 284.33"/>
    <path class="cls-1" d="m69.05,303.32c.65,69.92.66,148.35,0,218.27-.66-69.92-.65-148.35,0-218.27h0Z"/>
    <g>
      <path class="cls-1" d="m206.14,80.96c-14.86,1.27-29.74,1.53-44.63.74,14.86-1.28,29.74-1.52,44.63-.74h0Z"/>
      <path class="cls-1" d="m183.83,105.5c-1.03-16.11-1.04-32.23,0-48.35,1.04,16.11,1.03,32.23,0,48.35h0Z"/>
      <circle class="cls-1" cx="183.83" cy="81.7" r="2.13"/>
    </g>
  </g>
</svg>