<?xml version="1.0" encoding="UTF-8"?>
<svg id="_레이어_2" data-name="레이어 2" xmlns="http://www.w3.org/2000/svg" viewBox="0 0 153.92 106.84">
  <defs>
    <style>
      .cls-1 {
        fill: #333;
      }

      .cls-2 {
        fill: none;
        stroke: #000;
        stroke-miterlimit: 10;
        stroke-width: .5px;
      }
    </style>
  </defs>
  <g id="_레이어_1-2" data-name="레이어 1">
    <polygon class="cls-2" points="119.92 51.49 113.2 34.73 102.49 37.46 109.08 28.58 91.99 22.58 110.51 21.31 107.78 10.6 116.66 17.18 121.2 1.17 123.92 18.61 134.63 15.88 128.05 24.76 143.29 34.36 126.62 32.03 129.35 42.74 120.47 36.16 119.92 51.49"/>
    <g>
      <path d="m34.13,21.73c.4.17.74.38,1.02.62.28.25.57.53.86.86.22.25.38.52.48.79.1.28.18.54.23.78.04.28.05.55.05.83h-.67c-.23-.53-.49-1.03-.77-1.49-.28-.46-.61-.87-.97-1.21-.36-.34-.76-.61-1.2-.8-.44-.19-.93-.29-1.47-.29-.51,0-.98.17-1.42.52-.44.35-.83.81-1.17,1.37-.34.57-.6,1.22-.79,1.95-.19.73-.28,1.49-.28,2.28,0,.83.09,1.61.28,2.35.19.74.45,1.38.79,1.94.34.56.73,1.01,1.17,1.34.44.33.91.5,1.42.5.61,0,1.14-.05,1.57-.15s.82-.25,1.16-.43c.34-.19.64-.41.91-.67s.56-.55.88-.88l.45.45c-.08.12-.17.23-.27.33-.33.31-.66.59-1,.84s-.71.46-1.11.62c-.83.36-1.69.54-2.58.54s-1.75-.18-2.58-.54c-.39-.17-.75-.38-1.1-.62-.35-.25-.68-.53-.99-.84-.59-.62-1.05-1.33-1.39-2.15-.34-.81-.51-1.68-.51-2.62s.17-1.8.51-2.62c.33-.79.79-1.5,1.39-2.13.61-.64,1.31-1.13,2.1-1.46.83-.36,1.69-.54,2.58-.54.46,0,.88.04,1.26.13s.77.22,1.18.42Z"/>
      <path d="m38.32,21.08v-.65h3.6v14.27h-2.46v-13.62h-1.14Z"/>
      <path d="m46.34,23.09c-.39,0-.71-.1-.98-.31s-.41-.46-.41-.76.14-.56.41-.77c.27-.21.6-.31.98-.31s.73.11,1.01.31c.28.21.42.47.42.77s-.14.55-.42.76c-.28.21-.61.31-1.01.31Zm1.23,1.77v9.85h-2.46v-9.85h2.46Z"/>
      <path d="m55.03,34.72c-.64,0-1.27-.13-1.89-.38-.62-.25-1.17-.6-1.64-1.05-.48-.45-.86-.97-1.15-1.57-.29-.6-.43-1.26-.43-1.97,0-.31.03-.63.09-.94.06-.31.16-.63.29-.96.18-.43.43-.84.74-1.21s.67-.69,1.08-.96c.41-.26.86-.47,1.36-.63.49-.16,1.01-.24,1.55-.24.31,0,.64.03.97.08.33.05.65.14.96.25.31.11.6.26.87.42s.51.37.71.6l-.02.02c.22.24.36.54.42.89.06.36.09.67.09.95v.36h-.96c-.19-.41-.39-.79-.59-1.14s-.42-.65-.67-.91c-.25-.26-.52-.46-.8-.61s-.61-.23-.98-.23c-.39,0-.73.14-1.03.42-.3.28-.55.62-.75,1.05s-.35.88-.46,1.38c-.11.5-.16.97-.16,1.4,0,.47.05.96.14,1.46s.23.97.43,1.39c.2.42.45.77.75,1.05.3.28.66.42,1.08.42.29,0,.57-.02.84-.04.27-.03.54-.09.81-.17.27-.08.54-.21.81-.36s.56-.37.86-.65l.36.34c-.49.49-1.05.88-1.67,1.14-.62.27-1.29.4-2.01.4Z"/>
      <path d="m61.08,20.43h2.46v7.77c.3-.46.6-.9.89-1.33.29-.43.6-.87.91-1.33.14-.16.31-.29.49-.41.16-.11.34-.21.55-.3.21-.09.44-.13.68-.13h2.15v.51h-.4c-.23,0-.44.05-.63.15-.19.1-.43.31-.7.62-.28.31-.63.77-1.07,1.36-.43.59-.99,1.37-1.68,2.35v.2l2.53,3.54c.13.16.34.32.62.51.28.18.65.27,1.09.27h.4v.51h-2.31c-.24,0-.46-.03-.66-.09s-.37-.13-.51-.22-.26-.16-.35-.22c-.09-.07-.15-.12-.17-.15l-1.82-2.66v3.34h-2.46v-14.27Z"/>
      <path d="m27.97,56.55c.01.36.05.68.13.96.07.25.18.48.33.67.14.19.36.29.65.29.12,0,.3-.06.54-.17.24-.11.52-.25.83-.41l.18.27c.05.07.1.16.16.25-.33.17-.66.32-.99.45-.28.12-.59.22-.95.32-.36.09-.7.13-1.02.13-.3,0-.59-.04-.88-.13-.28-.09-.53-.25-.74-.48-.21-.23-.38-.54-.51-.92-.13-.39-.19-.87-.19-1.46v-6.05l-1.1-.02v-.74h1.1v-2.64h2.46v2.64h2.08v.74l-2.08.02v6.29Z"/>
      <path d="m36.66,49.29c.67,0,1.31.13,1.9.41.59.27,1.1.63,1.54,1.09.44.46.79.99,1.04,1.61.25.62.38,1.26.38,1.93s-.13,1.28-.38,1.88-.6,1.14-1.03,1.62-.95.86-1.54,1.14c-.6.28-1.23.42-1.91.42-.64,0-1.25-.13-1.84-.41-.59-.27-1.11-.64-1.56-1.1-.45-.46-.81-1-1.08-1.62-.27-.62-.4-1.26-.4-1.93s.13-1.28.38-1.89c.25-.61.6-1.15,1.04-1.62.44-.47.95-.84,1.54-1.12.59-.28,1.23-.42,1.92-.42Zm0,9.43c.73,0,1.31-.38,1.72-1.15.41-.76.61-1.85.61-3.24,0-.62-.05-1.19-.16-1.72-.11-.53-.26-.99-.46-1.39-.2-.4-.44-.71-.73-.93-.29-.22-.61-.33-.98-.33s-.7.11-.99.33-.53.52-.73.91-.35.85-.46,1.38c-.11.53-.16,1.11-.16,1.75s.05,1.19.16,1.72c.11.54.26,1,.46,1.39.2.39.44.7.73.93s.62.34.99.34Z"/>
      <path d="m53.01,49.29c.67,0,1.31.13,1.9.41.59.27,1.1.63,1.54,1.09.44.46.79.99,1.04,1.61.25.62.38,1.26.38,1.93s-.13,1.28-.38,1.88-.6,1.14-1.03,1.62-.95.86-1.54,1.14c-.6.28-1.23.42-1.91.42-.64,0-1.25-.13-1.84-.41-.59-.27-1.11-.64-1.56-1.1-.45-.46-.81-1-1.08-1.62-.27-.62-.4-1.26-.4-1.93s.13-1.28.38-1.89c.25-.61.6-1.15,1.04-1.62.44-.47.95-.84,1.54-1.12.59-.28,1.23-.42,1.92-.42Zm0,9.43c.73,0,1.31-.38,1.72-1.15.41-.76.61-1.85.61-3.24,0-.62-.05-1.19-.16-1.72-.11-.53-.26-.99-.46-1.39-.2-.4-.44-.71-.73-.93-.29-.22-.61-.33-.98-.33s-.7.11-.99.33-.53.52-.73.91-.35.85-.46,1.38c-.11.53-.16,1.11-.16,1.75s.05,1.19.16,1.72c.11.54.26,1,.46,1.39.2.39.44.7.73.93s.62.34.99.34Z"/>
      <path d="m62.42,50.01c.83-.34,1.64-.48,2.43-.42s1.49.28,2.11.66,1.12.91,1.5,1.59c.38.68.57,1.47.57,2.38,0,.63-.09,1.25-.26,1.86-.17.62-.44,1.16-.81,1.64s-.82.87-1.37,1.17c-.55.3-1.2.45-1.95.45-.48,0-.91-.08-1.28-.24-.37-.16-.69-.34-.95-.54v4.12h-2.46v-13.23h2.08l.38.54Zm0,7.89c.44.34.83.54,1.2.61.36.07.69.03.99-.12.3-.14.56-.37.78-.68.22-.31.41-.66.56-1.05.15-.39.27-.8.34-1.23s.12-.83.12-1.22-.06-.82-.18-1.27-.31-.86-.55-1.24c-.25-.38-.56-.68-.94-.92-.38-.24-.81-.36-1.31-.36-.23,0-.42.06-.58.18-.16.12-.3.29-.44.51v6.79Z"/>
      <path d="m74,58.97c-.45-.19-.86-.45-1.25-.77-.39-.32-.72-.68-.99-1.08-.28-.4-.49-.83-.64-1.29-.15-.46-.23-.93-.23-1.43,0-.63.13-1.23.39-1.82.26-.59.61-1.12,1.07-1.58.45-.46.99-.83,1.63-1.11s1.32-.42,2.05-.42c.28,0,.59.03.95.07.36.05.72.13,1.09.24.37.12.74.27,1.1.46.36.19.69.44.98.75s.52.68.7,1.12c.17.44.26.96.26,1.56v1.01l-7.3.04c.08,1.28.34,2.25.76,2.93.42.67.91,1.01,1.46,1.01.23,0,.48-.02.74-.04.26-.03.54-.09.82-.18.28-.09.57-.22.86-.4s.57-.41.85-.7l.45.47c-.77.75-1.66,1.22-2.66,1.41-1,.19-2.03.11-3.09-.25Zm2.19-8.85c-.7,0-1.24.32-1.63.96-.39.64-.64,1.55-.76,2.75l4.75.02c0-.75-.08-1.36-.24-1.84-.16-.48-.36-.86-.6-1.14s-.49-.47-.77-.58c-.28-.11-.53-.16-.76-.16Z"/>
      <path d="m87.73,49.38c1.28,0,2.25.35,2.93,1.05.67.7,1.04,1.71,1.1,3.04v5.84h-2.62v-7.23c0-.64-.16-1.13-.48-1.48s-.72-.52-1.19-.52-.88.17-1.2.52c-.31.35-.47.84-.47,1.48v7.28h-2.46v-9.85h2.46l.02.22c.25-.12.56-.21.93-.26.37-.05.7-.08.98-.08Z"/>
      <path d="m27.97,81.2c.01.36.05.68.13.96.07.25.18.48.33.67.14.19.36.29.65.29.12,0,.3-.06.54-.17.24-.11.52-.25.83-.41l.18.27c.05.07.1.16.16.25-.33.17-.66.32-.99.45-.28.12-.59.22-.95.32-.36.09-.7.13-1.02.13-.3,0-.59-.04-.88-.13-.28-.09-.53-.25-.74-.48-.21-.23-.38-.54-.51-.92-.13-.39-.19-.87-.19-1.46v-6.05l-1.1-.02v-.74h1.1v-2.64h2.46v2.64h2.08v.74l-2.08.02v6.29Z"/>
      <path d="m34.9,69.73v4.68c.2-.06.47-.11.81-.15s.66-.06.95-.06c1.24,0,2.2.34,2.88,1.02.68.68,1.04,1.65,1.06,2.9v5.82h-2.46v-6.94c0-.64-.17-1.13-.51-1.49-.34-.36-.76-.53-1.26-.53-.28,0-.55.08-.81.24-.27.16-.49.42-.67.77v8.02h-2.46v-14.27h2.46Z"/>
      <path d="m46,83.62c-.45-.19-.86-.45-1.25-.77-.39-.32-.72-.68-.99-1.08-.28-.4-.49-.83-.64-1.29-.15-.46-.23-.93-.23-1.43,0-.63.13-1.23.39-1.82.26-.59.61-1.12,1.07-1.58.45-.46.99-.83,1.63-1.11s1.32-.42,2.05-.42c.28,0,.59.03.95.07.36.05.72.13,1.09.24.37.12.74.27,1.1.46.36.19.69.44.98.75s.52.68.7,1.12c.17.44.26.96.26,1.56v1.01l-7.3.04c.08,1.28.34,2.25.76,2.93.42.67.91,1.01,1.46,1.01.23,0,.48-.02.74-.04.26-.03.54-.09.82-.18.28-.09.57-.22.86-.4s.57-.41.85-.7l.45.47c-.77.75-1.66,1.22-2.66,1.41-1,.19-2.03.11-3.09-.25Zm2.19-8.85c-.7,0-1.24.32-1.63.96-.39.64-.64,1.55-.76,2.75l4.75.02c0-.75-.08-1.36-.24-1.84-.16-.48-.36-.86-.6-1.14s-.49-.47-.77-.58c-.28-.11-.53-.16-.76-.16Z"/>
      <path d="m66.5,83.5c-.18.14-.42.25-.73.31s-.65.09-1.02.09c-.71,0-1.36-.1-1.96-.31s-1.11-.51-1.54-.9c-.43-.4-.77-.88-1-1.45s-.35-1.23-.35-1.96c0-.64.08-1.27.25-1.89.17-.62.43-1.17.79-1.65.36-.48.82-.87,1.37-1.17.55-.29,1.21-.44,1.97-.44.46,0,.87.08,1.25.24.37.16.69.32.96.51v-4.08h2.46v13.24h-2.08l-.36-.52Zm.04-7.93c-.45-.34-.85-.54-1.21-.6s-.69-.02-.99.13c-.3.14-.56.37-.79.68-.22.31-.41.65-.56,1.04-.15.38-.27.79-.34,1.22-.08.43-.12.84-.12,1.24,0,.45.06.9.17,1.36s.29.88.54,1.26c.25.38.56.69.93.93.37.24.82.36,1.34.36.29,0,.5-.08.64-.24.14-.16.26-.39.37-.68l.02-6.69Z"/>
      <path d="m74.29,83.62c-.45-.19-.86-.45-1.25-.77-.39-.32-.72-.68-.99-1.08-.28-.4-.49-.83-.64-1.29-.15-.46-.23-.93-.23-1.43,0-.63.13-1.23.39-1.82.26-.59.61-1.12,1.07-1.58.45-.46.99-.83,1.63-1.11s1.32-.42,2.05-.42c.28,0,.59.03.95.07.36.05.72.13,1.09.24.37.12.74.27,1.1.46.36.19.69.44.98.75s.52.68.7,1.12c.17.44.26.96.26,1.56v1.01l-7.3.04c.08,1.28.34,2.25.76,2.93.42.67.91,1.01,1.46,1.01.23,0,.48-.02.74-.04.26-.03.54-.09.82-.18.28-.09.57-.22.86-.4s.57-.41.85-.7l.45.47c-.77.75-1.66,1.22-2.66,1.41-1,.19-2.03.11-3.09-.25Zm2.19-8.85c-.7,0-1.24.32-1.63.96-.39.64-.64,1.55-.76,2.75l4.75.02c0-.75-.08-1.36-.24-1.84-.16-.48-.36-.86-.6-1.14s-.49-.47-.77-.58c-.28-.11-.53-.16-.76-.16Z"/>
      <path d="m86.11,81.2c.01.36.05.68.13.96.07.25.18.48.33.67.14.19.36.29.65.29.12,0,.3-.06.54-.17.24-.11.52-.25.83-.41l.18.27c.05.07.1.16.16.25-.33.17-.66.32-.99.45-.28.12-.59.22-.95.32-.36.09-.7.13-1.02.13-.3,0-.59-.04-.88-.13-.28-.09-.53-.25-.74-.48-.21-.23-.38-.54-.51-.92-.13-.39-.19-.87-.19-1.46v-6.05l-1.1-.02v-.74h1.1v-2.64h2.46v2.64h2.08v.74l-2.08.02v6.29Z"/>
      <path d="m93.93,74.14c.71,0,1.31.04,1.8.13.49.09.89.21,1.21.35s.57.31.75.5c.18.19.31.38.4.57.09.19.14.39.16.58.02.19.03.36.03.51v7.23h-2.12l-.36-.92c-.39.3-.81.53-1.28.69s-.93.24-1.39.24c-.42,0-.83-.06-1.23-.19-.4-.12-.75-.31-1.05-.56-.3-.25-.54-.56-.73-.93-.19-.37-.28-.81-.28-1.32s.15-.96.46-1.31.68-.64,1.13-.87.93-.4,1.46-.53c.53-.13,1.01-.23,1.45-.3.44-.07.8-.11,1.08-.14.28-.02.41-.05.39-.09v-.99c-.02-.34-.12-.64-.29-.92-.14-.23-.36-.44-.63-.63-.28-.19-.68-.29-1.21-.29-.43,0-.78.06-1.05.19-.26.13-.47.27-.62.44-.15.17-.25.34-.31.52-.05.18-.09.3-.1.39h-1.25c0-.12.01-.25.04-.38.02-.12.06-.25.1-.39.04-.14.1-.29.19-.44.1-.16.25-.3.46-.44.21-.14.46-.26.76-.35.29-.1.61-.17.96-.23s.7-.09,1.06-.09Zm-1.27,6.67c0,.35.05.65.15.91.1.26.23.48.39.65.16.18.35.31.56.4.21.09.43.13.66.13.24,0,.48-.07.72-.2.24-.13.47-.34.69-.61v-3.25s-.03-.04-.17-.06c-.14-.02-.33-.01-.57.02-.24.03-.5.08-.79.15s-.54.19-.79.34c-.24.16-.44.36-.61.62-.16.25-.24.55-.24.9Z"/>
      <path d="m102.49,72.38c-.39,0-.71-.1-.98-.31s-.41-.46-.41-.76.14-.56.41-.77c.27-.21.6-.31.98-.31s.73.11,1.01.31c.28.21.42.47.42.77s-.14.55-.42.76c-.28.21-.61.31-1.01.31Zm1.23,1.77v9.85h-2.46v-9.85h2.46Z"/>
      <path d="m105.87,70.38v-.65h3.6v14.27h-2.46v-13.62h-1.14Z"/>
      <path d="m118.84,79.56c.52.49.78,1.07.78,1.73,0,.59-.16,1.08-.47,1.46-.31.39-.71.68-1.2.89-.49.2-1.04.32-1.64.36-.61.04-1.2,0-1.79-.11-.58-.11-1.13-.28-1.63-.52-.5-.23-.89-.53-1.17-.89.08-.06.14-.11.16-.14.02-.04.05-.06.07-.09.02-.02.05-.05.07-.09.02-.04.07-.08.14-.14.12.14.31.29.56.44s.53.29.82.41c.29.13.6.23.91.32.31.08.58.13.81.13.26,0,.54-.08.84-.23.29-.16.54-.36.72-.61s.29-.52.32-.81c.02-.29-.11-.59-.42-.88-.22-.22-.49-.41-.82-.58-.33-.17-.69-.33-1.07-.5-.38-.16-.76-.34-1.14-.53-.38-.19-.72-.39-1.01-.62-.3-.23-.54-.49-.73-.79-.19-.3-.29-.65-.29-1.05,0-.48.11-.89.34-1.23.23-.34.52-.61.89-.83s.76-.37,1.2-.47c.44-.1.88-.14,1.31-.14.25,0,.53,0,.82.03.29.02.59.05.88.11s.57.13.83.24c.26.11.51.25.72.43.35.32.54.62.58.88.02.17.04.37.05.61.01.23.02.49.02.77h-1.25c-.06-.31-.14-.62-.25-.91s-.25-.55-.43-.78-.4-.4-.66-.54-.57-.21-.93-.21c-.19,0-.39.04-.58.13-.19.08-.36.21-.51.36-.15.16-.26.33-.34.52-.08.19-.13.4-.13.63,0,.33.08.6.25.83.17.23.39.43.67.6.28.18.58.33.91.46.33.13.67.27,1.01.4s.67.27.97.42c.3.15.56.32.78.52Z"/>
      <path d="m121.18,82.03c0-.42.15-.78.44-1.08.29-.3.65-.45,1.07-.45s.78.15,1.08.45c.3.3.45.66.45,1.08s-.15.78-.45,1.08c-.3.29-.66.44-1.08.44s-.78-.15-1.07-.44c-.3-.29-.44-.65-.44-1.08Zm1.9-2.51c-.19,0-.3-.06-.33-.19s0-.29.05-.5l1.45-8.02c.04-.23.12-.45.24-.65s.28-.38.46-.53.38-.27.6-.35c.22-.08.45-.12.68-.12s.44.07.64.22.36.35.48.59c.12.24.18.51.19.82,0,.31-.07.62-.23.93l-3.51,7.12c-.06.21-.15.37-.26.5-.11.13-.27.19-.46.19h-.02Z"/>
    </g>
    <path class="cls-1" d="m0,106.35c48.53-.65,102.97-.66,151.5,0-48.53.66-102.97.65-151.5,0h0Z"/>
    <circle class="cls-2" cx="148.67" cy="18.29" r="5"/>
    <circle cx="143.17" cy="20.79" r="3"/>
  </g>
</svg>