<?xml version="1.0" encoding="UTF-8"?>
<svg id="_레이어_2" data-name="레이어 2" xmlns="http://www.w3.org/2000/svg" viewBox="0 0 793.76 146.32">
  <defs>
    <style>
      .cls-1 {
        fill: #333;
      }

      .cls-2 {
        fill: none;
        stroke: #000;
        stroke-miterlimit: 10;
        stroke-width: .75px;
      }
    </style>
  </defs>
  <g id="_레이어_1-2" data-name="레이어 1">
    <g>
      <g>
        <path d="m364.9,53.68l5.05,12.71c.01.06.06.15.13.25.08.1.18.2.31.31.13.1.29.19.48.27.19.08.41.12.67.12v.69h-4.15l-1.63-3.92h-4.55l-1.55,3.92h-.67l5.41-14.34h.5Zm.55,9.66l-2.01-4.91-1.93,4.93,3.94-.02Z"/>
        <path d="m376.97,60.71c.39-.01.82-.09,1.28-.22s.89-.33,1.28-.59c.39-.26.72-.6.98-1,.26-.41.39-.9.39-1.47,0-.66-.15-1.19-.46-1.59-.31-.39-.69-.7-1.15-.91-.46-.21-.95-.34-1.46-.4s-.99-.09-1.42-.09v13.52h-3.19v-14.32l5.26-.04c.56,0,1.13.09,1.7.27.57.18,1.09.44,1.55.78.46.34.83.76,1.13,1.26.29.5.44,1.06.44,1.68,0,.45-.08.87-.25,1.26-.17.39-.39.75-.68,1.08-.29.33-.62.6-1,.83-.38.23-.79.41-1.22.54.38.7.72,1.31,1.02,1.83.3.52.56.97.78,1.36.22.39.42.72.59,1,.17.28.33.53.49.75.17.28.33.49.51.61.17.13.33.22.47.29.18.05.34.08.5.08h.63v.71l-2.7.02c-.43,0-.8-.06-1.1-.18-.3-.12-.54-.26-.72-.41-.2-.19-.37-.4-.5-.63l-3.15-6Z"/>
        <path d="m393.58,54.35v13.59h-3.19v-13.59h-2.85c-.06,0-.14.01-.23.04-.09.03-.18.07-.26.13-.08.06-.16.15-.22.27-.06.12-.1.27-.12.46v.06h-.71c-.04-.32-.01-.6.08-.84.09-.2.24-.39.46-.57.22-.18.55-.27.99-.27h9.9v.73h-3.86Z"/>
        <path d="m378.55,79.72h.8l-4.91,14.38h-1.2l-3.88-8.85-2.47,8.85h-1.2l-5.6-12.71c-.13-.24-.29-.45-.48-.62-.19-.17-.44-.27-.75-.3v-.73c.65-.05,1.27-.03,1.85.06.25.03.51.08.76.15.26.08.5.18.73.3.23.12.44.26.64.43.2.17.37.37.51.61l3.8,8.83,1.7-5.98-1.2-2.75c-.13-.24-.29-.45-.49-.62-.2-.17-.45-.27-.76-.3v-.73c.38-.04.79-.04,1.21-.02.43.03.85.09,1.26.2.41.11.8.27,1.16.49.36.22.65.51.88.88l4,8.85,3.63-10.42Z"/>
        <path d="m393.73,82c.7.68,1.23,1.43,1.59,2.28.39.9.59,1.83.59,2.77s-.2,1.87-.59,2.77c-.36.84-.89,1.6-1.59,2.28-.69.66-1.49,1.18-2.39,1.55-.93.38-1.91.57-2.94.57s-1.99-.19-2.93-.57c-.91-.37-1.7-.89-2.39-1.55-.7-.68-1.23-1.43-1.59-2.28-.41-.9-.61-1.83-.61-2.77s.2-1.87.61-2.77c.36-.84.89-1.6,1.59-2.28.69-.65,1.48-1.17,2.39-1.55.93-.38,1.91-.57,2.93-.57s2.01.19,2.94.57c.9.38,1.7.9,2.39,1.55Zm-5.33,11.53c.59,0,1.13-.18,1.63-.53.5-.35.94-.82,1.32-1.42s.67-1.28.89-2.06c.22-.78.33-1.61.33-2.48s-.11-1.63-.33-2.41c-.22-.78-.51-1.47-.89-2.06s-.82-1.08-1.32-1.45c-.5-.37-1.05-.55-1.63-.55s-1.11.18-1.62.55c-.5.37-.95.85-1.33,1.45s-.68,1.29-.9,2.06c-.22.78-.32,1.58-.32,2.41s.11,1.69.32,2.48c.22.78.52,1.47.9,2.06s.83,1.06,1.33,1.42,1.04.53,1.62.53Z"/>
        <path d="m402.95,86.8c.39-.01.82-.09,1.28-.22s.89-.33,1.28-.59c.39-.26.72-.6.98-1,.26-.41.39-.9.39-1.47,0-.66-.15-1.19-.46-1.59-.31-.39-.69-.7-1.15-.91-.46-.21-.95-.34-1.46-.4s-.99-.09-1.42-.09v13.52h-3.19v-14.32l5.26-.04c.56,0,1.13.09,1.7.27.57.18,1.09.44,1.55.78.46.34.83.76,1.13,1.26.29.5.44,1.06.44,1.68,0,.45-.08.87-.25,1.26-.17.39-.39.75-.68,1.08-.29.33-.62.6-1,.83-.38.23-.79.41-1.22.54.38.7.72,1.31,1.02,1.83.3.52.56.97.78,1.36.22.39.42.72.59,1,.17.28.33.53.49.75.17.28.33.49.51.61.17.13.33.22.47.29.18.05.34.08.5.08h.63v.71l-2.7.02c-.43,0-.8-.06-1.1-.18-.3-.12-.54-.26-.72-.41-.2-.19-.37-.4-.5-.63l-3.15-6Z"/>
        <path d="m418.3,85.97c.64.61,1.2,1.18,1.7,1.71.5.53.97,1.04,1.41,1.54.44.5.87.97,1.29,1.43s.87.92,1.34,1.38c.13.13.28.27.46.43s.35.32.52.47l.63.55v.71h-1.99c-.22,0-.42-.03-.6-.08-.18-.05-.39-.15-.61-.29-.22-.14-.48-.33-.77-.58-.29-.25-.64-.58-1.05-.98-.41-.41-.91-.9-1.49-1.48-.58-.58-1.27-1.27-2.06-2.07v5.51h-3.19v-14.3l3.35-.02.02,6.1c1.05-1.1,1.93-2.03,2.65-2.79s1.32-1.4,1.8-1.89c.48-.5.87-.86,1.19-1.08.31-.22.59-.33.83-.33h.82v.71c-.19,0-.38,0-.55.02-.14.01-.28.03-.42.05-.14.02-.24.05-.31.11l-4.95,5.2Z"/>
        <path d="m432.2,94.35c-.41,0-.9-.04-1.46-.12-.57-.08-1.11-.24-1.63-.46-.52-.22-.96-.52-1.33-.88-.37-.36-.57-.82-.59-1.37v-2.52h.67c.05.78.22,1.48.51,2.1.29.63.66,1.14,1.11,1.56.45.41.98.7,1.57.87.59.17,1.23.17,1.9.02.31-.09.57-.28.8-.58s.39-.64.5-1.02c.1-.38.13-.77.08-1.16-.05-.39-.2-.72-.44-1-.09-.1-.2-.21-.33-.33-.13-.11-.35-.27-.64-.47s-.69-.45-1.2-.75c-.5-.31-1.16-.69-1.96-1.17-.36-.22-.69-.45-.99-.7-.31-.25-.58-.53-.81-.84-.24-.31-.42-.66-.55-1.03-.13-.38-.2-.79-.2-1.23,0-.57.12-1.1.35-1.57.24-.47.55-.87.95-1.2.4-.33.85-.59,1.37-.77s1.06-.28,1.63-.28c.42,0,.9.04,1.43.13.54.09,1.05.24,1.54.46.49.22.91.5,1.25.86.34.36.53.8.55,1.34v2.52h-.71c-.08-.4-.16-.79-.25-1.19-.09-.39-.19-.76-.32-1.11s-.25-.64-.39-.9c-.14-.25-.28-.45-.42-.59-.2-.18-.46-.34-.77-.47s-.63-.23-.98-.3c-.35-.06-.7-.09-1.06-.08-.36.01-.68.08-.97.19-.29.12-.52.29-.7.53-.18.24-.27.53-.27.89s.08.71.25,1.02c.17.31.36.59.59.84.23.25.46.46.7.63.24.17.43.3.58.37.41.24.87.49,1.38.75s1.01.55,1.49.88c.48.33.92.68,1.32,1.07.4.39.68.82.86,1.31.23.79.28,1.53.16,2.22-.12.69-.39,1.29-.79,1.82-.41.52-.94.93-1.59,1.23-.65.3-1.38.46-2.2.47Z"/>
      </g>
      <path class="cls-2" d="m432.12,38.59h-65.4c-19.21,0-34.92,15.72-34.92,34.92h0c0,19.21,15.72,34.92,34.92,34.92h65.4c19.21,0,34.92-15.72,34.92-34.92h0c0-19.21-15.72-34.92-34.92-34.92Z"/>
      <path d="m364.17,39.86c-15.79,19.67-27.75,45.37-26.56,71.02,2.03,32.28,28.23,42,55.76,29.8,36.7-16.38,68.64-61.19,68.55-101.85-.12-24.36-16.21-40.72-40.98-38.15-21.65,2.76-39.56,17.69-52.96,34.1,13.32-16.53,31.18-31.7,52.91-34.5,25.01-2.66,41.41,13.86,41.59,38.54.13,41.11-31.69,85.94-68.86,102.43-27.83,12.26-54.46,2.35-56.44-30.34-1.16-25.8,11.01-51.39,26.99-71.04h0Z"/>
      <g>
        <path class="cls-1" d="m374.79,34.39c-4.64.59-9.29.67-13.95.23,4.64-.6,9.29-.67,13.95-.23h0Z"/>
        <path class="cls-1" d="m367.82,42.06c-.51-5.02-.51-10.09,0-15.11.51,5.02.51,10.09,0,15.11h0Z"/>
        <circle class="cls-1" cx="367.82" cy="34.62" r="1.16"/>
      </g>
      <g>
        <path class="cls-1" d="m438.93,111.22c-4.64.59-9.29.67-13.95.23,4.64-.6,9.29-.67,13.95-.23h0Z"/>
        <path class="cls-1" d="m431.95,118.89c-.51-5.02-.51-10.09,0-15.11.51,5.02.51,10.09,0,15.11h0Z"/>
        <circle class="cls-1" cx="431.95" cy="111.45" r="1.16"/>
      </g>
      <path d="m356.87,49.71c-4.06,6.17-11.43,13.45-19.41,12.52-1.16-.18-2.22-.73-3.13-1.41,7.98,4.3,17.74-5.45,22.54-11.11h0Z"/>
      <path d="m440.63,100.33c4.06-6.17,11.43-13.45,19.41-12.52,1.16.18,2.22.73,3.13,1.41-7.98-4.3-17.74,5.45-22.54,11.11h0Z"/>
    </g>
    <g>
      <polygon points="499.59 73.4 502.35 73.38 502.35 73.41 499.59 73.4"/>
      <polygon points="507.79 73.35 513.24 73.31 513.24 73.48 507.79 73.45 507.79 73.35"/>
      <polygon points="518.69 73.28 524.13 73.25 524.13 73.55 518.69 73.51 518.69 73.28"/>
      <polygon points="529.58 73.21 535.02 73.18 535.02 73.61 529.58 73.58 529.58 73.21"/>
      <polygon points="540.47 73.16 545.92 73.15 545.92 73.64 540.47 73.63 540.47 73.16"/>
      <polygon points="551.36 73.14 556.81 73.13 556.81 73.67 551.36 73.66 551.36 73.14"/>
      <polygon points="562.26 73.11 567.7 73.1 567.7 73.69 562.26 73.68 562.26 73.11"/>
      <polygon points="573.15 73.09 578.59 73.08 578.59 73.71 573.15 73.7 573.15 73.09"/>
      <polygon points="584.04 73.07 589.49 73.06 589.49 73.74 584.04 73.72 584.04 73.07"/>
      <polygon points="594.93 73.05 600.38 73.03 600.38 73.76 594.93 73.75 594.93 73.05"/>
      <polygon points="605.83 73.02 611.27 73.01 611.27 73.78 605.83 73.77 605.83 73.02"/>
      <polygon points="616.72 73 622.16 72.99 622.16 73.8 616.72 73.79 616.72 73"/>
      <polygon points="627.61 72.98 633.06 72.97 633.06 73.83 627.61 73.82 627.61 72.98"/>
      <polygon points="638.5 72.95 643.95 72.94 643.95 73.85 638.5 73.84 638.5 72.95"/>
      <polygon points="649.4 72.94 654.84 72.95 654.84 73.84 649.4 73.85 649.4 72.94"/>
      <polygon points="660.29 72.96 665.73 72.98 665.73 73.82 660.29 73.83 660.29 72.96"/>
      <polygon points="671.18 72.99 676.63 73 676.63 73.79 671.18 73.81 671.18 72.99"/>
      <polygon points="682.07 73.01 687.52 73.02 687.52 73.77 682.07 73.78 682.07 73.01"/>
      <polygon points="692.97 73.03 698.41 73.04 698.41 73.75 692.97 73.76 692.97 73.03"/>
      <polygon points="703.86 73.06 709.31 73.07 709.31 73.73 703.86 73.74 703.86 73.06"/>
      <polygon points="714.75 73.08 720.2 73.09 720.2 73.7 714.75 73.71 714.75 73.08"/>
      <polygon points="725.64 73.1 731.09 73.11 731.09 73.68 725.64 73.69 725.64 73.1"/>
      <polygon points="736.54 73.13 741.98 73.14 741.98 73.66 736.54 73.67 736.54 73.13"/>
      <polygon points="747.43 73.15 752.88 73.16 752.88 73.63 747.43 73.65 747.43 73.15"/>
      <polygon points="758.32 73.18 763.77 73.21 763.77 73.58 758.32 73.61 758.32 73.18"/>
      <polygon points="769.21 73.25 774.66 73.28 774.66 73.51 769.21 73.55 769.21 73.25"/>
      <polygon points="780.11 73.31 785.55 73.35 785.55 73.45 780.11 73.48 780.11 73.31"/>
      <polygon points="791 73.38 793.76 73.4 791 73.41 791 73.38"/>
    </g>
    <path d="m499.59,62.41c94.23-.61,199.94-.62,294.17,0-94.23.62-199.94.61-294.17,0h0Z"/>
    <path d="m499.59,84.39c94.23-.61,199.94-.62,294.17,0-94.23.62-199.94.61-294.17,0h0Z"/>
    <polygon points="0 73.4 2.76 73.38 2.76 73.41 0 73.4"/>
    <polygon points="8.21 73.35 13.65 73.31 13.65 73.48 8.21 73.45 8.21 73.35"/>
    <polygon points="19.1 73.28 24.55 73.25 24.55 73.55 19.1 73.51 19.1 73.28"/>
    <polygon points="29.99 73.21 35.44 73.18 35.44 73.61 29.99 73.58 29.99 73.21"/>
    <polygon points="40.88 73.16 46.33 73.15 46.33 73.64 40.88 73.63 40.88 73.16"/>
    <polygon points="51.78 73.14 57.22 73.13 57.22 73.67 51.78 73.66 51.78 73.14"/>
    <polygon points="62.67 73.11 68.12 73.1 68.12 73.69 62.67 73.68 62.67 73.11"/>
    <polygon points="73.56 73.09 79.01 73.08 79.01 73.71 73.56 73.7 73.56 73.09"/>
    <polygon points="84.45 73.07 89.9 73.06 89.9 73.74 84.45 73.72 84.45 73.07"/>
    <polygon points="95.35 73.05 100.79 73.03 100.79 73.76 95.35 73.75 95.35 73.05"/>
    <polygon points="106.24 73.02 111.69 73.01 111.69 73.78 106.24 73.77 106.24 73.02"/>
    <polygon points="117.13 73 122.58 72.99 122.58 73.8 117.13 73.79 117.13 73"/>
    <polygon points="128.02 72.98 133.47 72.97 133.47 73.83 128.02 73.82 128.02 72.98"/>
    <polygon points="138.92 72.95 144.36 72.94 144.36 73.85 138.92 73.84 138.92 72.95"/>
    <polygon points="149.81 72.94 155.26 72.95 155.26 73.84 149.81 73.85 149.81 72.94"/>
    <polygon points="160.7 72.96 166.15 72.98 166.15 73.82 160.7 73.83 160.7 72.96"/>
    <polygon points="171.59 72.99 177.04 73 177.04 73.79 171.59 73.81 171.59 72.99"/>
    <polygon points="182.49 73.01 187.93 73.02 187.93 73.77 182.49 73.78 182.49 73.01"/>
    <polygon points="193.38 73.03 198.83 73.04 198.83 73.75 193.38 73.76 193.38 73.03"/>
    <polygon points="204.27 73.06 209.72 73.07 209.72 73.73 204.27 73.74 204.27 73.06"/>
    <polygon points="215.16 73.08 220.61 73.09 220.61 73.7 215.16 73.71 215.16 73.08"/>
    <polygon points="226.06 73.1 231.5 73.11 231.5 73.68 226.06 73.69 226.06 73.1"/>
    <polygon points="236.95 73.13 242.4 73.14 242.4 73.66 236.95 73.67 236.95 73.13"/>
    <polygon points="247.84 73.15 253.29 73.16 253.29 73.63 247.84 73.65 247.84 73.15"/>
    <polygon points="258.73 73.18 264.18 73.21 264.18 73.58 258.73 73.61 258.73 73.18"/>
    <polygon points="269.63 73.25 275.07 73.28 275.07 73.51 269.63 73.55 269.63 73.25"/>
    <polygon points="280.52 73.31 285.97 73.35 285.97 73.45 280.52 73.48 280.52 73.31"/>
    <polygon points="291.41 73.38 294.17 73.4 291.41 73.41 291.41 73.38"/>
    <path d="m0,62.41c94.23-.56,199.94-.57,294.17,0-94.23.57-199.94.56-294.17,0h0Z"/>
    <path d="m0,84.39c94.23-.56,199.94-.57,294.17,0-94.23.57-199.94.56-294.17,0h0Z"/>
  </g>
</svg>