<?xml version="1.0" encoding="UTF-8"?>
<svg id="_레이어_2" data-name="레이어 2" xmlns="http://www.w3.org/2000/svg" viewBox="0 0 48.94 37.31">
  <defs>
    <style>
      .cls-1 {
        fill: #bcff17;
        stroke: #333;
      }

      .cls-1, .cls-2 {
        stroke-miterlimit: 10;
        stroke-width: .25px;
      }

      .cls-2 {
        fill: none;
        stroke: #000;
      }
    </style>
  </defs>
  <g id="_레이어_1-2" data-name="레이어 1">
    <g>
      <polygon points="48.82 13.84 41.47 11.95 39.73 16.26 38.36 11.82 32.07 16.12 36.25 9.53 31.94 7.79 36.38 6.42 32.07 .9 38.67 4.31 40.4 0 41.78 4.44 48.82 1.66 43.89 6.73 48.2 8.47 43.76 9.84 48.82 13.84"/>
      <circle class="cls-1" cx="24.47" cy="22.95" r="14.24"/>
      <path class="cls-2" d="m10.46,20.4c-6.25.67-10.34,1.76-10.34,3.01,0,2.03,10.9,3.67,24.35,3.67s24.35-1.65,24.35-3.67c0-1.24-4.08-2.34-10.34-3.01"/>
    </g>
  </g>
</svg>