<?xml version="1.0" encoding="UTF-8"?>
<svg id="_레이어_2" data-name="레이어 2" xmlns="http://www.w3.org/2000/svg" viewBox="0 0 538.75 538.75">
  <defs>
    <style>
      .cls-1 {
        fill: none;
        stroke: #000;
        stroke-miterlimit: 10;
        stroke-width: .75px;
      }
    </style>
  </defs>
  <g id="_레이어_1-2" data-name="레이어 1">
    <circle class="cls-1" cx="269.38" cy="269.38" r="248"/>
    <path d="m269.52,538.75v-.75c4,0,8.05-.09,12.05-.27l.03.75c-4.01.18-8.07.27-12.08.27Zm-12.08-.26c-4.02-.18-8.08-.44-12.06-.79l.07-.75c3.97.35,8.02.62,12.02.79l-.03.75Zm36.22-.82l-.07-.75c3.99-.36,8.02-.81,11.98-1.34l.1.74c-3.97.54-8.01.99-12.01,1.34Zm-60.29-1.3c-3.96-.53-7.98-1.16-11.94-1.87l.13-.74c3.95.71,7.95,1.33,11.91,1.86l-.1.74Zm84.24-1.92l-.13-.74c3.93-.71,7.9-1.52,11.81-2.41l.17.73c-3.92.89-7.9,1.71-11.84,2.42Zm-108.02-2.35c-3.91-.88-7.85-1.87-11.72-2.94l.2-.72c3.86,1.06,7.8,2.05,11.69,2.93l-.17.73Zm131.58-3.01l-.2-.72c3.85-1.06,7.73-2.23,11.54-3.47l.23.71c-3.82,1.24-7.71,2.41-11.58,3.48Zm-154.89-3.39c-3.83-1.24-7.68-2.58-11.44-3.99l.26-.7c3.75,1.41,7.59,2.75,11.41,3.98l-.23.71Zm177.87-4.09l-.26-.7c3.74-1.4,7.49-2.91,11.15-4.48l.29.69c-3.68,1.58-7.44,3.09-11.19,4.5Zm-200.55-4.41c-3.7-1.58-7.41-3.27-11.02-5.01l.33-.68c3.61,1.74,7.31,3.42,10.99,5l-.29.69Zm222.71-5.08l-.33-.68c3.6-1.74,7.2-3.58,10.71-5.47l.36.66c-3.52,1.9-7.14,3.75-10.74,5.49Zm-244.52-5.43c-3.54-1.91-7.08-3.92-10.52-5.98l.38-.64c3.43,2.05,6.96,4.06,10.49,5.96l-.36.66Zm265.75-6.02l-.39-.64c3.43-2.05,6.86-4.21,10.19-6.41l.41.62c-3.34,2.21-6.78,4.37-10.22,6.43Zm-286.52-6.4c-3.35-2.21-6.69-4.53-9.94-6.89l.44-.61c3.24,2.35,6.57,4.67,9.91,6.88l-.41.62Zm306.65-6.91l-.44-.61c3.24-2.36,6.46-4.81,9.58-7.3l.47.59c-3.12,2.49-6.36,4.96-9.6,7.32Zm-326.21-7.31c-3.14-2.5-6.26-5.11-9.28-7.75l.49-.56c3.01,2.63,6.13,5.23,9.25,7.73l-.47.59Zm345.08-7.75l-.49-.56c3.01-2.63,6-5.37,8.89-8.13l.52.54c-2.9,2.77-5.9,5.51-8.92,8.15Zm-363.29-8.15c-2.9-2.77-5.77-5.64-8.55-8.54l.54-.52c2.77,2.89,5.63,5.76,8.52,8.52l-.52.54Zm380.75-8.55l-.54-.52c2.77-2.89,5.5-5.88,8.14-8.89l.56.49c-2.64,3.02-5.39,6.02-8.16,8.92Zm-397.46-8.91c-2.64-3.02-5.25-6.14-7.75-9.27l.59-.47c2.49,3.12,5.09,6.23,7.73,9.24l-.56.49Zm413.38-9.28l-.59-.47c2.5-3.13,4.96-6.35,7.31-9.59l.61.44c-2.36,3.24-4.83,6.48-7.34,9.62Zm-428.45-9.59c-2.36-3.24-4.68-6.58-6.89-9.92l.62-.41c2.2,3.33,4.51,6.65,6.87,9.89l-.61.44Zm442.69-9.96l-.62-.41c2.21-3.34,4.38-6.78,6.43-10.21l.64.38c-2.06,3.44-4.23,6.89-6.45,10.24Zm-456.01-10.17c-2.06-3.44-4.07-6.97-5.97-10.49l.66-.36c1.89,3.51,3.9,7.03,5.95,10.46l-.64.38Zm468.45-10.59l-.66-.36c1.91-3.54,3.75-7.15,5.49-10.75l.68.33c-1.74,3.61-3.59,7.24-5.51,10.78Zm-479.91-10.64c-1.75-3.61-3.43-7.3-5-10.97l.69-.29c1.57,3.66,3.25,7.34,4.99,10.94l-.67.33Zm490.43-11.16l-.69-.29c1.58-3.69,3.09-7.46,4.5-11.21l.7.26c-1.41,3.76-2.93,7.54-4.51,11.24Zm-499.94-10.99c-1.41-3.75-2.76-7.59-4-11.4l.71-.23c1.24,3.8,2.58,7.63,3.99,11.37l-.7.26Zm508.45-11.68l-.71-.23c1.23-3.8,2.4-7.69,3.46-11.54l.72.2c-1.06,3.87-2.23,7.76-3.47,11.58ZM9.71,341.31c-1.07-3.87-2.06-7.81-2.96-11.72l.73-.17c.89,3.9,1.88,7.83,2.95,11.68l-.72.2Zm522.35-12.01l-.73-.17c.89-3.9,1.7-7.87,2.4-11.81l.74.13c-.71,3.95-1.52,7.93-2.41,11.84ZM4.33,317.76c-.72-3.95-1.35-7.96-1.89-11.94l.74-.1c.54,3.96,1.17,7.97,1.88,11.9l-.74.13Zm532.01-12.23l-.74-.1c.53-3.96.98-7.99,1.33-11.98l.75.07c-.36,4-.81,8.04-1.34,12.01ZM1.09,293.81c-.36-3.99-.63-8.04-.81-12.06l.75-.03c.18,4,.45,8.05.81,12.02l-.75.07Zm537.39-12.35l-.75-.03c.18-3.99.27-8.05.27-12.05v-.58s.75,0,.75,0v.58c0,4.01-.09,8.08-.27,12.08ZM.75,269.67h-.75v-.29c0-3.92.08-7.88.25-11.79l.75.03c-.17,3.89-.25,7.85-.25,11.75v.29Zm536.96-12.93c-.19-4-.46-8.04-.82-12.02l.75-.07c.36,3.99.64,8.04.83,12.06l-.75.04ZM1.79,245.6l-.75-.07c.35-4,.8-8.04,1.32-12.01l.74.1c-.53,3.96-.97,7.99-1.32,11.98Zm533.74-12.85c-.54-3.96-1.18-7.97-1.9-11.9l.74-.13c.72,3.95,1.36,7.96,1.9,11.93l-.74.1ZM4.97,221.71l-.74-.13c.71-3.95,1.51-7.93,2.4-11.84l.73.17c-.88,3.9-1.69,7.87-2.39,11.81Zm526.23-12.67c-.9-3.9-1.89-7.83-2.96-11.68l.72-.2c1.07,3.86,2.07,7.8,2.97,11.72l-.73.17ZM10.28,198.21l-.72-.2c1.06-3.87,2.22-7.76,3.46-11.58l.71.23c-1.23,3.81-2.39,7.69-3.45,11.55Zm514.47-12.38c-1.25-3.81-2.59-7.63-4-11.37l.7-.27c1.42,3.75,2.77,7.58,4.02,11.4l-.71.23Zm-507.05-10.57l-.7-.26c1.41-3.76,2.92-7.54,4.5-11.25l.69.29c-1.58,3.69-3.09,7.47-4.49,11.21Zm498.54-11.94c-1.57-3.66-3.25-7.34-5-10.94l.67-.33c1.75,3.61,3.44,7.3,5.01,10.97l-.69.3Zm-489.07-10.27l-.68-.33c1.74-3.62,3.59-7.25,5.49-10.79l.66.36c-1.9,3.52-3.74,7.14-5.48,10.76Zm478.58-11.37c-1.9-3.5-3.9-7.02-5.97-10.45l.64-.39c2.07,3.44,4.08,6.97,5.98,10.48l-.66.36Zm-467.14-9.88l-.64-.38c2.06-3.45,4.23-6.9,6.44-10.24l.63.41c-2.2,3.33-4.36,6.77-6.42,10.21Zm454.75-10.75c-2.21-3.33-4.52-6.65-6.88-9.88l.61-.44c2.37,3.24,4.69,6.57,6.9,9.91l-.62.41Zm-441.46-9.38l-.61-.44c2.36-3.25,4.83-6.49,7.32-9.62l.59.47c-2.49,3.13-4.95,6.36-7.31,9.6Zm427.26-10.07c-2.5-3.12-5.1-6.23-7.74-9.23l.56-.49c2.64,3.01,5.25,6.13,7.76,9.26l-.59.47Zm-412.23-8.79l-.57-.49c2.64-3.02,5.38-6.03,8.15-8.93l.54.52c-2.76,2.89-5.5,5.89-8.13,8.9Zm396.35-9.32c-2.77-2.89-5.64-5.75-8.53-8.51l.52-.54c2.9,2.77,5.78,5.64,8.56,8.54l-.54.52Zm-379.71-8.11l-.52-.54c2.89-2.77,5.89-5.52,8.91-8.16l.49.56c-3.01,2.64-6,5.38-8.89,8.14Zm362.26-8.53c-3.01-2.62-6.12-5.22-9.26-7.72l.47-.59c3.15,2.51,6.27,5.11,9.29,7.74l-.49.56Zm-344.14-7.34l-.47-.59c3.13-2.5,6.36-4.97,9.6-7.33l.44.61c-3.23,2.36-6.45,4.82-9.57,7.31Zm325.28-7.68c-3.24-2.35-6.58-4.66-9.92-6.86l.41-.63c3.35,2.21,6.7,4.53,9.95,6.88l-.44.61Zm-305.82-6.51l-.41-.62c3.34-2.22,6.78-4.38,10.21-6.44l.39.64c-3.42,2.05-6.85,4.22-10.18,6.42Zm285.69-6.77c-3.44-2.06-6.98-4.06-10.5-5.95l.35-.66c3.53,1.9,7.07,3.91,10.53,5.97l-.38.64Zm-265.05-5.62l-.36-.66c3.52-1.9,7.13-3.75,10.74-5.5l.33.68c-3.59,1.74-7.2,3.58-10.71,5.48Zm243.79-5.8c-3.61-1.73-7.31-3.41-11-4.98l.29-.69c3.7,1.58,7.41,3.26,11.03,5l-.33.68Zm-222.14-4.67l-.3-.69c3.68-1.58,7.44-3.1,11.18-4.51l.26.7c-3.73,1.41-7.48,2.92-11.15,4.5Zm199.93-4.79c-3.76-1.4-7.6-2.74-11.41-3.97l.23-.71c3.83,1.24,7.68,2.58,11.44,3.98l-.26.7Zm-177.41-3.7l-.23-.71c3.81-1.24,7.7-2.42,11.57-3.49l.2.72c-3.86,1.07-7.74,2.24-11.54,3.48Zm154.45-3.71c-3.85-1.05-7.78-2.03-11.69-2.92l.17-.73c3.92.88,7.87,1.87,11.73,2.92l-.2.72Zm-131.23-2.72l-.17-.73c3.91-.89,7.89-1.71,11.84-2.43l.13.74c-3.94.72-7.91,1.53-11.8,2.42Zm107.72-2.58c-3.93-.7-7.94-1.32-11.91-1.85l.1-.74c3.98.53,8,1.15,11.94,1.86l-.13.74Zm-84.01-1.73l-.1-.74c3.96-.54,8-.99,12.01-1.36l.07.75c-3.99.36-8.02.82-11.97,1.35Zm60.12-1.43c-3.99-.35-8.03-.61-12.03-.78l.03-.75c4,.17,8.06.43,12.06.78l-.06.75Zm-36.13-.74l-.03-.75c4-.18,8.07-.28,12.08-.29v.75c-4,0-8.06.1-12.05.29Z"/>
  </g>
</svg>