<?xml version="1.0" encoding="UTF-8"?>
<svg id="_레이어_2" data-name="레이어 2" xmlns="http://www.w3.org/2000/svg" viewBox="0 0 582.5 146.5">
  <defs>
    <style>
      .cls-1 {
        stroke: #000;
        stroke-width: .75px;
      }

      .cls-1, .cls-2 {
        fill: none;
        stroke-miterlimit: 10;
      }

      .cls-2 {
        stroke: #333;
        stroke-width: .5px;
      }
    </style>
  </defs>
  <g id="_레이어_1-2" data-name="레이어 1">
    <rect class="cls-2" x=".25" y=".25" width="582" height="146" rx="73" ry="73"/>
    <polygon class="cls-1" points="473.52 114.96 469.8 113.38 471.19 117.18 468.43 114.22 468.15 118.25 466.83 114.44 464.94 118 465.29 113.98 462.11 116.47 464.06 112.93 460.15 113.91 463.37 111.48 459.39 110.78 463.33 109.87 459.98 107.62 463.94 108.38 461.8 104.96 465.11 107.28 464.54 103.28 466.63 106.74 467.74 102.85 468.23 106.86 470.82 103.77 469.65 107.63 473.27 105.86 470.63 108.91 474.66 108.76 471 110.47 474.75 111.98 470.71 112.05 473.52 114.96"/>
    <line class="cls-1" x1="75.57" y1="111.01" x2="458.93" y2="111.01"/>
    <path d="m69.68,105.03c0,3.2,3.73,5.81,8.41,5.97v.02c-4.68.15-8.4,2.76-8.41,5.97,0-3.3-3.97-5.98-8.85-5.98,4.89,0,8.84-2.67,8.85-5.98Z"/>
  </g>
</svg>