<?xml version="1.0" encoding="UTF-8"?>
<svg id="_레이어_2" data-name="레이어 2" xmlns="http://www.w3.org/2000/svg" viewBox="0 0 88.02 66.35">
  <defs>
    <style>
      .cls-1 {
        fill: #333;
      }
    </style>
  </defs>
  <g id="_레이어_1-2" data-name="레이어 1">
    <path class="cls-1" d="m88.02,34.81h0c-40.57-5.3-27.04,17.64-26.65,30.53h0s0,0,0,0c-19.65-30.08-27.4-20.33-46.88,1.02h0s0,0,0,0C33.97,33.24,11.35,28.88,0,22.78h0s0,0,0,0C12.16,18.51,28.23,24.06,29.81,0h0s0,0,0,0c5.59,3.97,14.2,28.94,34.83,2.71h0s0,0,0,0c-2.38,12.67-17.18,20.48,23.38,32.09h0Z"/>
  </g>
</svg>