<?xml version="1.0" encoding="UTF-8"?>
<svg id="_레이어_2" data-name="레이어 2" xmlns="http://www.w3.org/2000/svg" viewBox="0 0 126.99 163.41">
  <defs>
    <style>
      .cls-1 {
        fill: none;
        stroke: #333;
        stroke-miterlimit: 10;
      }
    </style>
  </defs>
  <g id="_레이어_1-2" data-name="레이어 1">
    <path class="cls-1" d="m62.29,163.28h0c9.55-74.68-32.6-49.69-56.31-48.9h0s0,0,0,0C61.25,78.06,43.26,63.85,3.88,28.11h0s0,0,0,0C64.91,63.8,72.83,22.16,84,1.24h0s0,0,0,0c7.91,22.36-2.22,51.95,42.06,54.75h0s0,0,0,0c-7.28,10.31-53.18,26.28-4.83,64.11h0s0,0,0,0c-23.32-4.33-37.78-31.52-58.95,43.19h0Z"/>
  </g>
</svg>