<?xml version="1.0" encoding="UTF-8"?>
<svg id="_레이어_2" data-name="레이어 2" xmlns="http://www.w3.org/2000/svg" viewBox="0 0 44.25 52.18">
  <defs>
    <style>
      .cls-1 {
        fill: none;
        stroke: #333;
        stroke-miterlimit: 10;
      }
    </style>
  </defs>
  <g id="_레이어_1-2" data-name="레이어 1">
    <path class="cls-1" d="m43.74,7.93h0c-19.6,11.82-5.69,17.15-1.02,22.65h0s0,0,0,0c-19.09-6.32-19.08.66-20.16,16.79h0s0,0,0,0c-3.02-21.28-14.43-15.31-21.53-14.02h0s0,0,0,0c3.83-6.11,12.8-9.28,5.11-20.36h0s0,0,0,0c3.83-.21,16.3,7.71,16.19-10.95h0s0,0,0,0c3.37,6.37-.38,14.95,21.42,5.89h0Z"/>
  </g>
</svg>