<?xml version="1.0" encoding="UTF-8"?>
<svg id="_레이어_2" data-name="레이어 2" xmlns="http://www.w3.org/2000/svg" viewBox="0 0 1057.22 283.35">
  <defs>
    <style>
      .cls-1 {
        stroke-width: .75px;
      }

      .cls-1, .cls-2 {
        fill: none;
        stroke: #333;
        stroke-miterlimit: 10;
      }

      .cls-2 {
        stroke-width: .5px;
      }
    </style>
  </defs>
  <g id="_레이어_1-2" data-name="레이어 1">
    <g>
      <g>
        <path d="m183.27,85.6v7.71c0,.82-.32,1.49-.94,2.01-.63.51-1.32.9-2.06,1.16-.87.31-1.88.54-3.01.69v-11.57h-8.79l-2.27,1-2.28-1v-.77h26.53l3.78-2.54,3.78,2.54v.77h-14.73Zm-2.85-19.24c1.77,0,3.46.23,5.07.69s3.01,1.09,4.2,1.89,2.15,1.71,2.85,2.74c.71,1.03,1.06,2.11,1.06,3.24s-.35,2.18-1.06,3.16c-.71.98-1.66,1.84-2.85,2.58-1.2.75-2.6,1.33-4.2,1.75s-3.3.64-5.07.64-3.5-.21-5.09-.64-2.99-1.01-4.18-1.75c-1.2-.74-2.15-1.61-2.85-2.58-.71-.98-1.06-2.03-1.06-3.16s.35-2.21,1.06-3.24c.71-1.03,1.66-1.94,2.85-2.74s2.59-1.43,4.18-1.89,3.29-.69,5.09-.69Zm0,15.12c1,0,1.96-.18,2.87-.54.91-.36,1.72-.83,2.41-1.43.69-.59,1.25-1.29,1.66-2.08s.62-1.63.62-2.51-.21-1.74-.62-2.58-.96-1.59-1.66-2.24c-.69-.64-1.5-1.16-2.41-1.56-.91-.4-1.87-.6-2.87-.6s-1.96.2-2.87.6c-.91.4-1.72.92-2.41,1.56s-1.25,1.39-1.66,2.24-.62,1.71-.62,2.58.21,1.71.62,2.51.96,1.49,1.66,2.08,1.5,1.07,2.41,1.43c.91.36,1.87.54,2.87.54Z"/>
        <path d="m220.28,85.6v7.71c0,.82-.32,1.49-.94,2.01-.63.51-1.32.9-2.06,1.16-.87.31-1.88.54-3.01.69v-11.57h-8.79l-2.27,1-2.28-1v-.77h26.53l3.78-2.54,3.78,2.54v.77h-14.73Zm.69-12.72c.26.18.69.42,1.31.71.62.29,1.31.62,2.08.98s1.56.76,2.37,1.2,1.55.89,2.22,1.35c.67.46,1.21.93,1.64,1.39.42.46.62.9.6,1.31-.05.75-.26,1.39-.62,1.93-.36.54-.79.94-1.29,1.2s-1.03.35-1.58.27c-.55-.08-1.06-.35-1.52-.81-.15-.18-.53-.58-1.14-1.21-.6-.63-1.26-1.34-1.97-2.14s-1.39-1.58-2.06-2.35c-.67-.77-1.14-1.38-1.43-1.81l-.66.96c-.59.77-1.48,1.49-2.68,2.16s-2.49,1.29-3.89,1.85c-1.4.56-2.81,1.07-4.24,1.52-1.43.45-2.68.84-3.76,1.18l-.46-.58c1.72-.79,3.27-1.8,4.65-3.01,1.38-1.21,2.55-2.49,3.53-3.86.98-1.36,1.73-2.73,2.26-4.11.53-1.38.79-2.62.79-3.72h-6.59l-1.89,1.2-1.89-1.2v-.66h19.97l3.01-1.66,3.01,1.66v.66h-10.91c.31.08.6.24.89.5.28.26.52.57.71.93.19.36.32.73.38,1.1s.02.71-.13,1.02c-.05.26-.15.61-.31,1.06s-.28.78-.38.98Z"/>
        <path d="m262.62,65.44l-2.12-.23c-.23-.05-.35-.18-.35-.39,0-.23.13-.35.38-.35h.04l8.06.77v28.07c0,.82-.32,1.49-.94,2.01-.63.51-1.32.9-2.06,1.16-.87.31-1.88.54-3.01.69v-10.22c-.54.28-1.22.55-2.04.81-.93.28-2.04.51-3.35.67-1.31.17-2.87.25-4.67.25h-10.06l-2.27,1-2.28-1v-.77h16.31c1.49-.1,2.72-.24,3.7-.43.98-.18,1.79-.38,2.45-.62.66-.23,1.16-.49,1.52-.77.26-.21.49-.42.69-.66v-20.01Zm-11.76,2.04c1.18.18,2.28.53,3.3,1.04,1.02.51,1.9,1.16,2.66,1.93.76.77,1.35,1.66,1.77,2.68.42,1.02.64,2.1.64,3.26s-.26,2.33-.79,3.35c-.53,1.03-1.25,1.92-2.16,2.66-.91.75-1.98,1.33-3.2,1.76s-2.53.63-3.91.63-2.69-.21-3.89-.63-2.26-1.01-3.16-1.76c-.9-.74-1.61-1.63-2.14-2.66-.53-1.03-.79-2.14-.79-3.35,0-1.39.31-2.64.92-3.76.62-1.12,1.41-2.06,2.37-2.83s2.04-1.37,3.22-1.79,2.34-.64,3.47-.64c.31,0,.6.01.87.04.27.03.55.05.83.08Zm-1.7,15.85c.8,0,1.47-.18,2.02-.54.55-.36,1-.86,1.33-1.48.33-.63.57-1.37.71-2.22.14-.85.21-1.75.21-2.7s-.07-1.92-.21-2.83-.38-1.72-.71-2.43-.78-1.27-1.33-1.7c-.55-.42-1.23-.63-2.02-.63s-1.46.21-2,.63c-.54.43-.98.99-1.31,1.7s-.57,1.52-.71,2.43c-.14.91-.21,1.86-.21,2.83s.07,1.85.21,2.7c.14.85.38,1.59.71,2.22.33.63.77,1.12,1.31,1.48s1.21.54,2,.54Z"/>
        <path d="m302.91,67.75v10.83c0,.82-.31,1.49-.94,2.01s-1.32.9-2.06,1.16c-.88.31-1.88.54-3.01.69v-1.85h-6.59c-.44.38-.94.7-1.52.94-.58.25-1.12.43-1.64.56-.62.15-1.25.27-1.89.35v-14.5l-2.12-.23c-.1,0-.19-.04-.25-.12-.06-.08-.1-.15-.1-.23,0-.26.13-.38.39-.38h.04l8.06.77v3.62h5.63v-3.43l-2.12-.23c-.1,0-.19-.04-.25-.12-.06-.08-.1-.15-.1-.23,0-.26.13-.38.39-.38h.04l8.06.77Zm-.35,16.85c.39.44.45.86.19,1.27-.13.18-.27.35-.42.5h3.43l3.01-1.39,3.01,1.39v.77h-10.91c.75.21,1.16.4,1.23.6.08.19.05.38-.08.56.26.15.69.35,1.31.58.62.23,1.31.51,2.08.83.77.32,1.56.66,2.37,1.02.81.36,1.55.73,2.22,1.12.67.39,1.21.77,1.64,1.16.42.39.62.76.6,1.12-.05.62-.26,1.15-.62,1.6s-.79.78-1.29.98c-.5.21-1.03.28-1.58.21s-1.06-.29-1.52-.67c-.15-.15-.53-.5-1.14-1.02-.6-.53-1.26-1.12-1.97-1.78-.71-.65-1.39-1.3-2.06-1.95-.67-.64-1.14-1.16-1.43-1.54l-.66.81c-.59.64-1.48,1.25-2.68,1.81-1.2.57-2.49,1.09-3.89,1.56-1.4.47-2.82.9-4.24,1.27-1.43.37-2.68.7-3.76.98l-.46-.5c1.72-.64,3.22-1.32,4.49-2.02s2.36-1.43,3.28-2.18c.91-.74,1.64-1.5,2.2-2.26.55-.76.97-1.52,1.25-2.29h-6.59l-1.89,1-1.89-1v-.77h11.88c-.08-.05-.14-.1-.19-.15-.26-.23-.54-.49-.85-.77-.31-.28-.62-.59-.92-.93s-.59-.69-.85-1.08c.9-.38,1.8-.62,2.7-.69.77-.05,1.61.04,2.51.27.9.23,1.74.76,2.51,1.58Zm-5.67-5.28v-6.67h-5.63v5.94c0,.26-.04.5-.12.73h5.75Zm15.46-.04c0,.82-.32,1.49-.95,2.01s-1.32.9-2.06,1.16c-.87.31-1.88.54-3.01.7v-17.74l-2.12-.23c-.1,0-.19-.04-.25-.12-.06-.08-.1-.15-.1-.23,0-.26.13-.38.39-.38h.04l8.06.77v14.07Z"/>
        <path d="m351.77,76.39c.75,0,1.38.26,1.91.79.53.53.79,1.16.79,1.91h-6.17v14.23c0,.82-.31,1.49-.94,2.01s-1.32.9-2.06,1.16c-.88.31-1.88.54-3.01.69v-7.09c-.33.13-.71.26-1.12.38-.93.28-2.04.51-3.35.68-1.31.17-2.87.25-4.67.25h-10.06l-2.27,1-2.28-1v-.77h4.86v-12.84c1.03.15,1.97.39,2.81.7.69.28,1.34.67,1.93,1.18.59.5.89,1.16.89,1.99v8.98h5.82c1.49-.1,2.72-.22,3.68-.37s1.75-.3,2.37-.48c.56-.18,1.03-.38,1.39-.62v-23.71l-2.12-.23c-.23-.05-.35-.18-.35-.39,0-.23.13-.35.39-.35h.04l8.06.77v12.57h1.08c.23-.44.56-.78.98-1.04.42-.26.89-.38,1.41-.38Zm-12.42-8.79c0,2.62-.04,4.96-.12,7s-.41,3.85-.98,5.42c-.58,1.57-1.52,2.92-2.81,4.05-1.3,1.13-3.17,2.1-5.61,2.89l-.46-.69c1.18-1.72,2.02-3.53,2.53-5.42.5-1.89.82-3.67.96-5.34.14-1.67.17-3.15.08-4.44-.09-1.28-.13-2.2-.13-2.74h-8.64l-1.89,1-1.89-1v-.73h12.49l3.24-1.5,3.24,1.5Z"/>
        <path d="m386.24,68.1c0,3.88-.44,6.62-1.31,8.21s-2.09,2.89-3.66,3.89c-1.57,1-3.43,1.82-5.57,2.45-2.15.63-4.5,1.28-7.08,1.95l-.66-.93c2.13-.9,3.91-1.79,5.32-2.66,1.41-.87,2.56-1.73,3.43-2.56.87-.84,1.52-1.65,1.93-2.45.41-.79.69-1.84.85-3.14.15-1.3.22-2.2.21-2.72s-.02-.95-.02-1.31h-7.09l-1.89.96-1.89-.96v-.73h10.95l3.24-1.5,3.24,1.5Zm-6.63,18.24v4.82h9.33l3.24-1.46,3.24,1.46v.73h-15.81v4.67h10.1l4.01-2.24,3.62,2.24v.73h-22.93c-.39,0-.69-.07-.89-.21-.21-.14-.36-.31-.47-.52-.1-.23-.17-.49-.19-.77v-9.41h-1.46c-.26,0-.39-.13-.39-.39s.13-.38.39-.38h18.28l3.24-1.46,3.24,1.46v.73h-16.54Zm20.01-12.96c.75,0,1.38.26,1.91.79.53.53.79,1.16.79,1.91h-6.17v3.59c0,.82-.32,1.49-.94,2-.63.52-1.32.9-2.06,1.16-.87.31-1.88.54-3.01.69v-18.12l-2.12-.23c-.1,0-.19-.04-.25-.12-.06-.08-.1-.15-.1-.23,0-.26.13-.38.39-.38h.04l8.06.77v9.6h1.08c.23-.44.56-.78.98-1.04.42-.26.89-.38,1.41-.38Z"/>
        <path d="m414.65,67.98c1.31,0,2.56.29,3.76.87,1.2.58,2.24,1.36,3.14,2.35.9.99,1.62,2.15,2.16,3.5s.81,2.78.81,4.29-.27,2.94-.81,4.27-1.26,2.5-2.16,3.5c-.9,1-1.95,1.79-3.14,2.37-1.2.58-2.45.87-3.76.87s-2.56-.29-3.74-.87c-1.18-.58-2.22-1.37-3.12-2.37-.9-1-1.62-2.17-2.16-3.5s-.81-2.76-.81-4.27.27-2.94.81-4.29,1.26-2.51,2.16-3.5,1.94-1.77,3.12-2.35c1.18-.58,2.43-.87,3.74-.87Zm0,20.94c.75,0,1.38-.29,1.91-.87.53-.58.96-1.34,1.31-2.28s.6-2,.75-3.19.23-2.38.23-3.59-.08-2.37-.23-3.55c-.15-1.19-.41-2.25-.75-3.19s-.78-1.71-1.31-2.3c-.53-.59-1.16-.89-1.91-.89s-1.38.3-1.91.89c-.53.59-.96,1.36-1.29,2.3s-.58,2-.75,3.19c-.17,1.18-.25,2.37-.25,3.55s.08,2.41.25,3.59.42,2.25.75,3.19.76,1.7,1.29,2.28c.53.58,1.16.87,1.91.87Zm20.74,4.39c0,.82-.32,1.49-.94,2.01-.63.51-1.32.9-2.06,1.16-.87.31-1.88.54-3.01.69v-31.73l-2.12-.23c-.23-.05-.35-.18-.35-.39,0-.23.13-.35.39-.35h.04l8.06.77v28.07Z"/>
        <path d="m460.61,67.98v19.05c2.34,0,4.38-.13,6.13-.38,1.75-.26,3.33-.67,4.74-1.23,1.13-.46,2.22-1.03,3.28-1.7v-18.28l-2.12-.23c-.23-.05-.35-.18-.35-.39,0-.23.13-.35.38-.35h.04l8.06.77v12.57h1.08c.23-.44.56-.78.98-1.04.42-.26.89-.38,1.41-.38.75,0,1.38.26,1.91.79.53.53.79,1.16.79,1.91h-6.17v14.23c0,.82-.32,1.49-.95,2.01s-1.32.9-2.06,1.16c-.87.31-1.88.54-3.01.69v-11.95c-.54.33-1.13.67-1.77,1-.98.51-2.08.97-3.32,1.37-1.23.4-2.6.72-4.11.96s-3.16.37-4.96.37h-4.78c-.39,0-.68-.07-.89-.21-.21-.14-.36-.31-.46-.52-.1-.23-.17-.49-.19-.77v-19.43h-1.46c-.26,0-.39-.13-.39-.38s.13-.39.39-.39h10.1l3.24-1.5,3.24,1.5v.77h-8.79Z"/>
        <path d="m500.44,66.79c1.1.18,2.14.52,3.1,1,.96.49,1.8,1.1,2.51,1.83.71.73,1.26,1.57,1.66,2.53s.6,1.97.6,3.05c0,1.16-.25,2.22-.75,3.2-.5.98-1.18,1.81-2.02,2.51-.85.69-1.84,1.24-2.99,1.64-1.14.4-2.37.6-3.68.6s-2.49-.2-3.62-.6c-1.13-.4-2.12-.95-2.97-1.64-.85-.7-1.52-1.53-2-2.51-.49-.98-.73-2.04-.73-3.2,0-1.31.29-2.49.87-3.53.58-1.04,1.32-1.93,2.22-2.66.9-.73,1.9-1.3,3.01-1.7s2.18-.6,3.24-.6c.28,0,.55,0,.79.02.24.01.51.03.79.06Zm-1.58,15c.75,0,1.38-.17,1.89-.52.51-.35.92-.82,1.23-1.41.31-.59.53-1.29.67-2.1.14-.81.21-1.66.21-2.56s-.07-1.82-.21-2.68c-.14-.86-.37-1.62-.67-2.28s-.72-1.18-1.23-1.58c-.51-.4-1.14-.6-1.89-.6s-1.37.2-1.87.6-.91.92-1.21,1.58c-.31.66-.53,1.41-.67,2.28s-.21,1.75-.21,2.68.07,1.75.21,2.56c.14.81.37,1.51.67,2.1.31.59.71,1.06,1.21,1.41s1.12.52,1.87.52Zm10.6,1.46c.8.1,1.55.26,2.27.46v-18.32l-2.12-.23c-.1,0-.19-.04-.25-.12-.06-.08-.1-.15-.1-.23,0-.26.13-.38.39-.38h.04l8.06.77v5.36h1.08c.23-.44.56-.78.98-1.04s.89-.39,1.41-.39c.75,0,1.38.26,1.91.79.53.53.79,1.16.79,1.91h-6.17v5.24h2.12c.23-.44.56-.78.98-1.04.42-.26.89-.38,1.41-.38.75,0,1.38.26,1.91.79.53.53.79,1.16.79,1.91h-7.21v3.24c0,.82-.32,1.49-.95,2-.63.52-1.32.9-2.06,1.16l-.35.12c.41.23.8.5,1.16.81.77.62,1.38,1.34,1.81,2.16.44.82.66,1.7.66,2.62,0,1-.27,1.92-.81,2.76s-1.27,1.55-2.2,2.16c-.92.6-2.01,1.07-3.26,1.41s-2.58.5-3.99.5-2.74-.17-3.99-.5-2.33-.8-3.26-1.41c-.93-.61-1.66-1.32-2.2-2.16-.54-.84-.81-1.75-.81-2.76,0-1.13.31-2.14.94-3.04s1.44-1.66,2.43-2.29c.99-.63,2.09-1.11,3.32-1.45s2.41-.5,3.57-.5c.28,0,.56,0,.85.02.28.01.57.03.85.06Zm-1.7,12.88c.8,0,1.47-.15,2.02-.44.55-.29,1-.7,1.35-1.21.35-.52.6-1.12.75-1.81.15-.7.23-1.43.23-2.2s-.08-1.56-.23-2.29-.4-1.38-.75-1.95c-.35-.56-.8-1.02-1.35-1.37s-1.23-.52-2.02-.52-1.51.17-2.06.52-1,.8-1.33,1.37c-.33.57-.58,1.21-.73,1.95s-.23,1.5-.23,2.29.08,1.5.23,2.2c.15.69.4,1.3.73,1.81.33.51.78.92,1.33,1.21.55.3,1.24.44,2.06.44Z"/>
        <path d="m530.79,69.99l-1.89,1-1.89-1v-.77h14.57l3.01-1.39,3.01,1.39v.77h-16.81Zm6.79.85c1.31,0,2.56.18,3.76.54,1.2.36,2.24.86,3.14,1.48.9.63,1.62,1.37,2.16,2.22.54.85.81,1.76.81,2.74s-.27,1.85-.81,2.7c-.54.85-1.26,1.59-2.16,2.22-.9.63-1.95,1.12-3.14,1.48-1.2.36-2.45.54-3.76.54s-2.56-.18-3.74-.54c-1.18-.36-2.22-.85-3.12-1.48-.9-.63-1.62-1.37-2.16-2.22s-.81-1.75-.81-2.7.27-1.89.81-2.74c.54-.85,1.26-1.59,2.16-2.22.9-.63,1.94-1.12,3.12-1.48,1.18-.36,2.43-.54,3.74-.54Zm-2.81,25.83c-.57,0-.99-.12-1.27-.35-.28-.23-.49-.49-.62-.77-.15-.33-.24-.72-.27-1.16v-7.13h-1.93c-.26,0-.39-.13-.39-.39s.13-.38.39-.38h4.7c.49-.03.95.07,1.39.29.44.22.82.5,1.14.85.32.35.58.73.77,1.14.19.41.29.81.29,1.2v5.24c0,.15.02.28.08.38.1.23.31.35.62.35h10.68l3.24-1.5,3.24,1.5v.73h-22.05Zm5.55-31.54c.39.44.45.86.19,1.27-.26.41-.66.74-1.21.98s-1.16.37-1.83.39c-.67.01-1.21-.16-1.62-.52-.15-.13-.36-.3-.62-.52-.26-.22-.54-.47-.85-.75s-.62-.59-.92-.93c-.31-.33-.59-.7-.85-1.08.9-.38,1.8-.62,2.7-.69.77-.05,1.61.04,2.51.27.9.23,1.74.76,2.51,1.58Zm-2.74,18.93c.75,0,1.38-.19,1.91-.56.53-.37.96-.85,1.31-1.45s.6-1.26.75-2.01c.15-.74.23-1.49.23-2.24s-.08-1.53-.23-2.28c-.15-.74-.41-1.42-.75-2.02s-.78-1.09-1.31-1.45c-.53-.36-1.16-.54-1.91-.54s-1.38.18-1.91.54c-.53.36-.96.84-1.29,1.45s-.58,1.28-.75,2.02c-.17.75-.25,1.5-.25,2.28s.08,1.49.25,2.24c.17.75.42,1.41.75,2.01s.76,1.07,1.29,1.45c.53.37,1.16.56,1.91.56Zm21.71-10.68c.75,0,1.38.26,1.91.79.53.53.79,1.16.79,1.91h-6.17v8.98c0,.82-.32,1.49-.95,2-.63.52-1.32.9-2.06,1.16-.87.31-1.88.54-3.01.7v-23.52l-2.12-.23c-.1,0-.19-.04-.25-.12-.06-.08-.1-.15-.1-.23,0-.26.13-.38.39-.38h.04l8.06.77v9.6h1.08c.23-.44.56-.78.98-1.04.42-.26.89-.38,1.41-.38Z"/>
        <path d="m582.15,66.94c.82,0,1.44.17,1.85.52.41.35.71.73.89,1.14.18.49.26,1.04.23,1.66-.08.85-.18,1.69-.31,2.53s-.3,1.52-.5,2.06c.39.23.91.56,1.56.98.66.42,1.3.9,1.95,1.45.64.54,1.18,1.12,1.62,1.73s.64,1.21.62,1.77c-.05.67-.28,1.18-.67,1.52s-.85.57-1.37.68c-.51.1-1.01.12-1.48.04-.48-.08-.82-.22-1.02-.42-.39-.38-.67-.81-.87-1.27-.19-.46-.35-.93-.46-1.41-.12-.47-.25-.95-.39-1.43-.14-.48-.35-.92-.64-1.33l-.62.89c-.59.69-1.31,1.32-2.16,1.89-.85.57-1.76,1.07-2.74,1.52-.98.45-2.01.85-3.08,1.2-1.08.35-2.15.67-3.2.98l-.46-.54c1.44-.62,2.64-1.38,3.61-2.28.96-.9,1.73-1.86,2.31-2.89.58-1.03,1.01-2.07,1.29-3.12.28-1.05.48-2.05.58-3.01.1-.95.15-1.81.15-2.56s.01-1.34.04-1.76h-2c-.26,0-.39-.09-.39-.27s.13-.27.39-.27h5.28Zm22.13,25.95c0,.62-.17,1.15-.5,1.6-.33.45-.75.83-1.23,1.14-.49.31-1.02.56-1.58.77-.57.21-1.1.37-1.6.48-.5.12-.92.2-1.27.25-.35.05-.53.08-.56.08v-9.87h-11.34l-3.28,1.47-3.24-1.47v-.73h24.6v6.29Zm.46-11.53c0,.82-.27,1.48-.81,1.99s-1.14.89-1.81,1.18c-.77.31-1.65.54-2.62.7v-9.6h-2.47v5.74c0,.82-.27,1.48-.81,1.99-.54.5-1.14.89-1.81,1.18-.77.31-1.65.54-2.62.7v-18.62l-2.12-.23c-.23-.05-.35-.18-.35-.38,0-.23.13-.35.39-.35h.04l7.29.77v7.94h2.47v-8.91l-2.12-.23c-.23-.05-.35-.18-.35-.39,0-.23.13-.35.38-.35h.04l7.29.77v16.12Z"/>
        <path d="m612.26,82.52l-2.27,1-2.28-1v-.77h26.53l3.78-2.54,3.78,2.54v.77h-29.54Zm25.95,13.92v.73h-22.63c-.62,0-1.09-.12-1.41-.37-.32-.24-.55-.52-.67-.83-.15-.33-.25-.73-.27-1.19v-3.55h-1.16c-.26,0-.39-.13-.39-.38s.13-.39.39-.39h19.74v-4.24h-13.26l-3.24,1.5-3.24-1.5v-.73h19.28l3.24-1.5,3.24,1.5v5.71h-18.24v4.51c0,.15.03.28.08.39.1.23.31.35.62.35h9.25l4.32-2.04,4.36,2.04Zm-11.26-30.65c1.49.15,2.88.43,4.16.83,1.29.4,2.4.89,3.34,1.48.94.59,1.68,1.27,2.22,2.04.54.77.81,1.61.81,2.51,0,.95-.33,1.82-.98,2.62-.66.8-1.56,1.48-2.7,2.06-1.14.58-2.48,1.03-4.01,1.35-1.53.32-3.17.48-4.92.48s-3.38-.16-4.9-.48c-1.52-.32-2.85-.77-3.99-1.35-1.14-.58-2.04-1.27-2.7-2.06-.66-.8-.98-1.67-.98-2.62,0-1.08.39-2.04,1.16-2.89.77-.85,1.77-1.57,2.99-2.16s2.57-1.04,4.05-1.35c1.48-.31,2.94-.46,4.38-.46h2.08Zm-2.08,12.22c1.23,0,2.28-.14,3.14-.42s1.56-.66,2.1-1.14c.54-.47.92-1.04,1.16-1.7.23-.66.35-1.36.35-2.1s-.12-1.43-.35-2.12-.62-1.3-1.16-1.83c-.54-.53-1.24-.95-2.1-1.27s-1.91-.48-3.14-.48-2.32.16-3.18.48c-.86.32-1.56.75-2.08,1.27-.53.53-.91,1.14-1.14,1.83s-.35,1.4-.35,2.12.12,1.45.35,2.1c.23.65.61,1.22,1.14,1.7.53.48,1.22.86,2.08,1.14.86.28,1.92.42,3.18.42Z"/>
        <path d="m675.61,68.37c0,2.62-.44,5.08-1.31,7.36-.87,2.29-2.1,4.35-3.66,6.19-1.57,1.84-3.43,3.42-5.57,4.74-2.15,1.32-4.51,2.32-7.08,2.99l-.46-.69c2.13-1.03,3.89-2.19,5.28-3.47s2.51-2.6,3.37-3.95c.86-1.35,1.49-2.69,1.89-4.03.4-1.34.67-2.56.83-3.68.15-1.12.22-2.1.19-2.93-.03-.84-.04-1.43-.04-1.79h-7.09l-1.89,1-1.89-1v-.73h10.95l3.24-1.5,3.24,1.5Zm13.19,8.02c.75,0,1.38.26,1.91.79.53.53.79,1.16.79,1.91h-6.17v14.23c0,.82-.32,1.49-.94,2.01-.63.51-1.32.9-2.06,1.16-.87.31-1.88.54-3.01.69v-31.73l-2.12-.23c-.23-.05-.35-.18-.35-.39,0-.23.13-.35.39-.35h.04l8.06.77v12.57h1.08c.23-.44.56-.78.98-1.04.42-.26.89-.38,1.41-.38Z"/>
        <path d="m713.74,68.37h-.04v.77h-7.09c-.05,1.31-.17,2.66-.37,4.05-.19,1.39-.46,2.69-.79,3.89.26.23.64.54,1.16.93.51.38,1.07.84,1.66,1.37.59.53,1.2,1.09,1.83,1.7.63.61,1.2,1.22,1.72,1.85.51.63.92,1.25,1.23,1.87.31.62.45,1.21.42,1.78-.05.98-.3,1.68-.75,2.1-.45.43-.96.67-1.52.73s-1.12,0-1.66-.21c-.54-.21-.9-.45-1.08-.73-.15-.23-.39-.71-.71-1.43-.32-.72-.67-1.52-1.06-2.41-.39-.89-.78-1.78-1.18-2.68-.4-.9-.74-1.65-1.02-2.24l-.66,1.27c-.59,1-1.36,1.94-2.31,2.79-.95.86-1.99,1.65-3.1,2.35-1.12.71-2.27,1.34-3.45,1.91-1.18.56-2.31,1.07-3.39,1.5l-.46-.77c1.47-.9,2.71-1.93,3.72-3.08,1.01-1.16,1.85-2.36,2.51-3.61.66-1.25,1.16-2.52,1.5-3.82.35-1.3.6-2.52.77-3.66s.27-2.19.31-3.14c.04-.95.07-1.72.1-2.31h-3.12l-1.89,1-1.89-1v-.77h14.23l3.43-1.5,2.97,1.5Zm8.83,24.95c0,.82-.32,1.49-.95,2.01s-1.32.9-2.06,1.16c-.87.31-1.88.54-3.01.69v-31.73l-2.12-.23c-.23-.05-.35-.18-.35-.39,0-.1.1-.19.29-.25.19-.06.35-.1.48-.1h.04l7.67.77v28.07Z"/>
        <path d="m744.63,91h8.71l3.78-2.54,3.78,2.54v.77h-29.54l-2.27,1-2.28-1v-.77h11.8v-13.61c1.13.15,2.13.38,3.01.69.39.13.76.29,1.12.48.36.19.68.42.96.68.28.26.51.55.67.89.17.33.25.71.25,1.12v9.76Zm13.42-22.63c0,2.62-.06,4.99-.17,7.11s-.49,4.02-1.12,5.69c-.63,1.67-1.61,3.11-2.95,4.32-1.34,1.21-3.23,2.21-5.67,3.01l-.46-.7c.8-1.16,1.44-2.37,1.93-3.64.49-1.27.87-2.54,1.16-3.82.28-1.27.48-2.5.6-3.68.12-1.18.18-2.28.19-3.28.01-1,0-1.88-.02-2.62-.03-.75-.04-1.3-.04-1.66h-17.51l-1.89,1-1.89-1v-.73h21.36l3.24-1.5,3.24,1.5Z"/>
        <path d="m785.69,67.6h-.04v.77h-7.09c-.03.64-.07,1.35-.13,2.12-.06.77-.14,1.54-.23,2.31s-.21,1.53-.35,2.28c-.14.74-.29,1.41-.44,2,.26.23.64.54,1.16.93.51.38,1.07.84,1.66,1.37.59.53,1.2,1.09,1.83,1.7.63.61,1.2,1.22,1.72,1.85.51.63.92,1.25,1.23,1.87.31.62.45,1.21.42,1.78-.05.98-.3,1.68-.75,2.1-.45.43-.96.67-1.52.73s-1.12,0-1.66-.21-.9-.45-1.08-.73c-.15-.23-.39-.71-.71-1.43-.32-.72-.67-1.52-1.06-2.41-.38-.89-.78-1.78-1.18-2.68-.4-.9-.74-1.65-1.02-2.24l-.66,1.27c-.59,1-1.36,1.94-2.31,2.79-.95.86-1.99,1.65-3.1,2.35s-2.27,1.34-3.45,1.91c-1.18.56-2.31,1.07-3.39,1.5l-.46-.77c1.47-.9,2.71-1.95,3.72-3.14s1.85-2.45,2.51-3.76,1.16-2.64,1.5-3.99c.35-1.35.6-2.63.77-3.84.17-1.21.27-2.31.31-3.3.04-.99.07-1.78.1-2.37h-3.12l-1.89,1-1.89-1v-.77h14.23l3.43-1.5,2.97,1.5Zm11.53,8.79c.75,0,1.38.26,1.91.79.53.53.79,1.16.79,1.91h-6.17v14.23c0,.82-.32,1.49-.95,2.01s-1.32.9-2.06,1.16c-.87.31-1.88.54-3.01.69v-31.73l-2.12-.23c-.23-.05-.35-.18-.35-.39,0-.23.13-.35.38-.35h.04l8.06.77v12.57h1.08c.23-.44.56-.78.98-1.04.42-.26.89-.38,1.41-.38Z"/>
        <path d="m817.92,70.18l-1.89,1-1.89-1v-.77h14.57l3.01-1.39,3.01,1.39v.77h-16.81Zm6.79,1c1.31,0,2.56.26,3.76.77,1.2.51,2.24,1.2,3.14,2.04.9.85,1.62,1.85,2.16,3.01.54,1.16.81,2.39.81,3.7s-.27,2.54-.81,3.68c-.54,1.14-1.26,2.14-2.16,2.99-.9.85-1.95,1.52-3.14,2.03-1.2.5-2.45.75-3.76.75s-2.56-.25-3.74-.75c-1.18-.5-2.22-1.18-3.12-2.03s-1.62-1.84-2.16-2.99c-.54-1.14-.81-2.37-.81-3.68s.27-2.54.81-3.7c.54-1.16,1.26-2.16,2.16-3.01s1.94-1.53,3.12-2.04c1.18-.52,2.43-.77,3.74-.77Zm2.74-5.67c.39.44.45.86.19,1.27-.26.41-.66.74-1.21.98s-1.16.37-1.83.38c-.67.01-1.21-.16-1.62-.52-.15-.13-.36-.3-.62-.52-.26-.22-.54-.47-.85-.75s-.62-.59-.92-.93c-.31-.33-.59-.69-.85-1.08.9-.38,1.8-.62,2.7-.69.77-.05,1.61.04,2.51.27.9.23,1.74.76,2.51,1.58Zm-2.74,23.75c.75,0,1.38-.26,1.91-.77.53-.52.96-1.18,1.31-1.99.35-.81.6-1.73.75-2.74s.23-2.03.23-3.03c0-1.06-.08-2.09-.23-3.09s-.41-1.91-.75-2.72c-.35-.81-.78-1.47-1.31-1.99-.53-.52-1.16-.77-1.91-.77s-1.38.26-1.91.77c-.53.52-.96,1.18-1.29,1.99-.33.81-.58,1.72-.75,2.72s-.25,2.04-.25,3.09.08,2.02.25,3.03.42,1.93.75,2.74c.33.81.76,1.47,1.29,1.99.53.52,1.16.77,1.91.77Zm21.48-12.88c.75,0,1.38.26,1.91.79.53.53.79,1.16.79,1.91h-6.17v14.23c0,.82-.32,1.49-.95,2.01s-1.32.9-2.06,1.16c-.87.31-1.88.54-3.01.69v-31.73l-2.12-.23c-.23-.05-.35-.18-.35-.39,0-.23.13-.35.38-.35h.04l8.06.77v12.57h1.08c.23-.44.56-.78.98-1.04.42-.26.89-.38,1.41-.38Z"/>
        <path d="m853.32,82.13l-2.27,1.77-2.28-1.77v-.77h26.53l3.78-2.54,3.78,2.54v.77h-29.54Zm1.7-5.13c-.57,0-.99-.12-1.27-.35-.28-.23-.49-.49-.62-.77-.15-.33-.25-.72-.27-1.16v-7.13h-1.93c-.26,0-.38-.13-.38-.39s.13-.38.38-.38h4.7c.49-.03.95.07,1.39.29.44.22.82.5,1.14.85.32.35.58.73.77,1.14.19.41.29.81.29,1.2v5.24c0,.15.03.28.08.39.1.23.31.35.62.35h12.61l3.24-1.5,3.24,1.5v.73h-23.98Zm1.54,19.66c-.57,0-.99-.12-1.27-.35-.28-.23-.49-.49-.62-.77-.15-.33-.24-.72-.27-1.16v-7.13h-1.93c-.26,0-.39-.13-.39-.39s.13-.38.39-.38h4.7c.49-.03.95.07,1.39.29.44.22.82.5,1.14.85.32.35.58.73.77,1.14.19.41.29.81.29,1.2v5.24c0,.15.03.28.08.38.1.23.31.35.62.35h11.84l3.24-1.5,3.24,1.5v.73h-23.21Z"/>
        <path d="m173.13,121.74v17.89c2.34,0,4.38-.13,6.13-.38,1.75-.26,3.33-.67,4.74-1.25,1.41-.58,2.75-1.3,4.01-2.18.26-.18.53-.37.81-.58v-17.2l-2.12-.23c-.23-.05-.35-.18-.35-.39,0-.23.13-.35.38-.35h.04l8.06.77v28.07c0,.82-.32,1.49-.95,2.01s-1.32.9-2.06,1.16c-.87.31-1.88.54-3.01.69v-13.07c-.23.18-.48.36-.73.54-.75.54-1.61,1.07-2.58,1.58-.98.51-2.08.97-3.32,1.37-1.23.4-2.6.72-4.11.96-1.5.24-3.16.37-4.95.37h-4.78c-.39,0-.68-.07-.89-.21-.21-.14-.36-.31-.46-.52-.1-.23-.17-.49-.19-.77v-18.28h-1.47c-.26,0-.39-.13-.39-.38s.13-.38.39-.38h10.1l3.24-1.5,3.24,1.5v.77h-8.79Z"/>
        <path d="m221.29,120.2h-.04v.77h-7.09c-.03.64-.07,1.35-.13,2.12-.06.77-.14,1.54-.23,2.31s-.21,1.53-.35,2.28c-.14.74-.29,1.41-.44,2,.26.23.64.54,1.16.93.51.38,1.07.84,1.66,1.37.59.53,1.2,1.09,1.83,1.7.63.61,1.2,1.22,1.72,1.85.51.63.92,1.25,1.23,1.87.31.62.45,1.21.42,1.78-.05.98-.3,1.68-.75,2.1-.45.43-.96.67-1.52.73s-1.12,0-1.66-.21-.9-.45-1.08-.73c-.15-.23-.39-.71-.71-1.43-.32-.72-.67-1.52-1.06-2.41-.38-.89-.78-1.78-1.18-2.68-.4-.9-.74-1.65-1.02-2.24l-.66,1.27c-.59,1-1.36,1.94-2.31,2.79-.95.86-1.99,1.65-3.1,2.35s-2.27,1.34-3.45,1.91c-1.18.56-2.31,1.07-3.39,1.5l-.46-.77c1.47-.9,2.71-1.95,3.72-3.14s1.85-2.45,2.51-3.76,1.16-2.64,1.5-3.99c.35-1.35.6-2.63.77-3.84.17-1.21.27-2.31.31-3.3.04-.99.07-1.78.1-2.37h-3.12l-1.89,1-1.89-1v-.77h14.23l3.43-1.5,2.97,1.5Zm11.53,8.79c.75,0,1.38.26,1.91.79.53.53.79,1.16.79,1.91h-6.17v14.23c0,.82-.32,1.49-.95,2.01s-1.32.9-2.06,1.16c-.87.31-1.88.54-3.01.69v-31.73l-2.12-.23c-.23-.05-.35-.18-.35-.39,0-.23.13-.35.38-.35h.04l8.06.77v12.57h1.08c.23-.44.56-.78.98-1.04.42-.26.89-.38,1.41-.38Z"/>
        <path d="m248.32,120.58c1.31,0,2.56.29,3.76.87,1.2.58,2.24,1.36,3.14,2.35.9.99,1.62,2.15,2.16,3.5s.81,2.78.81,4.29-.27,2.94-.81,4.27-1.26,2.5-2.16,3.5c-.9,1-1.95,1.79-3.14,2.37-1.2.58-2.45.87-3.76.87s-2.56-.29-3.74-.87c-1.18-.58-2.22-1.37-3.12-2.37-.9-1-1.62-2.17-2.16-3.5s-.81-2.76-.81-4.27.27-2.94.81-4.29,1.26-2.51,2.16-3.5,1.94-1.77,3.12-2.35c1.18-.58,2.43-.87,3.74-.87Zm0,20.94c.75,0,1.38-.29,1.91-.87.53-.58.96-1.34,1.31-2.28s.6-2,.75-3.19.23-2.38.23-3.59-.08-2.37-.23-3.55c-.15-1.19-.41-2.25-.75-3.19s-.78-1.71-1.31-2.3c-.53-.59-1.16-.89-1.91-.89s-1.38.3-1.91.89c-.53.59-.96,1.36-1.29,2.3s-.58,2-.75,3.19c-.17,1.18-.25,2.37-.25,3.55s.08,2.41.25,3.59.42,2.25.75,3.19.76,1.7,1.29,2.28c.53.58,1.16.87,1.91.87Zm20.74,4.39c0,.82-.32,1.49-.94,2.01-.63.51-1.32.9-2.06,1.16-.87.31-1.88.54-3.01.69v-31.73l-2.12-.23c-.23-.05-.35-.18-.35-.39,0-.23.13-.35.39-.35h.04l8.06.77v28.07Z"/>
        <path d="m298.06,118.04l-2.12-.23c-.23-.05-.35-.18-.35-.39,0-.23.13-.35.39-.35h.04l8.06.77v28.07c0,.82-.32,1.49-.94,2.01-.63.51-1.32.9-2.06,1.16-.87.31-1.88.54-3.01.69v-14.42c-.28.26-.58.5-.89.73-.69.54-1.5,1.07-2.43,1.58-.92.51-1.99.97-3.18,1.37-1.2.4-2.54.72-4.03.96-1.49.24-3.14.37-4.94.37h-4.78c-.39,0-.68-.07-.89-.21-.21-.14-.36-.31-.46-.52-.1-.23-.17-.49-.19-.77v-18.28h-1.47c-.26,0-.38-.13-.38-.38s.13-.39.38-.39h5.9c.49,0,.86.1,1.12.31.26.21.45.44.58.7.13.28.19.62.19,1v16.66c2.34,0,4.34-.13,6-.38,1.66-.26,3.15-.68,4.49-1.25s2.58-1.3,3.74-2.18c.41-.31.82-.63,1.23-.96v-3.01h-3.86c-.23.44-.56.79-.98,1.04-.42.26-.89.39-1.41.39-.75,0-1.38-.26-1.91-.79-.53-.53-.79-1.16-.79-1.91h8.95v-11.38Z"/>
        <path d="m337.54,120.31c0,3.62-.44,6.23-1.31,7.83-.88,1.6-2.1,2.89-3.66,3.89-1.57,1-3.43,1.82-5.57,2.45-2.15.63-4.5,1.28-7.08,1.95l-.66-.93c2.13-.9,3.91-1.79,5.32-2.66,1.41-.87,2.56-1.73,3.43-2.56.87-.83,1.52-1.65,1.93-2.45.41-.8.69-1.78.83-2.95.14-1.17.21-2.01.21-2.53v-1.31h-7.09l-1.89.96-1.89-.96v-.73h10.95l3.24-1.5,3.24,1.5Zm12.11,27.41c.18,0,.33.06.46.17s.19.26.19.44-.06.33-.19.46-.28.19-.46.19h-19.16c-.44.38-.95.7-1.52.94s-1.12.43-1.64.56c-.62.15-1.25.27-1.89.35v-12.34l-2.12-.23c-.1,0-.19-.04-.25-.12-.06-.08-.1-.15-.1-.23,0-.26.13-.39.39-.39h.04l8.06.77h10.26l3.16-1.46,3.24,1.5v8.98l1.54.38Zm-18.2-8.13v7.4c0,.26-.04.5-.12.73h10.76v-8.13h-10.64Zm16.81-7.33c0,.82-.31,1.49-.94,2-.63.52-1.32.9-2.06,1.16-.88.31-1.88.54-3.01.69v-18.12l-2.12-.23c-.1,0-.19-.04-.25-.12-.06-.08-.1-.15-.1-.23,0-.26.13-.38.39-.38h.04l8.06.77v14.46Z"/>
        <path d="m376.44,144.37c0,.82-.26,1.48-.77,1.98-.51.5-1.07.89-1.66,1.18-.72.31-1.53.54-2.43.7v-11.61c-.41.23-.86.35-1.35.35-.41,0-.78-.06-1.12-.19-.44.95-.96,1.81-1.58,2.58-.8,1-1.73,1.79-2.79,2.37-1.07.58-2.19.87-3.37.87s-2.31-.29-3.37-.87c-1.07-.58-2-1.37-2.81-2.37-.81-1-1.46-2.17-1.95-3.51s-.73-2.76-.73-4.28.24-2.95.73-4.3,1.14-2.52,1.95-3.51,1.75-1.77,2.81-2.35c1.07-.58,2.19-.87,3.37-.87s2.31.29,3.37.87c1.07.58,2,1.37,2.79,2.37.67.8,1.23,1.72,1.7,2.78h2.35v-7.37l-2.12-.23c-.23-.05-.35-.18-.35-.38,0-.23.13-.35.39-.35h.04l6.9.77v25.37Zm-15.08-3.28c.62,0,1.14-.28,1.56-.83s.78-1.29,1.06-2.2c.28-.91.49-1.93.62-3.07.13-1.13.19-2.27.19-3.43s-.06-2.26-.19-3.39c-.13-1.13-.33-2.15-.62-3.06-.28-.91-.64-1.65-1.06-2.22-.42-.57-.94-.85-1.56-.85s-1.14.28-1.56.85c-.42.56-.78,1.3-1.06,2.22-.28.91-.49,1.93-.62,3.06-.13,1.13-.19,2.26-.19,3.39s.06,2.3.19,3.43c.13,1.13.33,2.15.62,3.07.28.91.64,1.64,1.06,2.2.42.55.94.83,1.56.83Zm8.87-9.53c0,.93-.1,1.83-.31,2.7h1.66v-5.36c-.41.23-.86.35-1.35.35h-.23c.15.75.23,1.52.23,2.31Zm13.15,15.12c0,.82-.26,1.48-.77,1.99-.51.5-1.07.89-1.66,1.18-.72.31-1.53.54-2.43.69v-32.5l-2.12-.23c-.23-.05-.35-.18-.35-.39,0-.23.13-.35.39-.35h.04l6.9.77v28.84Z"/>
        <path d="m416.89,136.12c0,.82-.31,1.49-.94,2.01-.63.51-1.32.9-2.06,1.16-.87.31-1.88.54-3.01.69v-5.94c-.23.21-.46.4-.69.58-.72.59-1.54,1.12-2.45,1.58-.91.46-1.94.84-3.08,1.12s-2.41.42-3.8.42h-9.29c-.62,0-1.09-.12-1.41-.37-.32-.24-.55-.52-.67-.83-.15-.33-.25-.73-.27-1.2v-6.25h-1.16c-.26,0-.39-.13-.39-.38s.13-.39.39-.39h10.87v-6.94h-4.4l-3.24,1.5-3.24-1.5v-.73h6.21v-.04h4.16l3.24-1.5,3.24,1.5v.04h.04v8.4h-9.37v7.1h5.28c1.57,0,2.87-.1,3.91-.29,1.04-.19,1.92-.47,2.64-.83.72-.36,1.33-.8,1.83-1.31s1.01-1.09,1.52-1.73l.12-.15v-13.84l-2.12-.23c-.1,0-.19-.04-.25-.12-.06-.08-.1-.15-.1-.23,0-.26.13-.38.39-.38h.04l8.06.77v18.31Zm-21.44,13.15c-.57,0-.99-.12-1.27-.35-.28-.23-.49-.49-.62-.77-.15-.33-.24-.72-.27-1.16v-6.75h-1.93c-.26,0-.39-.13-.39-.38s.13-.39.39-.39h4.7c.49-.02.95.07,1.39.29.44.22.82.5,1.14.85.32.35.58.73.77,1.14.19.41.29.81.29,1.2v4.86c0,.15.03.28.08.38.1.23.31.35.62.35h9.91l3.24-1.5,3.24,1.5v.73h-21.28Z"/>
        <path d="m432.93,120.58c1.31,0,2.56.29,3.76.87,1.2.58,2.24,1.36,3.14,2.35.9.99,1.62,2.15,2.16,3.5s.81,2.78.81,4.29-.27,2.94-.81,4.27-1.26,2.5-2.16,3.5c-.9,1-1.95,1.79-3.14,2.37-1.2.58-2.45.87-3.76.87s-2.56-.29-3.74-.87c-1.18-.58-2.22-1.37-3.12-2.37-.9-1-1.62-2.17-2.16-3.5s-.81-2.76-.81-4.27.27-2.94.81-4.29,1.26-2.51,2.16-3.5,1.94-1.77,3.12-2.35c1.18-.58,2.43-.87,3.74-.87Zm0,20.94c.75,0,1.38-.29,1.91-.87.53-.58.96-1.34,1.31-2.28s.6-2,.75-3.19.23-2.38.23-3.59-.08-2.37-.23-3.55c-.15-1.19-.41-2.25-.75-3.19s-.78-1.71-1.31-2.3c-.53-.59-1.16-.89-1.91-.89s-1.38.3-1.91.89c-.53.59-.96,1.36-1.29,2.3s-.58,2-.75,3.19c-.17,1.18-.25,2.37-.25,3.55s.08,2.41.25,3.59.42,2.25.75,3.19.76,1.7,1.29,2.28c.53.58,1.16.87,1.91.87Zm20.74,4.39c0,.82-.32,1.49-.94,2.01-.63.51-1.32.9-2.06,1.16-.87.31-1.88.54-3.01.69v-31.73l-2.12-.23c-.23-.05-.35-.18-.35-.39,0-.23.13-.35.39-.35h.04l8.06.77v28.07Z"/>
        <path d="m488.76,131.5c0,.82-.32,1.49-.94,2.01-.63.51-1.32.9-2.06,1.16-.87.31-1.88.54-3.01.69v-8.1h-2c-.23.44-.56.79-.98,1.04-.42.26-.89.39-1.41.39-.57,0-1.07-.14-1.5-.42-.08.98-.35,1.89-.81,2.74-.51.98-1.23,1.81-2.14,2.51-.91.69-1.98,1.24-3.2,1.64s-2.53.6-3.91.6-2.69-.2-3.89-.6c-1.21-.4-2.26-.95-3.16-1.64-.9-.7-1.61-1.53-2.14-2.51-.53-.98-.79-2.04-.79-3.2,0-1.31.31-2.49.92-3.53s1.41-1.93,2.37-2.66,2.04-1.3,3.22-1.7,2.34-.6,3.47-.6c.31,0,.6,0,.87.02.27.01.55.03.83.06,1.18.18,2.28.52,3.3,1,1.01.49,1.9,1.1,2.66,1.83.76.73,1.34,1.57,1.75,2.53.18.41.32.82.42,1.23h6.13v-7.98l-2.12-.23c-.1,0-.19-.04-.25-.12-.07-.08-.1-.15-.1-.23,0-.26.13-.38.39-.38h.04l8.06.77v13.69Zm-5.28,9.56c.39.23.94.57,1.66,1.02.72.45,1.43.96,2.14,1.52.71.56,1.31,1.16,1.81,1.79.5.63.74,1.24.71,1.83-.05.69-.28,1.25-.67,1.66-.4.41-.86.68-1.39.81-.53.13-1.06.12-1.6-.04s-.98-.42-1.31-.81c-.13-.18-.3-.44-.5-.79-.21-.35-.44-.74-.69-1.18-.26-.44-.54-.89-.85-1.35s-.63-.89-.96-1.27c-1.16,1.47-2.58,2.78-4.26,3.93s-3.57,2.04-5.65,2.66l-.42-.58c.59-.33,1.14-.68,1.64-1.04.5-.36.96-.72,1.37-1.08-.13-.18-.27-.45-.42-.81s-.33-.77-.52-1.23-.41-.94-.64-1.43c-.23-.49-.49-.94-.77-1.35l-.58.92c-.59.72-1.31,1.41-2.14,2.08-.83.67-1.74,1.29-2.72,1.85-.98.56-2,1.07-3.07,1.52-1.07.45-2.12.83-3.14,1.14l-.46-.58c1.77-.95,3.19-2.04,4.26-3.28,1.07-1.23,1.89-2.46,2.47-3.68s.97-2.37,1.18-3.43.33-1.92.39-2.56h-1.23c-.26,0-.39-.1-.39-.31,0-.18.13-.27.39-.27h4.09c1,0,1.7.13,2.1.4.4.27.65.57.75.91.1.38.05.81-.15,1.27-.08.15-.14.28-.17.38-.04.1-.08.21-.13.33-.05.12-.1.25-.15.4-.05.15-.13.36-.23.62.26.15.56.36.91.62.35.26.7.55,1.06.89.36.33.72.69,1.08,1.06.36.37.68.74.96,1.1.39-.74.68-1.48.89-2.2.21-.72.35-1.41.42-2.06s.12-1.25.13-1.79c.01-.54.02-.99.02-1.35h-1.27c-.26,0-.39-.1-.39-.31,0-.18.13-.27.39-.27h4.05c.98,0,1.66.15,2.04.46s.62.64.69,1c.1.44.05.93-.15,1.46-.08.21-.15.42-.23.64s-.18.47-.31.75Zm-16.7-6.67c.8,0,1.47-.17,2.02-.52.55-.35,1-.82,1.33-1.41.33-.59.57-1.29.71-2.1.14-.81.21-1.66.21-2.56s-.07-1.82-.21-2.68-.38-1.62-.71-2.28c-.33-.66-.78-1.18-1.33-1.58-.55-.4-1.23-.6-2.02-.6s-1.47.2-2,.6c-.54.4-.98.92-1.31,1.58s-.57,1.41-.71,2.28c-.14.86-.21,1.75-.21,2.68s.07,1.75.21,2.56c.14.81.38,1.51.71,2.1.33.59.77,1.06,1.31,1.41.54.35,1.21.52,2,.52Z"/>
        <path d="m497.09,133.58l-2.27,1.77-2.28-1.77v-.77h26.53l3.78-2.54,3.78,2.54v.77h-29.54Zm11.49-16.23c1.23,0,2.13.15,2.7.44s.95.62,1.16.98c.23.44.29.91.19,1.43-.1.36-.21.71-.33,1.04-.12.33-.25.64-.4.93.26.13.69.31,1.29.54.6.23,1.28.5,2.04.81.76.31,1.54.64,2.33.98.8.35,1.52.7,2.18,1.06.66.36,1.19.72,1.6,1.08.41.36.6.69.58,1-.05.54-.25,1.01-.6,1.41-.35.4-.77.7-1.27.89-.5.19-1.03.27-1.58.21-.55-.05-1.05-.26-1.48-.62-.15-.13-.53-.42-1.12-.89-.59-.46-1.24-.98-1.95-1.56-.71-.58-1.39-1.16-2.04-1.74s-1.12-1.03-1.41-1.37l-.66.73c-.59.57-1.45,1.12-2.58,1.68s-2.37,1.07-3.72,1.56-2.71.93-4.07,1.33c-1.36.4-2.57.71-3.62.95l-.46-.43c2.18-.77,3.98-1.73,5.4-2.89s2.53-2.33,3.35-3.51c.82-1.18,1.4-2.29,1.74-3.32.33-1.03.53-1.79.58-2.27h-1.62c-.13,0-.23-.03-.29-.08-.06-.05-.1-.09-.1-.12,0-.18.13-.27.39-.27h3.78Zm13.77,19.97v10.22c0,.82-.32,1.49-.95,2.01s-1.32.9-2.06,1.16c-.87.31-1.88.54-3.01.7v-1.85h-13.15c-.44.38-.95.7-1.52.95-.58.24-1.12.43-1.64.56-.62.15-1.25.27-1.89.35v-13.88l-2.12-.23c-.1,0-.19-.04-.25-.12s-.1-.15-.1-.23c0-.26.13-.39.39-.39h.04l8.06.77v3.62h12.18v-3.43l-2.12-.23c-.1,0-.19-.04-.25-.12s-.1-.15-.1-.23c0-.26.13-.39.38-.39h.04l8.06.77Zm-6.02,10.95v-6.05h-12.18v5.32c0,.26-.04.5-.12.73h12.3Z"/>
        <path d="m560.48,145.92c0,.82-.32,1.49-.95,2.01s-1.32.9-2.06,1.16c-.87.31-1.88.54-3.01.69v-12.49c-.75.54-1.59,1.05-2.54,1.54-.98.51-2.08.97-3.32,1.37s-2.6.72-4.11.96-3.16.37-4.96.37h-4.78c-.39,0-.68-.07-.89-.21-.21-.14-.36-.31-.46-.52-.1-.23-.17-.49-.19-.77v-18.28h-1.46c-.26,0-.39-.13-.39-.38s.13-.38.39-.38h5.9c.49,0,.86.1,1.12.31.26.21.45.44.58.7.13.28.19.62.19,1v16.66c2.34,0,4.38-.13,6.13-.38,1.75-.26,3.33-.67,4.74-1.25,1.41-.58,2.75-1.3,4.01-2.18l.04-.04v-17.74l-2.12-.23c-.23-.05-.35-.18-.35-.39,0-.23.13-.35.38-.35h.04l8.06.77v28.07Z"/>
        <path d="m577.33,120.58v19.05c2.34,0,4.38-.13,6.13-.38,1.75-.26,3.33-.67,4.74-1.23,1.13-.46,2.22-1.03,3.28-1.7v-18.28l-2.12-.23c-.23-.05-.35-.18-.35-.39,0-.23.13-.35.38-.35h.04l8.06.77v12.57h1.08c.23-.44.56-.78.98-1.04.42-.26.89-.38,1.41-.38.75,0,1.38.26,1.91.79.53.53.79,1.16.79,1.91h-6.17v14.23c0,.82-.32,1.49-.95,2.01s-1.32.9-2.06,1.16c-.87.31-1.88.54-3.01.69v-11.95c-.54.33-1.13.67-1.77,1-.98.51-2.08.97-3.32,1.37-1.23.4-2.6.72-4.11.96s-3.16.37-4.96.37h-4.78c-.39,0-.68-.07-.89-.21-.21-.14-.36-.31-.46-.52-.1-.23-.17-.49-.19-.77v-19.43h-1.46c-.26,0-.39-.13-.39-.38s.13-.39.39-.39h10.1l3.24-1.5,3.24,1.5v.77h-8.79Z"/>
        <path d="m184.35,172.92c0,3.62-.44,6.23-1.31,7.83-.87,1.6-2.1,2.89-3.66,3.89-1.57,1-3.43,1.82-5.57,2.45-2.15.63-4.51,1.28-7.08,1.95l-.66-.93c2.13-.9,3.91-1.79,5.32-2.66,1.41-.87,2.56-1.73,3.43-2.56.87-.83,1.52-1.65,1.93-2.45s.69-1.65.83-2.56c.14-.91.21-1.76.21-2.53v-1.7h-7.09l-1.89.96-1.89-.96v-.73h10.95l3.24-1.5,3.24,1.5Zm11.34,27.41c.18,0,.33.06.46.17s.19.26.19.44-.06.33-.19.46-.28.19-.46.19h-19.16c-.44.38-.94.7-1.52.94s-1.12.43-1.64.56c-.62.15-1.25.27-1.89.35v-12.34l-2.12-.23c-.1,0-.19-.04-.25-.12-.06-.08-.1-.15-.1-.23,0-.26.13-.39.39-.39h.04l8.06.77h10.26l3.16-1.46,3.24,1.5v8.98l1.54.38Zm-18.2-8.13v7.4c0,.26-.04.5-.12.73h10.76v-8.13h-10.64Zm20.28-13.61c.75,0,1.38.26,1.91.79.53.53.79,1.16.79,1.91h-6.17v3.59c0,.82-.32,1.49-.94,2-.63.52-1.32.9-2.06,1.16-.87.31-1.88.54-3.01.69v-18.12l-2.12-.23c-.1,0-.19-.04-.25-.12-.06-.08-.1-.15-.1-.23,0-.26.13-.38.39-.38h.04l8.06.77v9.6h1.08c.23-.44.56-.78.98-1.04.42-.26.89-.38,1.41-.38Z"/>
        <path d="m213.85,171.61c.82,0,1.43.17,1.83.52.4.35.67.73.83,1.14.18.46.24,1,.19,1.62-.05.46-.11,1.03-.17,1.7-.06.67-.14,1.36-.23,2.06-.09.71-.19,1.38-.29,2.02-.1.64-.21,1.17-.31,1.58.26.23.67.55,1.23.96.57.41,1.18.9,1.85,1.46.67.57,1.34,1.19,2.02,1.87.68.68,1.27,1.39,1.75,2.12.49.73.83,1.49,1.02,2.28.19.79.15,1.55-.13,2.29-.28.72-.63,1.26-1.04,1.62s-.84.59-1.29.69c-.45.1-.89.11-1.31.02-.42-.09-.79-.22-1.1-.4-.51-.31-.95-.91-1.31-1.79-.36-.89-.69-1.86-.98-2.93-.3-1.07-.58-2.11-.85-3.14-.27-1.03-.55-1.84-.83-2.43l-.66,1.27c-.59,1-1.36,1.94-2.31,2.8-.95.86-1.99,1.64-3.1,2.35s-2.27,1.34-3.45,1.91c-1.18.57-2.31,1.07-3.39,1.5l-.46-.77c1.46-.9,2.71-1.97,3.72-3.22,1.02-1.25,1.85-2.57,2.51-3.97.66-1.4,1.16-2.83,1.5-4.28.35-1.45.6-2.83.77-4.12.17-1.3.27-2.47.31-3.51s.07-1.86.1-2.45h-2.04c-.26,0-.39-.13-.39-.39s.13-.38.39-.38h5.63Zm21.25,9.99c.75,0,1.38.26,1.91.79.53.53.79,1.16.79,1.91h-6.17v14.23c0,.82-.31,1.49-.94,2.01s-1.32.9-2.06,1.16c-.87.31-1.88.54-3.01.69v-31.73l-2.12-.23c-.23-.05-.35-.18-.35-.39,0-.23.13-.35.39-.35h.04l8.06.77v12.57h1.08c.23-.44.56-.78.98-1.04.42-.26.89-.38,1.41-.38Z"/>
        <path d="m245.77,175.19l-1.89,1-1.89-1v-.77h14.57l3.01-1.39,3.01,1.39v.77h-16.81Zm6.79.69c1.31,0,2.56.17,3.76.5s2.24.8,3.14,1.39c.9.59,1.62,1.29,2.16,2.08.54.8.81,1.65.81,2.54s-.27,1.71-.81,2.51c-.54.8-1.26,1.49-2.16,2.08-.9.59-1.95,1.05-3.14,1.39s-2.45.5-3.76.5-2.56-.17-3.74-.5-2.22-.79-3.12-1.39-1.62-1.29-2.16-2.08-.81-1.63-.81-2.51.27-1.75.81-2.54c.54-.79,1.26-1.49,2.16-2.08.9-.59,1.94-1.05,3.12-1.39s2.43-.5,3.74-.5Zm17.66,14.42v9.45c0,.82-.31,1.49-.94,2.01-.63.51-1.32.9-2.06,1.16-.87.31-1.88.54-3.01.69v-1.85h-13.15c-.44.38-.94.7-1.52.94s-1.12.43-1.64.56c-.62.15-1.25.27-1.89.35v-13.11l-2.12-.23c-.1,0-.19-.04-.25-.12-.06-.08-.1-.15-.1-.23,0-.26.13-.38.39-.38h.04l8.06.77v3.62h12.18v-3.43l-2.12-.23c-.1,0-.19-.04-.25-.12-.06-.08-.1-.15-.1-.23,0-.26.13-.38.39-.38h.04l8.06.77Zm-14.92-19.97c.39.44.45.86.19,1.27-.26.41-.66.74-1.21.98s-1.16.37-1.83.39c-.67.01-1.21-.16-1.62-.52-.15-.13-.36-.3-.62-.52-.26-.22-.54-.47-.85-.75s-.62-.59-.92-.93c-.31-.33-.59-.7-.85-1.08.9-.38,1.8-.62,2.7-.69.77-.05,1.61.04,2.51.27.9.23,1.74.76,2.51,1.58Zm-2.74,17.89c.75,0,1.38-.17,1.91-.52.53-.35.96-.8,1.31-1.35s.6-1.18.75-1.87c.15-.69.23-1.39.23-2.08s-.08-1.43-.23-2.12c-.15-.7-.41-1.32-.75-1.89-.35-.56-.78-1.02-1.31-1.35-.53-.33-1.16-.5-1.91-.5s-1.38.17-1.91.5c-.53.33-.96.79-1.29,1.35-.33.57-.58,1.2-.75,1.89-.17.69-.25,1.4-.25,2.12s.08,1.39.25,2.08c.17.7.42,1.32.75,1.87s.76,1,1.29,1.35c.53.35,1.16.52,1.91.52Zm11.64,12.26v-5.28h-12.18v4.55c0,.26-.04.5-.12.73h12.3Zm9.29-21.9c.75,0,1.38.26,1.91.79.53.53.79,1.16.79,1.91h-6.17v3.59c0,.82-.32,1.49-.94,2-.63.52-1.32.9-2.06,1.16-.87.31-1.88.54-3.01.69v-18.12l-2.12-.23c-.1,0-.19-.04-.25-.12-.06-.08-.1-.15-.1-.23,0-.26.13-.38.39-.38h.04l8.06.77v9.6h1.08c.23-.44.56-.78.98-1.04.42-.26.89-.38,1.41-.38Z"/>
        <path d="m307.39,198.52c0,.82-.32,1.49-.95,2.01s-1.32.9-2.06,1.16c-.87.31-1.88.54-3.01.69v-12.49c-.75.54-1.59,1.05-2.54,1.54-.98.51-2.08.97-3.32,1.37s-2.6.72-4.11.96-3.16.37-4.96.37h-4.78c-.39,0-.68-.07-.89-.21-.21-.14-.36-.31-.46-.52-.1-.23-.17-.49-.19-.77v-18.28h-1.46c-.26,0-.39-.13-.39-.38s.13-.38.39-.38h5.9c.49,0,.86.1,1.12.31.26.21.45.44.58.7.13.28.19.62.19,1v16.66c2.34,0,4.38-.13,6.13-.38,1.75-.26,3.33-.67,4.74-1.25,1.41-.58,2.75-1.3,4.01-2.18l.04-.04v-17.74l-2.12-.23c-.23-.05-.35-.18-.35-.39,0-.23.13-.35.38-.35h.04l8.06.77v28.07Z"/>
        <path d="m324.24,173.19v19.05c2.34,0,4.38-.13,6.13-.38,1.75-.26,3.33-.67,4.74-1.23,1.13-.46,2.22-1.03,3.28-1.7v-18.28l-2.12-.23c-.23-.05-.35-.18-.35-.39,0-.23.13-.35.38-.35h.04l8.06.77v12.57h1.08c.23-.44.56-.78.98-1.04.42-.26.89-.38,1.41-.38.75,0,1.38.26,1.91.79.53.53.79,1.16.79,1.91h-6.17v14.23c0,.82-.32,1.49-.95,2.01s-1.32.9-2.06,1.16c-.87.31-1.88.54-3.01.69v-11.95c-.54.33-1.13.67-1.77,1-.98.51-2.08.97-3.32,1.37-1.23.4-2.6.72-4.11.96s-3.16.37-4.96.37h-4.78c-.39,0-.68-.07-.89-.21-.21-.14-.36-.31-.46-.52-.1-.23-.17-.49-.19-.77v-19.43h-1.46c-.26,0-.39-.13-.39-.38s.13-.39.39-.39h10.1l3.24-1.5,3.24,1.5v.77h-8.79Z"/>
        <path d="m351.92,198.02c0-.9.31-1.67.94-2.31s1.39-.96,2.29-.96,1.67.32,2.31.96.96,1.41.96,2.31-.32,1.66-.96,2.29c-.64.63-1.41.95-2.31.95s-1.66-.31-2.29-.95c-.63-.63-.94-1.39-.94-2.29Zm4.05-5.36c-.41,0-.64-.13-.69-.41-.05-.27-.01-.62.12-1.06l3.08-17.12c.08-.49.25-.95.52-1.39.27-.44.6-.81.98-1.14.38-.32.82-.57,1.29-.75s.96-.27,1.45-.27.94.16,1.37.48c.42.32.76.74,1.02,1.25.26.52.39,1.1.4,1.76.01.65-.15,1.32-.48,1.98l-7.48,15.19c-.13.44-.31.79-.56,1.06-.25.27-.57.41-.98.41h-.04Z"/>
      </g>
      <ellipse class="cls-2" cx="528.78" cy="138.13" rx="528.19" ry="135.98"/>
      <ellipse class="cls-1" cx="528.16" cy="141.68" rx="528" ry="140.5" transform="translate(-3.93 15.54) rotate(-1.68)"/>
    </g>
  </g>
</svg>