<?xml version="1.0" encoding="UTF-8"?>
<svg id="_레이어_2" data-name="레이어 2" xmlns="http://www.w3.org/2000/svg" viewBox="0 0 27.47 27.47">
  <defs>
    <style>
      .cls-1 {
        fill: #333;
      }

      .cls-2 {
        fill: none;
        stroke: #333;
        stroke-miterlimit: 10;
        stroke-width: .75px;
      }
    </style>
  </defs>
  <g id="_레이어_1-2" data-name="레이어 1">
    <g>
      <g>
        <path class="cls-2" d="m13.73,27.09c.08,0,.15,0,.23,0,4.29-.07,8.08-2.16,10.48-5.35.12-.17.24-.34.36-.51.8-1.17,1.41-2.48,1.8-3.88.03-.12.07-.25.1-.37.25-.98.38-2.01.4-3.06v-.34c-.01-1.06-.15-2.08-.4-3.06-.03-.13-.06-.25-.1-.38-.39-1.4-1-2.71-1.8-3.88-.12-.17-.24-.35-.37-.52C22.03,2.53,18.25.45,13.96.38c-.08,0-.15,0-.23,0"/>
        <path class="cls-2" d="m13.73.38c4.92,0,8.91,5.98,8.91,13.36,0,7.38-3.99,13.36-8.91,13.36"/>
        <path class="cls-2" d="m13.73.38c2.46,0,4.45,5.98,4.45,13.36,0,7.38-1.99,13.36-4.45,13.36"/>
        <path class="cls-2" d="m13.73.38s0,5.98,0,13.36,0,13.36,0,13.36"/>
        <path class="cls-2" d="m13.73.38c-2.46,0-4.45,5.98-4.45,13.36s1.99,13.36,4.45,13.36"/>
        <path class="cls-2" d="m13.73.38c-4.92,0-8.91,5.98-8.91,13.36,0,7.38,3.99,13.36,8.91,13.36"/>
        <path class="cls-2" d="m13.73.38s-.08,0-.12,0c-.04,0-.08,0-.11,0-4.5.08-8.46,2.38-10.83,5.85-.12.17-.23.34-.33.52h0c-.67,1.1-1.2,2.31-1.53,3.59-.03.12-.07.25-.09.37h0c-.23.97-.34,1.98-.34,3.02s.12,2.05.34,3.02c.03.12.06.25.09.37.34,1.28.86,2.49,1.53,3.6.11.18.22.35.34.52,2.36,3.47,6.32,5.77,10.82,5.84.04,0,.08,0,.11,0,.04,0,.08,0,.12,0"/>
      </g>
      <path class="cls-1" d="m24.8,6.24c-1.47-.6-2.95-1.07-4.43-1.41-1.17-.28-2.34-.48-3.5-.6-1.04-.11-2.09-.15-3.13-.13-1.06.01-2.11.09-3.17.24-1.21.16-2.41.41-3.62.74-1.54.42-3.07.98-4.61,1.67.11-.17.22-.35.33-.52,1.5-.65,3.01-1.18,4.53-1.58,1.16-.3,2.33-.53,3.49-.69,1.01-.13,2.03-.21,3.04-.22,1-.01,2,.03,3,.12,1.12.11,2.25.29,3.37.54,1.44.32,2.88.76,4.32,1.32.13.17.25.34.37.52Z"/>
      <path class="cls-1" d="m26.7,10.5c-1.5-.35-2.99-.64-4.48-.86-1.44-.22-2.86-.38-4.29-.48-1.4-.1-2.79-.14-4.19-.13-1.4.01-2.8.08-4.19.2-1.44.12-2.87.31-4.32.55-1.5.25-3,.56-4.51.94.03-.12.06-.25.09-.37,1.5-.37,3-.68,4.5-.92,1.43-.24,2.85-.41,4.28-.54,1.38-.12,2.77-.18,4.15-.19,1.38-.01,2.76.03,4.14.13,1.41.1,2.83.25,4.25.47,1.49.22,2.97.5,4.47.84.03.13.07.25.1.38Z"/>
      <rect class="cls-1" x=".2" y="13.56" width="26.89" height=".35"/>
      <path class="cls-1" d="m26.7,16.97c-.03.12-.06.25-.1.37-1.5.35-2.99.63-4.47.85-1.42.21-2.84.37-4.25.47-1.24.09-2.48.13-3.71.13-.14,0-.28,0-.43,0-1.38-.01-2.76-.08-4.15-.2-1.43-.12-2.85-.3-4.28-.53-1.49-.25-2.99-.55-4.5-.93-.03-.12-.07-.25-.09-.37,1.51.38,3.01.69,4.51.94,1.44.24,2.88.42,4.32.55,1.4.12,2.8.19,4.19.2,1.39.01,2.79-.03,4.19-.13,1.43-.1,2.86-.26,4.29-.48,1.49-.22,2.98-.51,4.48-.86Z"/>
      <path class="cls-1" d="m24.8,21.22c-.12.17-.24.35-.36.51-1.44.56-2.88,1-4.33,1.32-1.12.25-2.24.43-3.37.54h0c-.86.08-1.71.12-2.57.12-.14,0-.29,0-.43,0-1.01-.02-2.02-.09-3.04-.22-1.16-.15-2.33-.38-3.49-.69-1.51-.39-3.01-.91-4.52-1.57-.12-.17-.23-.35-.34-.52,1.53.69,3.07,1.25,4.61,1.66,1.21.33,2.41.58,3.62.74,1.06.14,2.11.23,3.17.24,1.04.02,2.09-.02,3.13-.13,1.17-.12,2.34-.32,3.5-.59,1.48-.35,2.96-.82,4.43-1.42Z"/>
    </g>
  </g>
</svg>